<svg width="2048" height="96" viewBox="0 0 2048 96" fill="none" xmlns="http://www.w3.org/2000/svg">
<mask id="path-1-inside-1_3_230" fill="white">
<path d="M0 0H2048V96H0V0Z"/>
</mask>
<path d="M0 0H2048V96H0V0Z" fill="#0D1421"/>
<path d="M0 0V2H2048V0V-2H0V0Z" fill="#30363D" mask="url(#path-1-inside-1_3_230)"/>
<rect x="64" y="41" width="16" height="16" rx="4" fill="#22C55E"/>
<path d="M104.44 56.2148C103.022 56.2148 101.753 55.8923 100.632 55.2473C99.5107 54.6023 98.6267 53.6676 97.9796 52.4433C97.3324 51.2189 97.0089 49.7405 97.0089 48.0078C97.0089 46.2641 97.3353 44.7792 97.9883 43.5529C98.6412 42.3267 99.529 41.3912 100.652 40.7464C101.775 40.1017 103.037 39.7793 104.44 39.7793C105.35 39.7793 106.198 39.9062 106.983 40.1599C107.769 40.4136 108.465 40.7843 109.073 41.2719C109.681 41.7596 110.179 42.3555 110.568 43.0597C110.957 43.7638 111.211 44.5664 111.331 45.4673H108.014C107.938 45.028 107.799 44.6375 107.597 44.2956C107.395 43.9537 107.14 43.6627 106.834 43.4227C106.527 43.1826 106.177 43.0007 105.785 42.8768C105.392 42.7529 104.967 42.6909 104.51 42.6909C103.678 42.6909 102.948 42.8986 102.319 43.3141C101.691 43.7295 101.203 44.3327 100.856 45.1236C100.51 45.9145 100.336 46.8759 100.336 48.0078C100.336 49.1596 100.512 50.13 100.865 50.919C101.217 51.708 101.705 52.3026 102.33 52.7028C102.954 53.1031 103.677 53.3032 104.498 53.3032C104.955 53.3032 105.379 53.2404 105.77 53.1149C106.161 52.9894 106.512 52.8074 106.822 52.569C107.132 52.3306 107.391 52.0396 107.597 51.6961C107.803 51.3526 107.946 50.9628 108.026 50.5268H111.343C111.253 51.2697 111.032 51.9809 110.68 52.6602C110.328 53.3396 109.857 53.9471 109.266 54.4827C108.676 55.0184 107.977 55.441 107.168 55.7506C106.359 56.0601 105.45 56.2148 104.44 56.2148ZM120.204 56.2148C118.79 56.2148 117.519 55.8923 116.39 55.2473C115.261 54.6023 114.37 53.6676 113.715 52.4433C113.061 51.2189 112.733 49.7405 112.733 48.0078C112.733 46.2641 113.061 44.7792 113.715 43.5529C114.37 42.3267 115.261 41.3912 116.39 40.7464C117.519 40.1017 118.79 39.7793 120.204 39.7793C121.619 39.7793 122.888 40.1017 124.013 40.7464C125.138 41.3912 126.028 42.3267 126.683 43.5529C127.338 44.7792 127.665 46.2641 127.665 48.0078C127.665 49.7443 127.338 51.2247 126.683 52.4491C126.028 53.6734 125.138 54.6071 124.013 55.2502C122.888 55.8933 121.619 56.2148 120.204 56.2148ZM120.204 53.3032C121.033 53.3032 121.757 53.1002 122.376 52.6941C122.995 52.2881 123.477 51.6906 123.821 50.9016C124.166 50.1126 124.338 49.148 124.338 48.0078C124.338 46.8571 124.166 45.8863 123.821 45.0954C123.477 44.3045 122.995 43.7061 122.376 43.3C121.757 42.894 121.033 42.6909 120.204 42.6909C119.376 42.6909 118.652 42.8948 118.031 43.3025C117.41 43.7102 116.927 44.3095 116.58 45.1004C116.234 45.8913 116.061 46.8604 116.061 48.0078C116.061 49.148 116.234 50.1118 116.58 50.8991C116.927 51.6865 117.41 52.284 118.031 52.6917C118.652 53.0994 119.376 53.3032 120.204 53.3032ZM129.572 56V39.9941H133.231L138.285 48.0966C138.542 48.5124 138.804 48.9628 139.07 49.4478C139.337 49.9328 139.608 50.4724 139.883 51.0668C140.158 51.6611 140.434 52.3309 140.71 53.0761H140.373C140.324 52.4796 140.279 51.846 140.237 51.1756C140.194 50.5051 140.16 49.861 140.134 49.2434C140.107 48.6257 140.094 48.1038 140.094 47.6777V39.9941H143.446V56H139.777L135.188 48.6542C134.85 48.1002 134.537 47.5646 134.249 47.0474C133.961 46.5301 133.662 45.9567 133.351 45.327C133.04 44.6973 132.669 43.9467 132.238 43.0753H132.654C132.702 43.847 132.747 44.5888 132.789 45.3007C132.831 46.0125 132.865 46.6558 132.89 47.2306C132.916 47.8054 132.929 48.2766 132.929 48.6443V56H129.572ZM145.79 56V39.9941H149.45L154.503 48.0966C154.76 48.5124 155.022 48.9628 155.289 49.4478C155.556 49.9328 155.826 50.4724 156.102 51.0668C156.377 51.6611 156.652 52.3309 156.928 53.0761H156.592C156.543 52.4796 156.497 51.846 156.455 51.1756C156.413 50.5051 156.379 49.861 156.352 49.2434C156.326 48.6257 156.312 48.1038 156.312 47.6777V39.9941H159.664V56H155.995L151.407 48.6542C151.069 48.1002 150.755 47.5646 150.467 47.0474C150.18 46.5301 149.88 45.9567 149.569 45.327C149.258 44.6973 148.887 43.9467 148.456 43.0753H148.873C148.92 43.847 148.965 44.5888 149.007 45.3007C149.049 46.0125 149.083 46.6558 149.109 47.2306C149.135 47.8054 149.147 48.2766 149.147 48.6443V56H145.79ZM162.009 56V39.9941H172.726V42.7154H165.291V46.5786H172.159V49.2535H165.291V53.2787H172.747V56H162.009ZM181.816 56.2148C180.398 56.2148 179.128 55.8923 178.008 55.2473C176.887 54.6023 176.003 53.6676 175.356 52.4433C174.708 51.2189 174.385 49.7405 174.385 48.0078C174.385 46.2641 174.711 44.7792 175.364 43.5529C176.017 42.3267 176.905 41.3912 178.028 40.7464C179.151 40.1017 180.413 39.7793 181.816 39.7793C182.726 39.7793 183.574 39.9062 184.359 40.1599C185.144 40.4136 185.841 40.7843 186.449 41.2719C187.057 41.7596 187.555 42.3555 187.944 43.0597C188.333 43.7638 188.587 44.5664 188.707 45.4673H185.39C185.314 45.028 185.175 44.6375 184.973 44.2956C184.771 43.9537 184.516 43.6627 184.21 43.4227C183.903 43.1826 183.553 43.0007 183.16 42.8768C182.768 42.7529 182.343 42.6909 181.886 42.6909C181.054 42.6909 180.324 42.8986 179.695 43.3141C179.067 43.7295 178.579 44.3327 178.232 45.1236C177.886 45.9145 177.712 46.8759 177.712 48.0078C177.712 49.1596 177.888 50.13 178.241 50.919C178.593 51.708 179.081 52.3026 179.706 52.7028C180.33 53.1031 181.053 53.3032 181.874 53.3032C182.331 53.3032 182.755 53.2404 183.146 53.1149C183.537 52.9894 183.888 52.8074 184.198 52.569C184.508 52.3306 184.767 52.0396 184.973 51.6961C185.179 51.3526 185.322 50.9628 185.402 50.5268H188.719C188.629 51.2697 188.408 51.9809 188.056 52.6602C187.704 53.3396 187.233 53.9471 186.642 54.4827C186.052 55.0184 185.352 55.441 184.544 55.7506C183.735 56.0601 182.826 56.2148 181.816 56.2148ZM189.909 42.7154V39.9941H202.98V42.7154H198.091V56H194.808V42.7154H189.909ZM204.681 56V39.9941H215.398V42.7154H207.964V46.5786H214.831V49.2535H207.964V53.2787H215.419V56H204.681ZM223.122 56H218.976V53.1743H222.97C223.999 53.1743 224.862 52.9922 225.559 52.6279C226.256 52.2636 226.781 51.6981 227.134 50.9315C227.487 50.1649 227.663 49.1837 227.663 47.988C227.663 46.7951 227.486 45.8178 227.131 45.0561C226.776 44.2944 226.252 43.7313 225.56 43.3667C224.869 43.0021 224.012 42.8198 222.989 42.8198H218.902V39.9941H223.181C224.789 39.9941 226.17 40.3138 227.325 40.9531C228.479 41.5924 229.369 42.5092 229.992 43.7035C230.616 44.8978 230.928 46.326 230.928 47.988C230.928 49.6528 230.616 51.084 229.993 52.2816C229.369 53.4792 228.475 54.3983 227.309 55.039C226.143 55.6797 224.748 56 223.122 56ZM220.777 39.9941V56H217.495V39.9941H220.777ZM235.06 53.8327C234.535 53.8327 234.093 53.6554 233.735 53.301C233.377 52.9466 233.198 52.5089 233.198 51.988C233.198 51.467 233.377 51.0294 233.735 50.6749C234.093 50.3205 234.535 50.1433 235.06 50.1433C235.584 50.1433 236.026 50.3205 236.384 50.6749C236.743 51.0294 236.922 51.467 236.922 51.988C236.922 52.5089 236.743 52.9466 236.384 53.301C236.026 53.6554 235.584 53.8327 235.06 53.8327ZM235.06 45.8616C234.535 45.8616 234.093 45.6844 233.735 45.3299C233.377 44.9755 233.198 44.5378 233.198 44.0169C233.198 43.496 233.377 43.0583 233.735 42.7039C234.093 42.3494 234.535 42.1722 235.06 42.1722C235.584 42.1722 236.026 42.3494 236.384 42.7039C236.743 43.0583 236.922 43.496 236.922 44.0169C236.922 44.5378 236.743 44.9755 236.384 45.3299C236.026 45.6844 235.584 45.8616 235.06 45.8616ZM250.895 56.223C249.573 56.223 248.415 55.9788 247.423 55.4905C246.431 55.0022 245.661 54.3196 245.113 53.4428C244.564 52.566 244.29 51.5469 244.29 50.3855V39.9941H247.572V50.1141C247.572 50.7373 247.71 51.2899 247.987 51.7718C248.263 52.2538 248.65 52.6328 249.147 52.9089C249.643 53.1849 250.226 53.323 250.895 53.323C251.567 53.323 252.152 53.1849 252.649 52.9089C253.146 52.6328 253.532 52.2538 253.807 51.7718C254.082 51.2899 254.219 50.7373 254.219 50.1141V39.9941H257.501V50.3855C257.501 51.5469 257.226 52.566 256.676 53.4428C256.125 54.3196 255.355 55.0022 254.364 55.4905C253.374 55.9788 252.217 56.223 250.895 56.223ZM265.715 56.2329C264.434 56.2329 263.319 56.0361 262.37 55.6424C261.421 55.2487 260.681 54.6658 260.151 53.8938C259.621 53.1217 259.339 52.1682 259.306 51.0332H262.497C262.539 51.5729 262.699 52.0234 262.979 52.3847C263.258 52.7459 263.631 53.0166 264.098 53.1968C264.564 53.3769 265.092 53.4669 265.68 53.4669C266.264 53.4669 266.774 53.3816 267.209 53.211C267.644 53.0405 267.983 52.8012 268.225 52.4934C268.467 52.1855 268.588 51.8299 268.588 51.4266C268.588 51.0579 268.479 50.7502 268.263 50.5033C268.046 50.2565 267.733 50.0447 267.323 49.868C266.912 49.6912 266.415 49.5337 265.831 49.3955L264.071 48.9579C262.716 48.6275 261.655 48.1095 260.886 47.404C260.118 46.6986 259.734 45.7637 259.734 44.5993C259.734 43.6351 259.995 42.7914 260.516 42.0683C261.038 41.3451 261.752 40.7828 262.658 40.3814C263.564 39.98 264.597 39.7793 265.756 39.7793C266.94 39.7793 267.973 39.9819 268.853 40.3872C269.734 40.7925 270.421 41.3543 270.913 42.0726C271.405 42.7909 271.66 43.6184 271.677 44.5553H268.507C268.445 43.9139 268.17 43.4169 267.683 43.0643C267.195 42.7117 266.543 42.5354 265.726 42.5354C265.17 42.5354 264.695 42.6153 264.302 42.7751C263.908 42.935 263.609 43.1549 263.404 43.435C263.198 43.7151 263.096 44.0342 263.096 44.3924C263.096 44.7847 263.215 45.1104 263.454 45.3693C263.693 45.6283 264.009 45.8391 264.4 46.0018C264.791 46.1645 265.211 46.2996 265.659 46.407L267.103 46.7604C267.777 46.9137 268.404 47.1196 268.985 47.3781C269.566 47.6366 270.075 47.9537 270.51 48.3292C270.946 48.7048 271.286 49.1495 271.528 49.6635C271.771 50.1775 271.892 50.7701 271.892 51.4414C271.892 52.4118 271.647 53.2566 271.157 53.9758C270.668 54.6951 269.963 55.2511 269.042 55.6438C268.121 56.0365 267.012 56.2329 265.715 56.2329ZM285.698 46.7209V49.293H278.418V46.7209H285.698ZM298.631 56.2329C297.35 56.2329 296.235 56.0361 295.286 55.6424C294.337 55.2487 293.597 54.6658 293.067 53.8938C292.537 53.1217 292.255 52.1682 292.222 51.0332H295.413C295.455 51.5729 295.615 52.0234 295.895 52.3847C296.174 52.7459 296.547 53.0166 297.014 53.1968C297.48 53.3769 298.008 53.4669 298.596 53.4669C299.18 53.4669 299.69 53.3816 300.125 53.211C300.561 53.0405 300.899 52.8012 301.141 52.4934C301.383 52.1855 301.504 51.8299 301.504 51.4266C301.504 51.0579 301.396 50.7502 301.179 50.5033C300.962 50.2565 300.649 50.0447 300.239 49.868C299.829 49.6912 299.331 49.5337 298.747 49.3955L296.987 48.9579C295.632 48.6275 294.571 48.1095 293.802 47.404C293.034 46.6986 292.65 45.7637 292.65 44.5993C292.65 43.6351 292.911 42.7914 293.433 42.0683C293.954 41.3451 294.668 40.7828 295.574 40.3814C296.481 39.98 297.513 39.7793 298.672 39.7793C299.856 39.7793 300.889 39.9819 301.77 40.3872C302.65 40.7925 303.337 41.3543 303.829 42.0726C304.321 42.7909 304.576 43.6184 304.593 44.5553H301.423C301.361 43.9139 301.086 43.4169 300.599 43.0643C300.112 42.7117 299.459 42.5354 298.642 42.5354C298.086 42.5354 297.612 42.6153 297.218 42.7751C296.825 42.935 296.525 43.1549 296.32 43.435C296.115 43.7151 296.012 44.0342 296.012 44.3924C296.012 44.7847 296.132 45.1104 296.371 45.3693C296.61 45.6283 296.925 45.8391 297.316 46.0018C297.707 46.1645 298.127 46.2996 298.576 46.407L300.02 46.7604C300.693 46.9137 301.32 47.1196 301.901 47.3781C302.482 47.6366 302.991 47.9537 303.427 48.3292C303.863 48.7048 304.202 49.1495 304.444 49.6635C304.687 50.1775 304.808 50.7701 304.808 51.4414C304.808 52.4118 304.563 53.2566 304.074 53.9758C303.584 54.6951 302.879 55.2511 301.958 55.6438C301.038 56.0365 299.928 56.2329 298.631 56.2329ZM305.358 56L310.833 39.9941H315.123L320.737 56H317.092L314.527 48.2791C314.215 47.2819 313.9 46.1899 313.584 45.0033C313.268 43.8166 312.934 42.5236 312.583 41.1242H313.294C312.954 42.5302 312.635 43.8298 312.339 45.023C312.043 46.2163 311.747 47.3016 311.453 48.2791L308.979 56H305.358ZM308.779 52.2854V49.7132H317.316V52.2854H308.779ZM322.156 56V39.9941H325.815L330.869 48.0966C331.126 48.5124 331.387 48.9628 331.654 49.4478C331.921 49.9328 332.192 50.4724 332.467 51.0668C332.742 51.6611 333.018 52.3309 333.294 53.0761H332.957C332.908 52.4796 332.863 51.846 332.82 51.1756C332.778 50.5051 332.744 49.861 332.717 49.2434C332.691 48.6257 332.678 48.1038 332.678 47.6777V39.9941H336.03V56H332.361L327.772 48.6542C327.434 48.1002 327.121 47.5646 326.833 47.0474C326.545 46.5301 326.245 45.9567 325.935 45.327C325.624 44.6973 325.253 43.9467 324.822 43.0753H325.238C325.286 43.847 325.33 44.5888 325.373 45.3007C325.415 46.0125 325.449 46.6558 325.474 47.2306C325.5 47.8054 325.513 48.2766 325.513 48.6443V56H322.156ZM343.034 56V39.9941H353.566V42.7154H346.317V47.1845H352.858V49.8594H346.317V56H343.034ZM355.396 56V39.9941H361.641C362.856 39.9941 363.889 40.2091 364.741 40.6391C365.593 41.0691 366.244 41.6748 366.692 42.4564C367.14 43.2379 367.364 44.1532 367.364 45.2024C367.364 46.2593 367.137 47.1684 366.683 47.9299C366.229 48.6913 365.57 49.275 364.706 49.6809C363.842 50.0869 362.795 50.2899 361.564 50.2899H357.336V47.6333H361.044C361.711 47.6333 362.261 47.5417 362.694 47.3584C363.127 47.1752 363.45 46.9035 363.663 46.5435C363.876 46.1835 363.983 45.7365 363.983 45.2024C363.983 44.6617 363.876 44.2061 363.663 43.8357C363.45 43.4652 363.126 43.1832 362.692 42.9894C362.257 42.7957 361.705 42.6989 361.034 42.6989H358.679V56H355.396ZM364.302 56L360.411 48.7166H363.963L367.941 56H364.302ZM368.372 56L373.847 39.9941H378.136L383.75 56H380.105L377.54 48.2791C377.228 47.2819 376.914 46.1899 376.598 45.0033C376.281 43.8166 375.948 42.5236 375.596 41.1242H376.308C375.967 42.5302 375.649 43.8298 375.353 45.023C375.056 46.2163 374.761 47.3016 374.466 48.2791L371.992 56H368.372ZM371.793 52.2854V49.7132H380.33V52.2854H371.793ZM385.169 56V39.9941H388.829L393.882 48.0966C394.139 48.5124 394.401 48.9628 394.668 49.4478C394.934 49.9328 395.205 50.4724 395.481 51.0668C395.756 51.6611 396.031 52.3309 396.307 53.0761H395.971C395.922 52.4796 395.876 51.846 395.834 51.1756C395.792 50.5051 395.758 49.861 395.731 49.2434C395.705 48.6257 395.691 48.1038 395.691 47.6777V39.9941H399.043V56H395.374L390.786 48.6542C390.447 48.1002 390.134 47.5646 389.846 47.0474C389.558 46.5301 389.259 45.9567 388.948 45.327C388.637 44.6973 388.266 43.9467 387.835 43.0753H388.252C388.299 43.847 388.344 44.5888 388.386 45.3007C388.428 46.0125 388.462 46.6558 388.488 47.2306C388.514 47.8054 388.526 48.2766 388.526 48.6443V56H385.169ZM408.382 56.2148C406.964 56.2148 405.694 55.8923 404.573 55.2473C403.452 54.6023 402.568 53.6676 401.921 52.4433C401.274 51.2189 400.95 49.7405 400.95 48.0078C400.95 46.2641 401.277 44.7792 401.93 43.5529C402.583 42.3267 403.471 41.3912 404.593 40.7464C405.716 40.1017 406.979 39.7793 408.382 39.7793C409.292 39.7793 410.139 39.9062 410.925 40.1599C411.71 40.4136 412.407 40.7843 413.014 41.2719C413.622 41.7596 414.12 42.3555 414.509 43.0597C414.898 43.7638 415.153 44.5664 415.273 45.4673H411.956C411.88 45.028 411.741 44.6375 411.538 44.2956C411.336 43.9537 411.082 43.6627 410.775 43.4227C410.469 43.1826 410.119 43.0007 409.726 42.8768C409.333 42.7529 408.908 42.6909 408.451 42.6909C407.619 42.6909 406.889 42.8986 406.261 43.3141C405.632 43.7295 405.145 44.3327 404.798 45.1236C404.451 45.9145 404.278 46.8759 404.278 48.0078C404.278 49.1596 404.454 50.13 404.806 50.919C405.159 51.708 405.647 52.3026 406.271 52.7028C406.896 53.1031 407.619 53.3032 408.44 53.3032C408.897 53.3032 409.321 53.2404 409.712 53.1149C410.102 52.9894 410.453 52.8074 410.764 52.569C411.074 52.3306 411.332 52.0396 411.538 51.6961C411.744 51.3526 411.887 50.9628 411.967 50.5268H415.284C415.195 51.2697 414.974 51.9809 414.622 52.6602C414.269 53.3396 413.798 53.9471 413.208 54.4827C412.618 55.0184 411.918 55.441 411.109 55.7506C410.301 56.0601 409.392 56.2148 408.382 56.2148ZM420.395 39.9941V56H417.112V39.9941H420.395ZM428.611 56.2329C427.331 56.2329 426.216 56.0361 425.267 55.6424C424.318 55.2487 423.578 54.6658 423.048 53.8938C422.518 53.1217 422.236 52.1682 422.202 51.0332H425.394C425.435 51.5729 425.596 52.0234 425.875 52.3847C426.155 52.7459 426.528 53.0166 426.994 53.1968C427.461 53.3769 427.988 53.4669 428.577 53.4669C429.161 53.4669 429.67 53.3816 430.106 53.211C430.541 53.0405 430.88 52.8012 431.122 52.4934C431.363 52.1855 431.484 51.8299 431.484 51.4266C431.484 51.0579 431.376 50.7502 431.159 50.5033C430.943 50.2565 430.63 50.0447 430.219 49.868C429.809 49.6912 429.312 49.5337 428.727 49.3955L426.968 48.9579C425.613 48.6275 424.551 48.1095 423.783 47.404C423.015 46.6986 422.63 45.7637 422.63 44.5993C422.63 43.6351 422.891 42.7914 423.413 42.0683C423.935 41.3451 424.649 40.7828 425.555 40.3814C426.461 39.98 427.494 39.7793 428.652 39.7793C429.837 39.7793 430.869 39.9819 431.75 40.3872C432.631 40.7925 433.317 41.3543 433.81 42.0726C434.302 42.7909 434.557 43.6184 434.574 44.5553H431.404C431.342 43.9139 431.067 43.4169 430.579 43.0643C430.092 42.7117 429.44 42.5354 428.623 42.5354C428.067 42.5354 427.592 42.6153 427.199 42.7751C426.805 42.935 426.506 43.1549 426.3 43.435C426.095 43.7151 425.993 44.0342 425.993 44.3924C425.993 44.7847 426.112 45.1104 426.351 45.3693C426.59 45.6283 426.905 45.8391 427.296 46.0018C427.688 46.1645 428.107 46.2996 428.556 46.407L430 46.7604C430.673 46.9137 431.301 47.1196 431.882 47.3781C432.463 47.6366 432.971 47.9537 433.407 48.3292C433.843 48.7048 434.182 49.1495 434.425 49.6635C434.667 50.1775 434.788 50.7701 434.788 51.4414C434.788 52.4118 434.544 53.2566 434.054 53.9758C433.565 54.6951 432.859 55.2511 431.939 55.6438C431.018 56.0365 429.909 56.2329 428.611 56.2329ZM443.588 56.2148C442.17 56.2148 440.901 55.8923 439.78 55.2473C438.659 54.6023 437.775 53.6676 437.128 52.4433C436.48 51.2189 436.157 49.7405 436.157 48.0078C436.157 46.2641 436.483 44.7792 437.136 43.5529C437.789 42.3267 438.677 41.3912 439.8 40.7464C440.923 40.1017 442.186 39.7793 443.588 39.7793C444.498 39.7793 445.346 39.9062 446.131 40.1599C446.917 40.4136 447.613 40.7843 448.221 41.2719C448.829 41.7596 449.327 42.3555 449.716 43.0597C450.105 43.7638 450.359 44.5664 450.479 45.4673H447.162C447.086 45.028 446.947 44.6375 446.745 44.2956C446.543 43.9537 446.288 43.6627 445.982 43.4227C445.675 43.1826 445.325 43.0007 444.933 42.8768C444.54 42.7529 444.115 42.6909 443.658 42.6909C442.826 42.6909 442.096 42.8986 441.467 43.3141C440.839 43.7295 440.351 44.3327 440.004 45.1236C439.658 45.9145 439.484 46.8759 439.484 48.0078C439.484 49.1596 439.66 50.13 440.013 50.919C440.365 51.708 440.853 52.3026 441.478 52.7028C442.102 53.1031 442.825 53.3032 443.646 53.3032C444.103 53.3032 444.527 53.2404 444.918 53.1149C445.309 52.9894 445.66 52.8074 445.97 52.569C446.28 52.3306 446.539 52.0396 446.745 51.6961C446.951 51.3526 447.094 50.9628 447.174 50.5268H450.491C450.401 51.2697 450.18 51.9809 449.828 52.6602C449.476 53.3396 449.005 53.9471 448.414 54.4827C447.824 55.0184 447.125 55.441 446.316 55.7506C445.507 56.0601 444.598 56.2148 443.588 56.2148ZM459.352 56.2148C457.938 56.2148 456.667 55.8923 455.538 55.2473C454.409 54.6023 453.518 53.6676 452.863 52.4433C452.209 51.2189 451.881 49.7405 451.881 48.0078C451.881 46.2641 452.209 44.7792 452.863 43.5529C453.518 42.3267 454.409 41.3912 455.538 40.7464C456.667 40.1017 457.938 39.7793 459.352 39.7793C460.767 39.7793 462.036 40.1017 463.161 40.7464C464.286 41.3912 465.176 42.3267 465.831 43.5529C466.486 44.7792 466.813 46.2641 466.813 48.0078C466.813 49.7443 466.486 51.2247 465.831 52.4491C465.176 53.6734 464.286 54.6071 463.161 55.2502C462.036 55.8933 460.767 56.2148 459.352 56.2148ZM459.352 53.3032C460.181 53.3032 460.905 53.1002 461.524 52.6941C462.143 52.2881 462.625 51.6906 462.969 50.9016C463.314 50.1126 463.486 49.148 463.486 48.0078C463.486 46.8571 463.314 45.8863 462.969 45.0954C462.625 44.3045 462.143 43.7061 461.524 43.3C460.905 42.894 460.181 42.6909 459.352 42.6909C458.524 42.6909 457.8 42.8948 457.179 43.3025C456.558 43.7102 456.075 44.3095 455.728 45.1004C455.382 45.8913 455.209 46.8604 455.209 48.0078C455.209 49.148 455.382 50.1118 455.728 50.8991C456.075 51.6865 456.558 52.284 457.179 52.6917C457.8 53.0994 458.524 53.3032 459.352 53.3032Z" fill="#22C55E"/>
<path d="M537.447 51.3333L529.28 59.5M529.28 59.5L521.113 51.3333M529.28 59.5V38.5" stroke="#8B949E" stroke-width="1.16667" stroke-linecap="round" stroke-linejoin="round"/>
<path d="M556.36 53.157V50.5696L563.062 39.9941H565.278V43.6066H563.958L559.672 50.3814V50.5103H569.17V53.157H556.36ZM564.024 56V52.3728L564.087 51.2115V39.9941H567.174V56H564.024ZM572.54 56.2035C572.016 56.2035 571.574 56.0262 571.216 55.6718C570.857 55.3174 570.678 54.8797 570.678 54.3588C570.678 53.8379 570.857 53.4002 571.216 53.0457C571.574 52.6913 572.016 52.5141 572.54 52.5141C573.065 52.5141 573.507 52.6913 573.865 53.0457C574.223 53.4002 574.402 53.8379 574.402 54.3588C574.402 54.8797 574.223 55.3174 573.865 55.6718C573.507 56.0262 573.065 56.2035 572.54 56.2035ZM576.994 56V53.6407L582.665 48.3189C583.151 47.8445 583.562 47.417 583.898 47.0364C584.234 46.6558 584.49 46.281 584.665 45.9121C584.84 45.5433 584.928 45.1427 584.928 44.7104C584.928 44.233 584.82 43.8222 584.603 43.4778C584.386 43.1334 584.092 42.8684 583.72 42.6829C583.348 42.4973 582.922 42.4045 582.442 42.4045C581.946 42.4045 581.512 42.5049 581.142 42.7055C580.772 42.9062 580.485 43.1926 580.282 43.5648C580.08 43.937 579.978 44.3832 579.978 44.9036H576.851C576.851 43.8616 577.088 42.9574 577.562 42.1909C578.035 41.4245 578.694 40.831 579.539 40.4103C580.384 39.9896 581.36 39.7793 582.467 39.7793C583.597 39.7793 584.585 39.9809 585.429 40.3842C586.273 40.7875 586.93 41.344 587.399 42.054C587.868 42.7639 588.103 43.5803 588.103 44.5033C588.103 45.1027 587.987 45.6918 587.754 46.2706C587.521 46.8494 587.106 47.4977 586.51 48.2156C585.914 48.9335 585.068 49.7956 583.972 50.8021L581.549 53.1896V53.3069H588.319V56H576.994ZM595.078 56V39.9941H600.113L602.704 47.342C602.813 47.6828 602.937 48.1261 603.076 48.672C603.215 49.218 603.357 49.806 603.501 50.436C603.645 51.066 603.78 51.6778 603.906 52.2713C604.031 52.8649 604.135 53.3816 604.217 53.8214H603.574C603.659 53.3915 603.763 52.8813 603.887 52.2911C604.01 51.7008 604.144 51.0899 604.288 50.4582C604.432 49.8265 604.574 49.2353 604.713 48.6844C604.852 48.1335 604.976 47.6861 605.085 47.342L607.639 39.9941H612.685V56H609.394V48.4537C609.394 48.105 609.4 47.67 609.411 47.1489C609.423 46.6277 609.436 46.0648 609.453 45.4601C609.47 44.8553 609.485 44.2454 609.5 43.6302C609.514 43.015 609.523 42.4374 609.527 41.8972H609.739C609.6 42.4919 609.448 43.1053 609.281 43.7372C609.115 44.3691 608.948 44.9832 608.781 45.5793C608.614 46.1754 608.455 46.7217 608.305 47.218C608.154 47.7144 608.024 48.1263 607.916 48.4537L605.267 56H602.503L599.812 48.4537C599.704 48.1296 599.575 47.7218 599.425 47.2304C599.276 46.739 599.115 46.1968 598.945 45.604C598.774 45.0112 598.603 44.3971 598.433 43.7619C598.264 43.1267 598.101 42.5051 597.945 41.8972H598.202C598.209 42.4143 598.219 42.9771 598.234 43.5857C598.248 44.1943 598.263 44.8035 598.278 45.4131C598.293 46.0228 598.307 46.5923 598.32 47.1217C598.333 47.6511 598.339 48.0951 598.339 48.4537V56H595.078ZM615.024 56V39.9941H621.381C622.552 39.9941 623.529 40.1712 624.312 40.5253C625.095 40.8795 625.682 41.3654 626.073 41.9832C626.465 42.6009 626.66 43.3078 626.66 44.1039C626.66 44.7372 626.535 45.2883 626.283 45.7572C626.032 46.2261 625.69 46.6094 625.258 46.9073C624.826 47.2051 624.334 47.4166 623.784 47.5416V47.7036C624.386 47.7284 624.953 47.8993 625.485 48.2163C626.018 48.5334 626.451 48.9771 626.784 49.5475C627.117 50.1179 627.283 50.7988 627.283 51.5903C627.283 52.4311 627.077 53.1844 626.663 53.8502C626.25 54.516 625.636 55.0407 624.821 55.4244C624.006 55.8081 622.996 56 621.789 56H615.024ZM618.307 53.3019H621.138C622.102 53.3019 622.805 53.1162 623.246 52.7446C623.687 52.3731 623.908 51.8845 623.908 51.2788C623.908 50.8268 623.799 50.4264 623.581 50.0777C623.363 49.729 623.053 49.4554 622.652 49.2567C622.251 49.0581 621.775 48.9587 621.222 48.9587H618.307V53.3019ZM618.307 46.7179H620.89C621.359 46.7179 621.778 46.6341 622.149 46.4665C622.52 46.2989 622.812 46.0595 623.026 45.7483C623.241 45.4371 623.348 45.0657 623.348 44.6341C623.348 44.0516 623.141 43.5785 622.727 43.2147C622.313 42.8509 621.722 42.669 620.955 42.669H618.307V46.7179ZM635.829 39.2422L630.673 58.4062H627.88L633.037 39.2422H635.829ZM642.892 56.2329C641.612 56.2329 640.497 56.0361 639.548 55.6424C638.598 55.2487 637.859 54.6658 637.329 53.8938C636.799 53.1217 636.517 52.1682 636.483 51.0332H639.674C639.716 51.5729 639.877 52.0234 640.156 52.3847C640.436 52.7459 640.809 53.0166 641.275 53.1968C641.742 53.3769 642.269 53.4669 642.857 53.4669C643.442 53.4669 643.951 53.3816 644.387 53.211C644.822 53.0405 645.16 52.8012 645.402 52.4934C645.644 52.1855 645.765 51.8299 645.765 51.4266C645.765 51.0579 645.657 50.7502 645.44 50.5033C645.224 50.2565 644.91 50.0447 644.5 49.868C644.09 49.6912 643.593 49.5337 643.008 49.3955L641.248 48.9579C639.894 48.6275 638.832 48.1095 638.064 47.404C637.295 46.6986 636.911 45.7637 636.911 44.5993C636.911 43.6351 637.172 42.7914 637.694 42.0683C638.216 41.3451 638.93 40.7828 639.836 40.3814C640.742 39.98 641.774 39.7793 642.933 39.7793C644.118 39.7793 645.15 39.9819 646.031 40.3872C646.912 40.7925 647.598 41.3543 648.09 42.0726C648.583 42.7909 648.837 43.6184 648.854 44.5553H645.685C645.622 43.9139 645.348 43.4169 644.86 43.0643C644.373 42.7117 643.721 42.5354 642.904 42.5354C642.348 42.5354 641.873 42.6153 641.479 42.7751C641.086 42.935 640.786 43.1549 640.581 43.435C640.376 43.7151 640.273 44.0342 640.273 44.3924C640.273 44.7847 640.393 45.1104 640.632 45.3693C640.871 45.6283 641.186 45.8391 641.577 46.0018C641.968 46.1645 642.388 46.2996 642.837 46.407L644.281 46.7604C644.954 46.9137 645.581 47.1196 646.162 47.3781C646.744 47.6366 647.252 47.9537 647.688 48.3292C648.124 48.7048 648.463 49.1495 648.706 49.6635C648.948 50.1775 649.069 50.7701 649.069 51.4414C649.069 52.4118 648.824 53.2566 648.335 53.9758C647.845 54.6951 647.14 55.2511 646.22 55.6438C645.299 56.0365 644.19 56.2329 642.892 56.2329Z" fill="#8B949E"/>
<path d="M687.273 46.6667L695.44 38.5M695.44 38.5L703.607 46.6667M695.44 38.5V59.5" stroke="#8B949E" stroke-width="1.16667" stroke-linecap="round" stroke-linejoin="round"/>
<path d="M729.481 39.9941V56H726.214V42.8826H726.106L722.436 45.4781V42.4745L725.975 39.9941H729.481ZM731.705 56V53.6407L737.376 48.3189C737.862 47.8445 738.273 47.417 738.609 47.0364C738.945 46.6558 739.2 46.281 739.376 45.9121C739.551 45.5433 739.639 45.1427 739.639 44.7104C739.639 44.233 739.531 43.8222 739.314 43.4778C739.097 43.1334 738.803 42.8684 738.431 42.6829C738.059 42.4973 737.633 42.4045 737.153 42.4045C736.657 42.4045 736.223 42.5049 735.853 42.7055C735.483 42.9062 735.196 43.1926 734.993 43.5648C734.79 43.937 734.689 44.3832 734.689 44.9036H731.562C731.562 43.8616 731.799 42.9574 732.272 42.1909C732.746 41.4245 733.405 40.831 734.25 40.4103C735.095 39.9896 736.071 39.7793 737.178 39.7793C738.308 39.7793 739.296 39.9809 740.14 40.3842C740.984 40.7875 741.641 41.344 742.11 42.054C742.579 42.7639 742.814 43.5803 742.814 44.5033C742.814 45.1027 742.698 45.6918 742.465 46.2706C742.232 46.8494 741.817 47.4977 741.221 48.2156C740.625 48.9335 739.779 49.7956 738.682 50.8021L736.26 53.1896V53.3069H743.03V56H731.705ZM750.836 56.2148C749.643 56.2148 748.583 56.0184 747.657 55.6256C746.732 55.2328 746.006 54.696 745.48 54.0151C744.954 53.3341 744.692 52.5624 744.692 51.6997C744.692 51.0342 744.843 50.421 745.146 49.86C745.449 49.299 745.861 48.8309 746.382 48.4558C746.903 48.0806 747.488 47.8394 748.137 47.732V47.6344C747.286 47.4532 746.596 47.0325 746.066 46.3723C745.537 45.7121 745.272 44.9479 745.272 44.0796C745.272 43.2516 745.512 42.5142 745.992 41.8675C746.473 41.2207 747.132 40.711 747.971 40.3383C748.809 39.9656 749.764 39.7793 750.836 39.7793C751.906 39.7793 752.861 39.9656 753.701 40.3383C754.541 40.711 755.202 41.2217 755.684 41.8704C756.167 42.5191 756.408 43.2555 756.408 44.0796C756.408 44.9517 756.14 45.7169 755.605 46.3752C755.069 47.0335 754.385 47.4532 753.553 47.6344V47.732C754.191 47.8394 754.77 48.0806 755.291 48.4558C755.812 48.8309 756.227 49.299 756.535 49.86C756.844 50.421 756.998 51.0342 756.998 51.6997C756.998 52.5624 756.733 53.3341 756.204 54.0151C755.675 54.696 754.947 55.2328 754.019 55.6256C753.091 56.0184 752.031 56.2148 750.836 56.2148ZM750.836 53.7868C751.387 53.7868 751.867 53.6879 752.276 53.4899C752.685 53.292 753.004 53.0164 753.233 52.6632C753.462 52.31 753.576 51.9028 753.576 51.4414C753.576 50.9708 753.458 50.5545 753.221 50.1926C752.984 49.8306 752.659 49.5451 752.246 49.3359C751.834 49.1267 751.364 49.0221 750.836 49.0221C750.31 49.0221 749.841 49.1257 749.428 49.333C749.016 49.5402 748.691 49.8248 748.454 50.1868C748.217 50.5487 748.098 50.9669 748.098 51.4414C748.098 51.9028 748.212 52.3091 748.439 52.6603C748.666 53.0116 748.986 53.2872 749.399 53.487C749.811 53.6869 750.29 53.7868 750.836 53.7868ZM750.836 46.6122C751.294 46.6122 751.699 46.5197 752.053 46.3347C752.407 46.1497 752.687 45.8918 752.893 45.561C753.098 45.2301 753.201 44.8522 753.201 44.4272C753.201 43.9984 753.101 43.6238 752.9 43.3034C752.699 42.983 752.421 42.7329 752.065 42.5532C751.71 42.3734 751.3 42.2836 750.836 42.2836C750.373 42.2836 749.963 42.3734 749.608 42.5532C749.253 42.7329 748.976 42.983 748.777 43.3034C748.578 43.6238 748.478 43.9984 748.478 44.4272C748.478 44.8522 748.578 45.2291 748.779 45.5581C748.98 45.887 749.259 46.1449 749.616 46.3318C749.973 46.5187 750.379 46.6122 750.836 46.6122ZM765.982 52.381V49.394C766.308 48.7999 766.63 48.2514 766.947 47.7486C767.264 47.2458 767.612 46.7431 767.989 46.2405C768.367 45.7379 768.801 45.1886 769.291 44.5926L773.207 39.9941H777.216L770.459 47.8134L770.189 47.7157L765.982 52.381ZM763.558 56V39.9941H766.841V44.3704L766.78 48.4452L766.841 50.0475V56H763.558ZM773.51 56L768.764 48.7798L770.832 46.3314L777.383 56H773.51ZM778.832 56V39.9941H785.188C786.359 39.9941 787.336 40.1712 788.119 40.5253C788.902 40.8795 789.489 41.3654 789.881 41.9832C790.272 42.6009 790.468 43.3078 790.468 44.1039C790.468 44.7372 790.342 45.2883 790.091 45.7572C789.839 46.2261 789.498 46.6094 789.065 46.9073C788.633 47.2051 788.142 47.4166 787.591 47.5416V47.7036C788.193 47.7284 788.76 47.8993 789.293 48.2163C789.825 48.5334 790.258 48.9771 790.591 49.5475C790.924 50.1179 791.091 50.7988 791.091 51.5903C791.091 52.4311 790.884 53.1844 790.471 53.8502C790.057 54.516 789.443 55.0407 788.628 55.4244C787.814 55.8081 786.803 56 785.597 56H778.832ZM782.114 53.3019H784.946C785.909 53.3019 786.612 53.1162 787.053 52.7446C787.494 52.3731 787.715 51.8845 787.715 51.2788C787.715 50.8268 787.606 50.4264 787.388 50.0777C787.17 49.729 786.861 49.4554 786.46 49.2567C786.059 49.0581 785.582 48.9587 785.03 48.9587H782.114V53.3019ZM782.114 46.7179H784.698C785.166 46.7179 785.586 46.6341 785.957 46.4665C786.327 46.2989 786.62 46.0595 786.834 45.7483C787.048 45.4371 787.155 45.0657 787.155 44.6341C787.155 44.0516 786.948 43.5785 786.534 43.2147C786.121 42.8509 785.53 42.669 784.762 42.669H782.114V46.7179ZM799.637 39.2422L794.48 58.4062H791.688L796.844 39.2422H799.637ZM806.7 56.2329C805.419 56.2329 804.304 56.0361 803.355 55.6424C802.406 55.2487 801.666 54.6658 801.136 53.8938C800.606 53.1217 800.324 52.1682 800.291 51.0332H803.482C803.524 51.5729 803.684 52.0234 803.964 52.3847C804.243 52.7459 804.616 53.0166 805.083 53.1968C805.549 53.3769 806.077 53.4669 806.665 53.4669C807.249 53.4669 807.759 53.3816 808.194 53.211C808.629 53.0405 808.968 52.8012 809.21 52.4934C809.452 52.1855 809.572 51.8299 809.572 51.4266C809.572 51.0579 809.464 50.7502 809.248 50.5033C809.031 50.2565 808.718 50.0447 808.307 49.868C807.897 49.6912 807.4 49.5337 806.815 49.3955L805.056 48.9579C803.701 48.6275 802.639 48.1095 801.871 47.404C801.103 46.6986 800.719 45.7637 800.719 44.5993C800.719 43.6351 800.979 42.7914 801.501 42.0683C802.023 41.3451 802.737 40.7828 803.643 40.3814C804.549 39.98 805.582 39.7793 806.741 39.7793C807.925 39.7793 808.957 39.9819 809.838 40.3872C810.719 40.7925 811.406 41.3543 811.898 42.0726C812.39 42.7909 812.645 43.6184 812.662 44.5553H809.492C809.43 43.9139 809.155 43.4169 808.668 43.0643C808.18 42.7117 807.528 42.5354 806.711 42.5354C806.155 42.5354 805.68 42.6153 805.287 42.7751C804.893 42.935 804.594 43.1549 804.389 43.435C804.183 43.7151 804.081 44.0342 804.081 44.3924C804.081 44.7847 804.2 45.1104 804.439 45.3693C804.678 45.6283 804.993 45.8391 805.385 46.0018C805.776 46.1645 806.196 46.2996 806.644 46.407L808.088 46.7604C808.762 46.9137 809.389 47.1196 809.97 47.3781C810.551 47.6366 811.059 47.9537 811.495 48.3292C811.931 48.7048 812.27 49.1495 812.513 49.6635C812.755 50.1775 812.877 50.7701 812.877 51.4414C812.877 52.4118 812.632 53.2566 812.142 53.9758C811.653 54.6951 810.948 55.2511 810.027 55.6438C809.106 56.0365 807.997 56.2329 806.7 56.2329Z" fill="#8B949E"/>
<path d="M1510.04 49C1510.04 54.799 1505.34 59.5 1499.54 59.5M1510.04 49C1510.04 43.201 1505.34 38.5 1499.54 38.5M1510.04 49H1489.04M1499.54 59.5C1493.74 59.5 1489.04 54.799 1489.04 49M1499.54 59.5C1501.47 59.5 1503.04 54.7983 1503.04 49C1503.04 43.2017 1501.47 38.5 1499.54 38.5M1499.54 59.5C1497.61 59.5 1496.04 54.7983 1496.04 49C1496.04 43.2017 1497.61 38.5 1499.54 38.5M1489.04 49C1489.04 43.201 1493.74 38.5 1499.54 38.5" stroke="#8B949E" stroke-width="1.16667" stroke-linecap="round" stroke-linejoin="round"/>
<path d="M1534.27 39.9941V56H1530.99V39.9941H1534.27ZM1536.61 56V39.9941H1542.86C1544.07 39.9941 1545.11 40.2254 1545.96 40.6879C1546.81 41.1504 1547.46 41.7879 1547.91 42.6006C1548.36 43.4133 1548.58 44.3462 1548.58 45.3992C1548.58 46.4561 1548.35 47.3877 1547.9 48.194C1547.45 49.0003 1546.79 49.6317 1545.92 50.0881C1545.06 50.5445 1544.01 50.7727 1542.78 50.7727H1538.77V48.126H1542.26C1542.93 48.126 1543.48 48.0099 1543.91 47.7779C1544.35 47.5459 1544.67 47.2248 1544.88 46.8147C1545.09 46.4045 1545.2 45.9327 1545.2 45.3992C1545.2 44.8579 1545.09 44.3849 1544.88 43.98C1544.67 43.5751 1544.35 43.2603 1543.91 43.0357C1543.47 42.8112 1542.92 42.6989 1542.25 42.6989H1539.9V56H1536.61ZM1552.55 53.8327C1552.02 53.8327 1551.58 53.6554 1551.22 53.301C1550.86 52.9466 1550.68 52.5089 1550.68 51.988C1550.68 51.467 1550.86 51.0294 1551.22 50.6749C1551.58 50.3205 1552.02 50.1433 1552.55 50.1433C1553.07 50.1433 1553.51 50.3205 1553.87 50.6749C1554.23 51.0294 1554.41 51.467 1554.41 51.988C1554.41 52.5089 1554.23 52.9466 1553.87 53.301C1553.51 53.6554 1553.07 53.8327 1552.55 53.8327ZM1552.55 45.8616C1552.02 45.8616 1551.58 45.6844 1551.22 45.3299C1550.86 44.9755 1550.68 44.5378 1550.68 44.0169C1550.68 43.496 1550.86 43.0583 1551.22 42.7039C1551.58 42.3494 1552.02 42.1722 1552.55 42.1722C1553.07 42.1722 1553.51 42.3494 1553.87 42.7039C1554.23 43.0583 1554.41 43.496 1554.41 44.0169C1554.41 44.5378 1554.23 44.9755 1553.87 45.3299C1553.51 45.6844 1553.07 45.8616 1552.55 45.8616ZM1568.37 39.9941V56H1565.1V42.8826H1565L1561.33 45.4781V42.4745L1564.86 39.9941H1568.37ZM1576.68 56.2148C1575.33 56.2148 1574.18 55.8906 1573.23 55.2422C1572.27 54.5938 1571.54 53.6591 1571.04 52.4381C1570.53 51.2171 1570.27 49.7394 1570.27 48.0049C1570.27 46.2776 1570.53 44.8011 1571.04 43.5752C1571.55 42.3493 1572.28 41.4102 1573.23 40.7578C1574.19 40.1055 1575.33 39.7793 1576.68 39.7793C1578.02 39.7793 1579.17 40.1061 1580.13 40.7597C1581.09 41.4134 1581.82 42.3525 1582.33 43.5771C1582.83 44.8017 1583.09 46.2788 1583.09 48.0085C1583.09 49.7382 1582.83 51.2141 1582.33 52.4363C1581.83 53.6585 1581.1 54.5938 1580.14 55.2422C1579.19 55.8906 1578.03 56.2148 1576.68 56.2148ZM1576.68 53.4918C1577.34 53.4918 1577.89 53.2782 1578.35 52.851C1578.8 52.4237 1579.15 51.8017 1579.39 50.9849C1579.63 50.168 1579.75 49.1754 1579.75 48.0071C1579.75 46.8325 1579.63 45.8342 1579.39 45.0122C1579.15 44.1901 1578.8 43.5635 1578.35 43.1324C1577.89 42.7013 1577.34 42.4858 1576.68 42.4858C1576.03 42.4858 1575.47 42.7021 1575.01 43.1349C1574.56 43.5677 1574.21 44.1942 1573.97 45.0146C1573.73 45.8351 1573.61 46.8325 1573.61 48.0071C1573.61 49.1754 1573.73 50.168 1573.97 50.9849C1574.2 51.8017 1574.55 52.4237 1575.01 52.851C1575.47 53.2782 1576.02 53.4918 1576.68 53.4918ZM1584.63 53.157V50.5696L1591.33 39.9941H1593.55V43.6066H1592.23L1587.94 50.3814V50.5103H1597.44V53.157H1584.63ZM1592.29 56V52.3728L1592.36 51.2115V39.9941H1595.44V56H1592.29ZM1600.81 56.2035C1600.29 56.2035 1599.84 56.0262 1599.49 55.6718C1599.13 55.3174 1598.95 54.8797 1598.95 54.3588C1598.95 53.8379 1599.13 53.4002 1599.49 53.0457C1599.84 52.6913 1600.29 52.5141 1600.81 52.5141C1601.33 52.5141 1601.78 52.6913 1602.13 53.0457C1602.49 53.4002 1602.67 53.8379 1602.67 54.3588C1602.67 54.8797 1602.49 55.3174 1602.13 55.6718C1601.78 56.0262 1601.33 56.2035 1600.81 56.2035ZM1605.26 56V53.6407L1610.93 48.3189C1611.42 47.8445 1611.83 47.417 1612.17 47.0364C1612.5 46.6558 1612.76 46.281 1612.93 45.9121C1613.11 45.5433 1613.2 45.1427 1613.2 44.7104C1613.2 44.233 1613.09 43.8222 1612.87 43.4778C1612.66 43.1334 1612.36 42.8684 1611.99 42.6829C1611.62 42.4973 1611.19 42.4045 1610.71 42.4045C1610.22 42.4045 1609.78 42.5049 1609.41 42.7055C1609.04 42.9062 1608.75 43.1926 1608.55 43.5648C1608.35 43.937 1608.25 44.3832 1608.25 44.9036H1605.12C1605.12 43.8616 1605.36 42.9574 1605.83 42.1909C1606.3 41.4245 1606.96 40.831 1607.81 40.4103C1608.65 39.9896 1609.63 39.7793 1610.74 39.7793C1611.87 39.7793 1612.85 39.9809 1613.7 40.3842C1614.54 40.7875 1615.2 41.344 1615.67 42.054C1616.14 42.7639 1616.37 43.5803 1616.37 44.5033C1616.37 45.1027 1616.26 45.6918 1616.02 46.2706C1615.79 46.8494 1615.38 47.4977 1614.78 48.2156C1614.18 48.9335 1613.34 49.7956 1612.24 50.8021L1609.82 53.1896V53.3069H1616.59V56H1605.26ZM1624.4 56.2148C1623.2 56.2148 1622.14 56.0184 1621.22 55.6256C1620.29 55.2328 1619.56 54.696 1619.04 54.0151C1618.51 53.3341 1618.25 52.5624 1618.25 51.6997C1618.25 51.0342 1618.4 50.421 1618.7 49.86C1619.01 49.299 1619.42 48.8309 1619.94 48.4558C1620.46 48.0806 1621.05 47.8394 1621.7 47.732V47.6344C1620.85 47.4532 1620.16 47.0325 1619.63 46.3723C1619.1 45.7121 1618.83 44.9479 1618.83 44.0796C1618.83 43.2516 1619.07 42.5142 1619.55 41.8675C1620.03 41.2207 1620.69 40.711 1621.53 40.3383C1622.37 39.9656 1623.32 39.7793 1624.4 39.7793C1625.46 39.7793 1626.42 39.9656 1627.26 40.3383C1628.1 40.711 1628.76 41.2217 1629.24 41.8704C1629.73 42.5191 1629.97 43.2555 1629.97 44.0796C1629.97 44.9517 1629.7 45.7169 1629.16 46.3752C1628.63 47.0335 1627.94 47.4532 1627.11 47.6344V47.732C1627.75 47.8394 1628.33 48.0806 1628.85 48.4558C1629.37 48.8309 1629.79 49.299 1630.09 49.86C1630.4 50.421 1630.56 51.0342 1630.56 51.6997C1630.56 52.5624 1630.29 53.3341 1629.76 54.0151C1629.23 54.696 1628.51 55.2328 1627.58 55.6256C1626.65 56.0184 1625.59 56.2148 1624.4 56.2148ZM1624.4 53.7868C1624.95 53.7868 1625.43 53.6879 1625.83 53.4899C1626.24 53.292 1626.56 53.0164 1626.79 52.6632C1627.02 52.31 1627.13 51.9028 1627.13 51.4414C1627.13 50.9708 1627.02 50.5545 1626.78 50.1926C1626.54 49.8306 1626.22 49.5451 1625.8 49.3359C1625.39 49.1267 1624.92 49.0221 1624.4 49.0221C1623.87 49.0221 1623.4 49.1257 1622.99 49.333C1622.57 49.5402 1622.25 49.8248 1622.01 50.1868C1621.78 50.5487 1621.66 50.9669 1621.66 51.4414C1621.66 51.9028 1621.77 52.3091 1622 52.6603C1622.22 53.0116 1622.54 53.2872 1622.96 53.487C1623.37 53.6869 1623.85 53.7868 1624.4 53.7868ZM1624.4 46.6122C1624.85 46.6122 1625.26 46.5197 1625.61 46.3347C1625.97 46.1497 1626.25 45.8918 1626.45 45.561C1626.66 45.2301 1626.76 44.8522 1626.76 44.4272C1626.76 43.9984 1626.66 43.6238 1626.46 43.3034C1626.26 42.983 1625.98 42.7329 1625.62 42.5532C1625.27 42.3734 1624.86 42.2836 1624.4 42.2836C1623.93 42.2836 1623.52 42.3734 1623.17 42.5532C1622.81 42.7329 1622.53 42.983 1622.34 43.3034C1622.14 43.6238 1622.04 43.9984 1622.04 44.4272C1622.04 44.8522 1622.14 45.2291 1622.34 45.5581C1622.54 45.887 1622.82 46.1449 1623.17 46.3318C1623.53 46.5187 1623.94 46.6122 1624.4 46.6122ZM1634.22 56.2035C1633.7 56.2035 1633.26 56.0262 1632.9 55.6718C1632.54 55.3174 1632.36 54.8797 1632.36 54.3588C1632.36 53.8379 1632.54 53.4002 1632.9 53.0457C1633.26 52.6913 1633.7 52.5141 1634.22 52.5141C1634.75 52.5141 1635.19 52.6913 1635.55 53.0457C1635.91 53.4002 1636.08 53.8379 1636.08 54.3588C1636.08 54.8797 1635.91 55.3174 1635.55 55.6718C1635.19 56.0262 1634.75 56.2035 1634.22 56.2035ZM1643.4 39.9941V56H1640.13V42.8826H1640.03L1636.36 45.4781V42.4745L1639.89 39.9941H1643.4ZM1651.13 56.238C1650.07 56.238 1649.14 56.031 1648.33 55.6168C1647.52 55.2027 1646.87 54.6405 1646.37 53.9302C1645.88 53.2199 1645.58 52.4232 1645.47 51.54H1648.7C1648.83 52.1137 1649.11 52.5691 1649.54 52.9064C1649.96 53.2437 1650.49 53.4123 1651.13 53.4123C1651.83 53.4123 1652.42 53.2034 1652.9 52.7854C1653.38 52.3675 1653.75 51.7734 1654 51.0031C1654.24 50.2328 1654.37 49.3192 1654.37 48.2622H1654.26C1654.02 48.7261 1653.7 49.1261 1653.29 49.4622C1652.88 49.7983 1652.42 50.057 1651.9 50.2382C1651.38 50.4195 1650.83 50.5101 1650.24 50.5101C1649.3 50.5101 1648.45 50.2876 1647.71 49.8425C1646.96 49.3974 1646.37 48.7843 1645.94 48.0032C1645.52 47.2221 1645.3 46.333 1645.3 45.336C1645.3 44.2555 1645.55 43.2936 1646.06 42.4505C1646.56 41.6073 1647.25 40.9449 1648.15 40.4635C1649.04 39.982 1650.08 39.7462 1651.26 39.7561C1652.07 39.7594 1652.85 39.8981 1653.61 40.1722C1654.36 40.4464 1655.03 40.8866 1655.63 41.493C1656.23 42.0994 1656.7 42.904 1657.05 43.907C1657.4 44.91 1657.58 46.1433 1657.58 47.6069C1657.58 48.9592 1657.43 50.1676 1657.13 51.2324C1656.82 52.2972 1656.39 53.2025 1655.83 53.9484C1655.26 54.6942 1654.58 55.2623 1653.79 55.6526C1652.99 56.0429 1652.11 56.238 1651.13 56.238ZM1651.24 48.1004C1651.64 48.1004 1652.01 48.025 1652.35 47.8741C1652.69 47.7233 1652.98 47.5162 1653.23 47.2528C1653.48 46.9894 1653.68 46.6853 1653.82 46.3404C1653.96 45.9955 1654.04 45.6254 1654.04 45.2301C1654.04 44.7109 1653.92 44.2358 1653.68 43.8047C1653.44 43.3737 1653.11 43.0284 1652.7 42.7689C1652.28 42.5094 1651.8 42.3796 1651.27 42.3796C1650.74 42.3796 1650.27 42.5061 1649.85 42.759C1649.43 43.012 1649.1 43.3556 1648.86 43.7899C1648.62 44.2243 1648.5 44.7109 1648.5 45.2499C1648.5 45.7855 1648.62 46.2689 1648.85 46.6999C1649.09 47.131 1649.42 47.4721 1649.83 47.7234C1650.24 47.9747 1650.71 48.1004 1651.24 48.1004ZM1661.06 56.2035C1660.54 56.2035 1660.09 56.0262 1659.74 55.6718C1659.38 55.3174 1659.2 54.8797 1659.2 54.3588C1659.2 53.8379 1659.38 53.4002 1659.74 53.0457C1660.09 52.6913 1660.54 52.5141 1661.06 52.5141C1661.59 52.5141 1662.03 52.6913 1662.39 53.0457C1662.74 53.4002 1662.92 53.8379 1662.92 54.3588C1662.92 54.8797 1662.74 55.3174 1662.39 55.6718C1662.03 56.0262 1661.59 56.2035 1661.06 56.2035ZM1665.26 53.157V50.5696L1671.97 39.9941H1674.18V43.6066H1672.86L1668.58 50.3814V50.5103H1678.07V53.157H1665.26ZM1672.93 56V52.3728L1672.99 51.2115V39.9941H1676.08V56H1672.93ZM1679.84 56V53.6407L1685.51 48.3189C1686 47.8445 1686.41 47.417 1686.75 47.0364C1687.08 46.6558 1687.34 46.281 1687.51 45.9121C1687.69 45.5433 1687.78 45.1427 1687.78 44.7104C1687.78 44.233 1687.67 43.8222 1687.45 43.4778C1687.23 43.1334 1686.94 42.8684 1686.57 42.6829C1686.2 42.4973 1685.77 42.4045 1685.29 42.4045C1684.79 42.4045 1684.36 42.5049 1683.99 42.7055C1683.62 42.9062 1683.33 43.1926 1683.13 43.5648C1682.93 43.937 1682.83 44.3832 1682.83 44.9036H1679.7C1679.7 43.8616 1679.94 42.9574 1680.41 42.1909C1680.88 41.4245 1681.54 40.831 1682.39 40.4103C1683.23 39.9896 1684.21 39.7793 1685.32 39.7793C1686.45 39.7793 1687.43 39.9809 1688.28 40.3842C1689.12 40.7875 1689.78 41.344 1690.25 42.054C1690.72 42.7639 1690.95 43.5803 1690.95 44.5033C1690.95 45.1027 1690.83 45.6918 1690.6 46.2706C1690.37 46.8494 1689.95 47.4977 1689.36 48.2156C1688.76 48.9335 1687.92 49.7956 1686.82 50.8021L1684.4 53.1896V53.3069H1691.17V56H1679.84Z" fill="#8B949E"/>
<path d="M1769.84 44.3333V49L1773.34 52.5M1780.34 49C1780.34 54.7951 1775.63 59.5 1769.84 59.5C1764.04 59.5 1759.34 54.7951 1759.34 49C1759.34 43.2049 1764.04 38.5 1769.84 38.5C1775.63 38.5 1780.34 43.2049 1780.34 49L1769.84 44.3333" stroke="#8B949E" stroke-width="1.16667" stroke-linecap="round" stroke-linejoin="round"/>
<path d="M1807.89 56.223C1806.57 56.223 1805.41 55.9788 1804.42 55.4905C1803.43 55.0022 1802.66 54.3196 1802.11 53.4428C1801.56 52.566 1801.29 51.5469 1801.29 50.3855V39.9941H1804.57V50.1141C1804.57 50.7373 1804.71 51.2899 1804.98 51.7718C1805.26 52.2538 1805.65 52.6328 1806.14 52.9089C1806.64 53.1849 1807.22 53.323 1807.89 53.323C1808.56 53.323 1809.15 53.1849 1809.65 52.9089C1810.14 52.6328 1810.53 52.2538 1810.8 51.7718C1811.08 51.2899 1811.22 50.7373 1811.22 50.1141V39.9941H1814.5V50.3855C1814.5 51.5469 1814.22 52.566 1813.67 53.4428C1813.12 54.3196 1812.35 55.0022 1811.36 55.4905C1810.37 55.9788 1809.21 56.223 1807.89 56.223ZM1816.84 56V39.9941H1823.08C1824.3 39.9941 1825.33 40.2254 1826.18 40.6879C1827.04 41.1504 1827.69 41.7879 1828.13 42.6006C1828.58 43.4133 1828.81 44.3462 1828.81 45.3992C1828.81 46.4561 1828.58 47.3877 1828.13 48.194C1827.67 49.0003 1827.01 49.6317 1826.15 50.0881C1825.28 50.5445 1824.24 50.7727 1823.01 50.7727H1819V48.126H1822.49C1823.15 48.126 1823.7 48.0099 1824.14 47.7779C1824.57 47.5459 1824.9 47.2248 1825.11 46.8147C1825.32 46.4045 1825.42 45.9327 1825.42 45.3992C1825.42 44.8579 1825.32 44.3849 1825.11 43.98C1824.9 43.5751 1824.57 43.2603 1824.14 43.0357C1823.7 42.8112 1823.15 42.6989 1822.48 42.6989H1820.12V56H1816.84ZM1829.91 42.7154V39.9941H1842.98V42.7154H1838.09V56H1834.81V42.7154H1829.91ZM1847.96 39.9941V56H1844.68V39.9941H1847.96ZM1850.3 56V39.9941H1855.34L1857.93 47.342C1858.04 47.6828 1858.16 48.1261 1858.3 48.672C1858.44 49.218 1858.58 49.806 1858.73 50.436C1858.87 51.066 1859.01 51.6778 1859.13 52.2713C1859.26 52.8649 1859.36 53.3816 1859.44 53.8214H1858.8C1858.89 53.3915 1858.99 52.8813 1859.11 52.2911C1859.24 51.7008 1859.37 51.0899 1859.52 50.4582C1859.66 49.8265 1859.8 49.2353 1859.94 48.6844C1860.08 48.1335 1860.2 47.6861 1860.31 47.342L1862.87 39.9941H1867.91V56H1864.62V48.4537C1864.62 48.105 1864.63 47.67 1864.64 47.1489C1864.65 46.6277 1864.66 46.0648 1864.68 45.4601C1864.7 44.8553 1864.71 44.2454 1864.73 43.6302C1864.74 43.015 1864.75 42.4374 1864.75 41.8972H1864.97C1864.83 42.4919 1864.67 43.1053 1864.51 43.7372C1864.34 44.3691 1864.18 44.9832 1864.01 45.5793C1863.84 46.1754 1863.68 46.7217 1863.53 47.218C1863.38 47.7144 1863.25 48.1263 1863.14 48.4537L1860.49 56H1857.73L1855.04 48.4537C1854.93 48.1296 1854.8 47.7218 1854.65 47.2304C1854.5 46.739 1854.34 46.1968 1854.17 45.604C1854 45.0112 1853.83 44.3971 1853.66 43.7619C1853.49 43.1267 1853.33 42.5051 1853.17 41.8972H1853.43C1853.44 42.4143 1853.45 42.9771 1853.46 43.5857C1853.48 44.1943 1853.49 44.8035 1853.5 45.4131C1853.52 46.0228 1853.53 46.5923 1853.55 47.1217C1853.56 47.6511 1853.57 48.0951 1853.57 48.4537V56H1850.3ZM1870.25 56V39.9941H1880.97V42.7154H1873.53V46.5786H1880.4V49.2535H1873.53V53.2787H1880.99V56H1870.25ZM1885.29 53.8327C1884.77 53.8327 1884.33 53.6554 1883.97 53.301C1883.61 52.9466 1883.43 52.5089 1883.43 51.988C1883.43 51.467 1883.61 51.0294 1883.97 50.6749C1884.33 50.3205 1884.77 50.1433 1885.29 50.1433C1885.82 50.1433 1886.26 50.3205 1886.62 50.6749C1886.97 51.0294 1887.15 51.467 1887.15 51.988C1887.15 52.5089 1886.97 52.9466 1886.62 53.301C1886.26 53.6554 1885.82 53.8327 1885.29 53.8327ZM1885.29 45.8616C1884.77 45.8616 1884.33 45.6844 1883.97 45.3299C1883.61 44.9755 1883.43 44.5378 1883.43 44.0169C1883.43 43.496 1883.61 43.0583 1883.97 42.7039C1884.33 42.3494 1884.77 42.1722 1885.29 42.1722C1885.82 42.1722 1886.26 42.3494 1886.62 42.7039C1886.97 43.0583 1887.15 43.496 1887.15 44.0169C1887.15 44.5378 1886.97 44.9755 1886.62 45.3299C1886.26 45.6844 1885.82 45.8616 1885.29 45.8616ZM1900.49 56.2148C1899.14 56.2148 1897.99 55.8906 1897.04 55.2422C1896.08 54.5938 1895.35 53.6591 1894.85 52.4381C1894.34 51.2171 1894.08 49.7394 1894.08 48.0049C1894.08 46.2776 1894.34 44.8011 1894.85 43.5752C1895.36 42.3493 1896.09 41.4102 1897.04 40.7578C1898 40.1055 1899.15 39.7793 1900.49 39.7793C1901.83 39.7793 1902.99 40.1061 1903.94 40.7597C1904.9 41.4134 1905.63 42.3525 1906.14 43.5771C1906.64 44.8017 1906.9 46.2788 1906.9 48.0085C1906.9 49.7382 1906.64 51.2141 1906.14 52.4363C1905.64 53.6585 1904.91 54.5938 1903.95 55.2422C1903 55.8906 1901.85 56.2148 1900.49 56.2148ZM1900.49 53.4918C1901.15 53.4918 1901.7 53.2782 1902.16 52.851C1902.61 52.4237 1902.96 51.8017 1903.2 50.9849C1903.44 50.168 1903.56 49.1754 1903.56 48.0071C1903.56 46.8325 1903.44 45.8342 1903.2 45.0122C1902.96 44.1901 1902.61 43.5635 1902.16 43.1324C1901.7 42.7013 1901.15 42.4858 1900.49 42.4858C1899.84 42.4858 1899.28 42.7021 1898.83 43.1349C1898.37 43.5677 1898.02 44.1942 1897.78 45.0146C1897.54 45.8351 1897.43 46.8325 1897.43 48.0071C1897.43 49.1754 1897.54 50.168 1897.78 50.9849C1898.02 51.8017 1898.36 52.4237 1898.82 52.851C1899.28 53.2782 1899.83 53.4918 1900.49 53.4918ZM1908.69 56V53.6407L1914.36 48.3189C1914.85 47.8445 1915.26 47.417 1915.59 47.0364C1915.93 46.6558 1916.19 46.281 1916.36 45.9121C1916.54 45.5433 1916.62 45.1427 1916.62 44.7104C1916.62 44.233 1916.52 43.8222 1916.3 43.4778C1916.08 43.1334 1915.79 42.8684 1915.42 42.6829C1915.04 42.4973 1914.62 42.4045 1914.14 42.4045C1913.64 42.4045 1913.21 42.5049 1912.84 42.7055C1912.47 42.9062 1912.18 43.1926 1911.98 43.5648C1911.78 43.937 1911.67 44.3832 1911.67 44.9036H1908.55C1908.55 43.8616 1908.78 42.9574 1909.26 42.1909C1909.73 41.4245 1910.39 40.831 1911.24 40.4103C1912.08 39.9896 1913.06 39.7793 1914.16 39.7793C1915.29 39.7793 1916.28 39.9809 1917.13 40.3842C1917.97 40.7875 1918.63 41.344 1919.1 42.054C1919.56 42.7639 1919.8 43.5803 1919.8 44.5033C1919.8 45.1027 1919.68 45.6918 1919.45 46.2706C1919.22 46.8494 1918.8 47.4977 1918.21 48.2156C1917.61 48.9335 1916.76 49.7956 1915.67 50.8021L1913.24 53.1896V53.3069H1920.02V56H1908.69ZM1924.34 53.8327C1923.82 53.8327 1923.38 53.6554 1923.02 53.301C1922.66 52.9466 1922.48 52.5089 1922.48 51.988C1922.48 51.467 1922.66 51.0294 1923.02 50.6749C1923.38 50.3205 1923.82 50.1433 1924.34 50.1433C1924.87 50.1433 1925.31 50.3205 1925.67 50.6749C1926.02 51.0294 1926.2 51.467 1926.2 51.988C1926.2 52.5089 1926.02 52.9466 1925.67 53.301C1925.31 53.6554 1924.87 53.8327 1924.34 53.8327ZM1924.34 45.8616C1923.82 45.8616 1923.38 45.6844 1923.02 45.3299C1922.66 44.9755 1922.48 44.5378 1922.48 44.0169C1922.48 43.496 1922.66 43.0583 1923.02 42.7039C1923.38 42.3494 1923.82 42.1722 1924.34 42.1722C1924.87 42.1722 1925.31 42.3494 1925.67 42.7039C1926.02 43.0583 1926.2 43.496 1926.2 44.0169C1926.2 44.5378 1926.02 44.9755 1925.67 45.3299C1925.31 45.6844 1924.87 45.8616 1924.34 45.8616ZM1928.55 53.157V50.5696L1935.25 39.9941H1937.46V43.6066H1936.14L1931.86 50.3814V50.5103H1941.36V53.157H1928.55ZM1936.21 56V52.3728L1936.27 51.2115V39.9941H1939.36V56H1936.21ZM1948.54 56.2148C1947.45 56.2148 1946.47 56.013 1945.61 55.6094C1944.76 55.2058 1944.08 54.6497 1943.58 53.941C1943.08 53.2324 1942.82 52.4215 1942.8 51.5084H1945.99C1946.01 51.9231 1946.14 52.2895 1946.37 52.6078C1946.6 52.926 1946.91 53.1734 1947.29 53.3498C1947.67 53.5263 1948.09 53.6145 1948.54 53.6145C1949.08 53.6145 1949.55 53.4941 1949.97 53.2533C1950.38 53.0124 1950.7 52.6773 1950.94 52.2479C1951.17 51.8185 1951.29 51.3233 1951.29 50.7623C1951.29 50.1908 1951.17 49.6861 1950.93 49.2482C1950.69 48.8103 1950.36 48.4685 1949.94 48.2227C1949.52 47.9769 1949.03 47.854 1948.48 47.854C1948.01 47.854 1947.55 47.9502 1947.11 48.1426C1946.66 48.3349 1946.32 48.5915 1946.08 48.9124L1943.13 48.3976L1943.9 39.9941H1953.59V42.6989H1946.62L1946.2 46.751H1946.29C1946.58 46.3628 1947 46.0433 1947.57 45.7925C1948.13 45.5416 1948.76 45.4161 1949.45 45.4161C1950.17 45.4161 1950.83 45.5448 1951.44 45.802C1952.05 46.0592 1952.59 46.4238 1953.04 46.8956C1953.49 47.3674 1953.84 47.9243 1954.09 48.5663C1954.34 49.2083 1954.47 49.9122 1954.47 50.6779C1954.47 51.7522 1954.22 52.7059 1953.72 53.539C1953.22 54.372 1952.53 55.0262 1951.64 55.5017C1950.75 55.9771 1949.72 56.2148 1948.54 56.2148ZM1958.6 53.8327C1958.08 53.8327 1957.64 53.6554 1957.28 53.301C1956.92 52.9466 1956.74 52.5089 1956.74 51.988C1956.74 51.467 1956.92 51.0294 1957.28 50.6749C1957.64 50.3205 1958.08 50.1433 1958.6 50.1433C1959.13 50.1433 1959.57 50.3205 1959.93 50.6749C1960.29 51.0294 1960.46 51.467 1960.46 51.988C1960.46 52.5089 1960.29 52.9466 1959.93 53.301C1959.57 53.6554 1959.13 53.8327 1958.6 53.8327ZM1958.6 45.8616C1958.08 45.8616 1957.64 45.6844 1957.28 45.3299C1956.92 44.9755 1956.74 44.5378 1956.74 44.0169C1956.74 43.496 1956.92 43.0583 1957.28 42.7039C1957.64 42.3494 1958.08 42.1722 1958.6 42.1722C1959.13 42.1722 1959.57 42.3494 1959.93 42.7039C1960.29 43.0583 1960.46 43.496 1960.46 44.0169C1960.46 44.5378 1960.29 44.9755 1959.93 45.3299C1959.57 45.6844 1959.13 45.8616 1958.6 45.8616ZM1969.77 39.9941V56H1966.5V42.8826H1966.39L1962.72 45.4781V42.4745L1966.26 39.9941H1969.77ZM1971.99 56V53.6407L1977.66 48.3189C1978.15 47.8445 1978.56 47.417 1978.9 47.0364C1979.23 46.6558 1979.49 46.281 1979.66 45.9121C1979.84 45.5433 1979.93 45.1427 1979.93 44.7104C1979.93 44.233 1979.82 43.8222 1979.6 43.4778C1979.38 43.1334 1979.09 42.8684 1978.72 42.6829C1978.35 42.4973 1977.92 42.4045 1977.44 42.4045C1976.94 42.4045 1976.51 42.5049 1976.14 42.7055C1975.77 42.9062 1975.48 43.1926 1975.28 43.5648C1975.08 43.937 1974.98 44.3832 1974.98 44.9036H1971.85C1971.85 43.8616 1972.09 42.9574 1972.56 42.1909C1973.03 41.4245 1973.69 40.831 1974.54 40.4103C1975.38 39.9896 1976.36 39.7793 1977.46 39.7793C1978.6 39.7793 1979.58 39.9809 1980.43 40.3842C1981.27 40.7875 1981.93 41.344 1982.4 42.054C1982.87 42.7639 1983.1 43.5803 1983.1 44.5033C1983.1 45.1027 1982.98 45.6918 1982.75 46.2706C1982.52 46.8494 1982.1 47.4977 1981.51 48.2156C1980.91 48.9335 1980.07 49.7956 1978.97 50.8021L1976.55 53.1896V53.3069H1983.32V56H1971.99Z" fill="#8B949E"/>
</svg>
