<svg width="512" height="2048" viewBox="0 0 512 2048" fill="none" xmlns="http://www.w3.org/2000/svg">
<mask id="path-1-inside-1_3_3" fill="white">
<path d="M0 0H512V2048H0V0Z"/>
</mask>
<path d="M0 0H512V2048H0V0Z" fill="#0D1421"/>
<path d="M512 0H510V2048H512H514V0H512Z" fill="#1F2937" mask="url(#path-1-inside-1_3_3)"/>
<rect x="48" y="48" width="80" height="80" rx="8" fill="#1F6FEB"/>
<g filter="url(#filter0_dd_3_3)">
<rect x="48" y="48" width="80" height="80" rx="8" fill="white" fill-opacity="0.01" shape-rendering="crispEdges"/>
</g>
<path d="M82 87.9999L86 91.9999L94 83.9999M105.236 75.9679C98.9122 76.3038 92.7135 74.1172 88 69.8879C83.2865 74.1172 77.0878 76.3038 70.764 75.9679C70.2551 77.9382 69.9984 79.965 70 81.9999C70 93.1819 77.648 102.58 88 105.244C98.352 102.58 106 93.1839 106 81.9999C106 79.9159 105.734 77.8959 105.236 75.9679L82 87.9999" stroke="white" stroke-width="2" stroke-linecap="round" stroke-linejoin="round"/>
<path d="M154.367 83.5V57.3086H164.585C166.573 57.3086 168.264 57.687 169.659 58.4438C171.053 59.2006 172.117 60.2439 172.851 61.5738C173.584 62.9036 173.951 64.4301 173.951 66.1532C173.951 67.8827 173.579 69.4071 172.836 70.7266C172.093 72.046 171.015 73.0791 169.601 73.8259C168.187 74.5728 166.473 74.9462 164.46 74.9462H157.896V70.6152H163.609C164.7 70.6152 165.602 70.4254 166.312 70.0457C167.023 69.666 167.552 69.1406 167.898 68.4695C168.244 67.7984 168.417 67.0263 168.417 66.1532C168.417 65.2675 168.244 64.4934 167.898 63.8309C167.552 63.1683 167.022 62.6533 166.308 62.2858C165.595 61.9183 164.689 61.7345 163.592 61.7345H159.738V83.5H154.367ZM177.572 83.5V63.8477H182.681V67.2698H182.892C183.249 66.0585 183.852 65.1416 184.701 64.5191C185.551 63.8966 186.527 63.5854 187.629 63.5854C187.901 63.5854 188.194 63.6007 188.507 63.6314C188.819 63.6622 189.095 63.7055 189.333 63.7615V68.4715C189.1 68.3911 188.76 68.3259 188.312 68.2759C187.864 68.2258 187.445 68.2008 187.055 68.2008C186.25 68.2008 185.528 68.375 184.888 68.7232C184.249 69.0715 183.748 69.5536 183.386 70.1695C183.024 70.7855 182.843 71.5008 182.843 72.3155V83.5H177.572ZM200.149 83.8839C198.178 83.8839 196.472 83.4604 195.032 82.6135C193.592 81.7666 192.483 80.583 191.705 79.0628C190.926 77.5425 190.537 75.7745 190.537 73.7589C190.537 71.7271 190.926 69.9497 191.705 68.4268C192.483 66.9038 193.592 65.7188 195.032 64.8719C196.472 64.025 198.178 63.6016 200.149 63.6016C202.125 63.6016 203.831 64.025 205.268 64.8719C206.704 65.7188 207.811 66.9038 208.59 68.4268C209.368 69.9497 209.758 71.7271 209.758 73.7589C209.758 75.7745 209.368 77.5425 208.59 79.0628C207.811 80.583 206.704 81.7666 205.268 82.6135C203.831 83.4604 202.125 83.8839 200.149 83.8839ZM200.149 79.7343C201.087 79.7343 201.871 79.4736 202.502 78.9521C203.133 78.4306 203.606 77.7174 203.921 76.8125C204.236 75.9076 204.394 74.8834 204.394 73.7399C204.394 72.5847 204.236 71.5567 203.921 70.6559C203.606 69.7551 203.133 69.0457 202.502 68.5279C201.871 68.0101 201.087 67.7512 200.149 67.7512C199.209 67.7512 198.426 68.0101 197.797 68.5279C197.168 69.0457 196.697 69.7537 196.381 70.6518C196.066 71.5499 195.909 72.5793 195.909 73.7399C195.909 74.8834 196.066 75.9076 196.381 76.8125C196.697 77.7174 197.168 78.4306 197.797 78.9521C198.426 79.4736 199.209 79.7343 200.149 79.7343ZM211.209 83.5L218.809 71.3619L218.801 75.4584L211.585 63.8477H217.279L219.058 66.9501C219.621 67.9598 220.129 68.962 220.583 69.9567C221.036 70.9514 221.493 71.9137 221.954 72.8434H219.95C220.435 71.92 220.9 70.9593 221.344 69.9615C221.789 68.9636 222.305 67.9598 222.892 66.9501L224.743 63.8477H230.329L222.983 75.5136V71.467L230.607 83.5H224.95L222.769 79.7999C222.192 78.7946 221.672 77.7951 221.208 76.8012C220.744 75.8073 220.275 74.8536 219.801 73.94H221.813C221.358 74.8536 220.913 75.8073 220.477 76.8012C220.042 77.7951 219.539 78.7946 218.97 79.7999L216.802 83.5H211.209ZM233.457 90.4578L234.665 86.4815L235.312 86.6548C236.026 86.8379 236.656 86.8881 237.203 86.8056C237.749 86.7231 238.189 86.5004 238.522 86.1373C238.855 85.7743 239.057 85.2664 239.126 84.6137L239.281 83.558L231.898 63.8477H237.497L240.798 74.0495C241.205 75.3379 241.534 76.6256 241.785 77.9127C242.036 79.1998 242.322 80.545 242.643 81.9485H241.416C241.737 80.545 242.054 79.1953 242.368 77.8992C242.682 76.6031 243.049 75.3199 243.47 74.0495L246.929 63.8477H252.463L244.117 85.8185C243.718 86.8741 243.208 87.7895 242.585 88.5646C241.962 89.3397 241.187 89.9374 240.263 90.3577C239.338 90.7781 238.216 90.9883 236.898 90.9883C236.202 90.9883 235.548 90.9378 234.936 90.8368C234.323 90.7357 233.83 90.6094 233.457 90.4578ZM266.833 83.8516C264.512 83.8516 262.435 83.3238 260.6 82.2683C258.766 81.2128 257.32 79.6833 256.261 77.6799C255.202 75.6765 254.672 73.2571 254.672 70.4219C254.672 67.5686 255.207 65.1386 256.275 63.132C257.343 61.1254 258.796 59.5946 260.634 58.5396C262.471 57.4845 264.537 56.957 266.833 56.957C268.321 56.957 269.708 57.1646 270.994 57.5798C272.279 57.995 273.419 58.6016 274.413 59.3995C275.408 60.1975 276.223 61.1726 276.86 62.3249C277.496 63.4772 277.913 64.7905 278.109 66.2647H272.681C272.557 65.5459 272.329 64.9068 271.998 64.3473C271.667 63.7879 271.251 63.3117 270.749 62.9189C270.247 62.5261 269.675 62.2284 269.033 62.0256C268.39 61.8229 267.694 61.7215 266.947 61.7215C265.585 61.7215 264.39 62.0614 263.362 62.7412C262.334 63.421 261.536 64.408 260.968 65.7022C260.401 66.9964 260.117 68.5696 260.117 70.4219C260.117 72.3067 260.405 73.8946 260.982 75.1857C261.558 76.4767 262.357 77.4497 263.379 78.1046C264.401 78.7596 265.584 79.0871 266.928 79.0871C267.675 79.0871 268.369 78.9844 269.009 78.7789C269.648 78.5735 270.222 78.2757 270.73 77.8856C271.238 77.4955 271.661 77.0194 271.998 76.4572C272.335 75.8951 272.569 75.2573 272.7 74.5439H278.128C277.981 75.7596 277.62 76.9233 277.043 78.0349C276.467 79.1465 275.696 80.1407 274.73 81.0172C273.764 81.8938 272.619 82.5853 271.296 83.0918C269.973 83.5983 268.485 83.8516 266.833 83.8516ZM287.17 57.3086V83.5H281.898V57.3086H287.17ZM291.654 83.5V63.8477H296.925V83.5H291.654ZM294.288 61.2859C293.494 61.2859 292.814 61.0205 292.248 60.4898C291.681 59.959 291.398 59.3221 291.398 58.5791C291.398 57.8209 291.681 57.1796 292.248 56.655C292.814 56.1305 293.494 55.8682 294.288 55.8682C295.086 55.8682 295.768 56.1301 296.336 56.654C296.903 57.1779 297.187 57.8194 297.187 58.5786C297.187 59.3227 296.903 59.9599 296.336 60.4903C295.768 61.0207 295.086 61.2859 294.288 61.2859ZM310.298 83.8839C308.292 83.8839 306.563 83.4731 305.11 82.6515C303.657 81.8299 302.541 80.6632 301.762 79.1515C300.983 77.6398 300.593 75.8477 300.593 73.7751C300.593 71.7531 300.981 69.9793 301.755 68.4536C302.529 66.928 303.623 65.7379 305.039 64.8834C306.454 64.0288 308.119 63.6016 310.033 63.6016C311.317 63.6016 312.516 63.8061 313.631 64.215C314.746 64.624 315.724 65.2408 316.566 66.0653C317.408 66.8899 318.066 67.9259 318.539 69.1735C319.012 70.4211 319.249 71.8866 319.249 73.5701V75.0499H302.757V71.7325H316.68L314.216 72.6219C314.216 71.5987 314.06 70.7095 313.747 69.9543C313.435 69.1992 312.972 68.6134 312.359 68.1969C311.745 67.7804 310.983 67.5722 310.071 67.5722C309.16 67.5722 308.387 67.7831 307.752 68.205C307.117 68.6269 306.634 69.1992 306.302 69.922C305.971 70.6448 305.805 71.4666 305.805 72.3874V74.7229C305.805 75.8596 305.995 76.8146 306.376 77.5877C306.756 78.3609 307.292 78.9418 307.981 79.3304C308.671 79.719 309.472 79.9133 310.382 79.9133C310.997 79.9133 311.556 79.8257 312.06 79.6505C312.563 79.4753 312.995 79.2159 313.357 78.8723C313.719 78.5287 313.995 78.1052 314.184 77.6018L318.951 78.4835C318.634 79.5692 318.084 80.517 317.3 81.3272C316.517 82.1373 315.535 82.7659 314.355 83.2131C313.175 83.6603 311.823 83.8839 310.298 83.8839ZM328.127 72.1214V83.5H322.855V63.8477H327.833L327.917 68.7537H327.601C328.116 67.1145 328.899 65.846 329.949 64.9482C331 64.0505 332.355 63.6016 334.014 63.6016C335.376 63.6016 336.563 63.8978 337.575 64.4901C338.587 65.0825 339.373 65.9313 339.933 67.0365C340.492 68.1417 340.772 69.4631 340.772 71.0005V83.5H335.501V71.9192C335.501 70.6986 335.186 69.7413 334.556 69.0472C333.927 68.3531 333.056 68.0061 331.944 68.0061C331.203 68.0061 330.545 68.1684 329.969 68.4931C329.393 68.8179 328.942 69.2858 328.616 69.8969C328.29 70.508 328.127 71.2495 328.127 72.1214ZM355.033 63.8477V67.8647H343.373V63.8477H355.033ZM346.079 59.1719H351.351V77.7473C351.351 78.3731 351.49 78.8343 351.768 79.131C352.047 79.4278 352.504 79.5761 353.14 79.5761C353.345 79.5761 353.628 79.5511 353.99 79.5011C354.351 79.451 354.625 79.4026 354.814 79.3557L355.569 83.3091C354.981 83.4832 354.398 83.6044 353.821 83.6724C353.244 83.7405 352.69 83.7746 352.159 83.7746C350.188 83.7746 348.682 83.2963 347.641 82.3397C346.6 81.3831 346.079 80.0071 346.079 78.2118V59.1719Z" fill="#E6EDF3"/>
<path d="M154.109 117.5V100.039H160.086C161.445 100.039 162.564 100.287 163.443 100.783C164.322 101.279 164.975 101.945 165.4 102.781C165.826 103.617 166.039 104.555 166.039 105.594C166.039 106.633 165.826 107.574 165.4 108.418C164.975 109.262 164.324 109.934 163.449 110.434C162.574 110.934 161.457 111.184 160.098 111.184H155.867V109.227H159.992C160.914 109.227 161.656 109.068 162.219 108.752C162.781 108.436 163.189 108.002 163.443 107.451C163.697 106.9 163.824 106.281 163.824 105.594C163.824 104.906 163.697 104.291 163.443 103.748C163.189 103.205 162.779 102.777 162.213 102.465C161.646 102.152 160.898 101.996 159.969 101.996H156.336V117.5H154.109ZM169.18 117.5V104.398H171.219V106.414H171.359C171.602 105.75 172.033 105.217 172.654 104.814C173.275 104.412 173.977 104.211 174.758 104.211C174.914 104.211 175.1 104.215 175.314 104.223C175.529 104.23 175.699 104.238 175.824 104.246V106.367C175.762 106.352 175.605 106.328 175.355 106.297C175.105 106.266 174.84 106.25 174.559 106.25C173.934 106.25 173.373 106.381 172.877 106.643C172.381 106.904 171.992 107.264 171.711 107.721C171.43 108.178 171.289 108.703 171.289 109.297V117.5H169.18ZM183.148 117.781C181.961 117.781 180.92 117.5 180.025 116.938C179.131 116.375 178.434 115.586 177.934 114.57C177.434 113.555 177.184 112.375 177.184 111.031C177.184 109.664 177.434 108.471 177.934 107.451C178.434 106.432 179.131 105.641 180.025 105.078C180.92 104.516 181.961 104.234 183.148 104.234C184.344 104.234 185.391 104.516 186.289 105.078C187.188 105.641 187.887 106.432 188.387 107.451C188.887 108.471 189.137 109.664 189.137 111.031C189.137 112.375 188.887 113.555 188.387 114.57C187.887 115.586 187.188 116.375 186.289 116.938C185.391 117.5 184.344 117.781 183.148 117.781ZM183.148 115.895C184.031 115.895 184.758 115.668 185.328 115.215C185.898 114.762 186.32 114.166 186.594 113.428C186.867 112.689 187.004 111.891 187.004 111.031C187.004 110.164 186.867 109.357 186.594 108.611C186.32 107.865 185.898 107.264 185.328 106.807C184.758 106.35 184.031 106.121 183.148 106.121C182.273 106.121 181.555 106.35 180.992 106.807C180.43 107.264 180.012 107.863 179.738 108.605C179.465 109.348 179.328 110.156 179.328 111.031C179.328 111.891 179.465 112.689 179.738 113.428C180.012 114.166 180.43 114.762 180.992 115.215C181.555 115.668 182.273 115.895 183.148 115.895ZM198.301 104.398V106.203H190.59V104.398H198.301ZM193.168 117.5V102.652C193.168 101.895 193.346 101.262 193.701 100.754C194.057 100.246 194.52 99.8633 195.09 99.6055C195.66 99.3477 196.262 99.2188 196.895 99.2188C197.395 99.2188 197.809 99.2598 198.137 99.3418C198.465 99.4238 198.707 99.5 198.863 99.5703L198.277 101.375C198.168 101.336 198.025 101.293 197.85 101.246C197.674 101.199 197.438 101.176 197.141 101.176C196.492 101.176 196.02 101.342 195.723 101.674C195.426 102.006 195.277 102.488 195.277 103.121V117.5H193.168ZM205.895 117.781C204.629 117.781 203.537 117.5 202.619 116.938C201.701 116.375 200.994 115.59 200.498 114.582C200.002 113.574 199.754 112.398 199.754 111.055C199.754 109.711 199.996 108.527 200.48 107.504C200.965 106.48 201.65 105.68 202.537 105.102C203.424 104.523 204.461 104.234 205.648 104.234C206.344 104.234 207.029 104.35 207.705 104.58C208.381 104.811 208.994 105.182 209.545 105.693C210.096 106.205 210.535 106.879 210.863 107.715C211.191 108.551 211.355 109.574 211.355 110.785V111.664H201.184V109.883H210.219L209.234 110.539C209.234 109.68 209.1 108.916 208.83 108.248C208.561 107.58 208.16 107.057 207.629 106.678C207.098 106.299 206.438 106.109 205.648 106.109C204.859 106.109 204.184 106.303 203.621 106.689C203.059 107.076 202.629 107.58 202.332 108.201C202.035 108.822 201.887 109.488 201.887 110.199V111.383C201.887 112.352 202.055 113.174 202.391 113.85C202.727 114.525 203.197 115.037 203.803 115.385C204.408 115.732 205.109 115.906 205.906 115.906C206.422 115.906 206.891 115.832 207.312 115.684C207.734 115.535 208.098 115.311 208.402 115.01C208.707 114.709 208.941 114.336 209.105 113.891L211.145 114.453C210.941 115.109 210.598 115.688 210.113 116.188C209.629 116.688 209.029 117.078 208.314 117.359C207.6 117.641 206.793 117.781 205.895 117.781ZM218.832 117.781C217.934 117.781 217.135 117.65 216.436 117.389C215.736 117.127 215.16 116.738 214.707 116.223C214.254 115.707 213.949 115.074 213.793 114.324L215.797 113.844C215.984 114.562 216.338 115.09 216.857 115.426C217.377 115.762 218.027 115.93 218.809 115.93C219.723 115.93 220.451 115.734 220.994 115.344C221.537 114.953 221.809 114.488 221.809 113.949C221.809 113.496 221.65 113.119 221.334 112.818C221.018 112.518 220.535 112.293 219.887 112.145L217.707 111.629C216.52 111.348 215.637 110.912 215.059 110.322C214.48 109.732 214.191 108.977 214.191 108.055C214.191 107.305 214.402 106.643 214.824 106.068C215.246 105.494 215.822 105.045 216.553 104.721C217.283 104.396 218.113 104.234 219.043 104.234C219.941 104.234 220.705 104.369 221.334 104.639C221.963 104.908 222.475 105.279 222.869 105.752C223.264 106.225 223.559 106.77 223.754 107.387L221.844 107.879C221.664 107.41 221.365 106.984 220.947 106.602C220.529 106.219 219.898 106.027 219.055 106.027C218.273 106.027 217.623 106.207 217.104 106.566C216.584 106.926 216.324 107.379 216.324 107.926C216.324 108.41 216.5 108.799 216.852 109.092C217.203 109.385 217.762 109.621 218.527 109.801L220.508 110.27C221.695 110.551 222.574 110.986 223.145 111.576C223.715 112.166 224 112.91 224 113.809C224 114.574 223.783 115.256 223.35 115.854C222.916 116.451 222.311 116.922 221.533 117.266C220.756 117.609 219.855 117.781 218.832 117.781ZM231.5 117.781C230.602 117.781 229.803 117.65 229.104 117.389C228.404 117.127 227.828 116.738 227.375 116.223C226.922 115.707 226.617 115.074 226.461 114.324L228.465 113.844C228.652 114.562 229.006 115.09 229.525 115.426C230.045 115.762 230.695 115.93 231.477 115.93C232.391 115.93 233.119 115.734 233.662 115.344C234.205 114.953 234.477 114.488 234.477 113.949C234.477 113.496 234.318 113.119 234.002 112.818C233.686 112.518 233.203 112.293 232.555 112.145L230.375 111.629C229.188 111.348 228.305 110.912 227.727 110.322C227.148 109.732 226.859 108.977 226.859 108.055C226.859 107.305 227.07 106.643 227.492 106.068C227.914 105.494 228.49 105.045 229.221 104.721C229.951 104.396 230.781 104.234 231.711 104.234C232.609 104.234 233.373 104.369 234.002 104.639C234.631 104.908 235.143 105.279 235.537 105.752C235.932 106.225 236.227 106.77 236.422 107.387L234.512 107.879C234.332 107.41 234.033 106.984 233.615 106.602C233.197 106.219 232.566 106.027 231.723 106.027C230.941 106.027 230.291 106.207 229.771 106.566C229.252 106.926 228.992 107.379 228.992 107.926C228.992 108.41 229.168 108.799 229.52 109.092C229.871 109.385 230.43 109.621 231.195 109.801L233.176 110.27C234.363 110.551 235.242 110.986 235.812 111.576C236.383 112.166 236.668 112.91 236.668 113.809C236.668 114.574 236.451 115.256 236.018 115.854C235.584 116.451 234.979 116.922 234.201 117.266C233.424 117.609 232.523 117.781 231.5 117.781ZM239.715 117.5V104.398H241.824V117.5H239.715ZM240.781 102.254C240.383 102.254 240.039 102.117 239.75 101.844C239.461 101.57 239.316 101.242 239.316 100.859C239.316 100.469 239.461 100.139 239.75 99.8691C240.039 99.5996 240.383 99.4648 240.781 99.4648C241.188 99.4648 241.535 99.5996 241.824 99.8691C242.113 100.139 242.258 100.469 242.258 100.859C242.258 101.242 242.113 101.57 241.824 101.844C241.535 102.117 241.188 102.254 240.781 102.254ZM250.859 117.781C249.672 117.781 248.631 117.5 247.736 116.938C246.842 116.375 246.145 115.586 245.645 114.57C245.145 113.555 244.895 112.375 244.895 111.031C244.895 109.664 245.145 108.471 245.645 107.451C246.145 106.432 246.842 105.641 247.736 105.078C248.631 104.516 249.672 104.234 250.859 104.234C252.055 104.234 253.102 104.516 254 105.078C254.898 105.641 255.598 106.432 256.098 107.451C256.598 108.471 256.848 109.664 256.848 111.031C256.848 112.375 256.598 113.555 256.098 114.57C255.598 115.586 254.898 116.375 254 116.938C253.102 117.5 252.055 117.781 250.859 117.781ZM250.859 115.895C251.742 115.895 252.469 115.668 253.039 115.215C253.609 114.762 254.031 114.166 254.305 113.428C254.578 112.689 254.715 111.891 254.715 111.031C254.715 110.164 254.578 109.357 254.305 108.611C254.031 107.865 253.609 107.264 253.039 106.807C252.469 106.35 251.742 106.121 250.859 106.121C249.984 106.121 249.266 106.35 248.703 106.807C248.141 107.264 247.723 107.863 247.449 108.605C247.176 109.348 247.039 110.156 247.039 111.031C247.039 111.891 247.176 112.689 247.449 113.428C247.723 114.166 248.141 114.762 248.703 115.215C249.266 115.668 249.984 115.895 250.859 115.895ZM262.027 109.648V117.5H259.918V104.398H261.945L261.957 107.574H261.664C262.062 106.363 262.631 105.504 263.369 104.996C264.107 104.488 264.973 104.234 265.965 104.234C266.848 104.234 267.621 104.416 268.285 104.779C268.949 105.143 269.467 105.689 269.838 106.42C270.209 107.15 270.395 108.07 270.395 109.18V117.5H268.285V109.355C268.285 108.348 268.021 107.559 267.494 106.988C266.967 106.418 266.246 106.133 265.332 106.133C264.707 106.133 264.145 106.27 263.645 106.543C263.145 106.816 262.75 107.215 262.461 107.738C262.172 108.262 262.027 108.898 262.027 109.648ZM277.766 117.805C276.938 117.805 276.186 117.648 275.51 117.336C274.834 117.023 274.297 116.566 273.898 115.965C273.5 115.363 273.301 114.633 273.301 113.773C273.301 113.023 273.449 112.414 273.746 111.945C274.043 111.477 274.439 111.107 274.936 110.838C275.432 110.568 275.98 110.367 276.582 110.234C277.184 110.102 277.789 109.996 278.398 109.918C279.18 109.816 279.816 109.738 280.309 109.684C280.801 109.629 281.166 109.535 281.404 109.402C281.643 109.27 281.762 109.043 281.762 108.723V108.652C281.762 108.105 281.66 107.643 281.457 107.264C281.254 106.885 280.949 106.594 280.543 106.391C280.137 106.188 279.629 106.086 279.02 106.086C278.395 106.086 277.859 106.184 277.414 106.379C276.969 106.574 276.607 106.818 276.33 107.111C276.053 107.404 275.844 107.703 275.703 108.008L273.676 107.34C274.012 106.543 274.465 105.92 275.035 105.471C275.605 105.021 276.234 104.703 276.922 104.516C277.609 104.328 278.289 104.234 278.961 104.234C279.398 104.234 279.896 104.287 280.455 104.393C281.014 104.498 281.553 104.707 282.072 105.02C282.592 105.332 283.021 105.795 283.361 106.408C283.701 107.021 283.871 107.84 283.871 108.863V117.5H281.797V115.719H281.656C281.508 116.023 281.27 116.338 280.941 116.662C280.613 116.986 280.188 117.258 279.664 117.477C279.141 117.695 278.508 117.805 277.766 117.805ZM278.129 115.941C278.91 115.941 279.57 115.789 280.109 115.484C280.648 115.18 281.059 114.783 281.34 114.295C281.621 113.807 281.762 113.297 281.762 112.766V110.949C281.676 111.051 281.488 111.143 281.199 111.225C280.91 111.307 280.58 111.379 280.209 111.441C279.838 111.504 279.479 111.557 279.131 111.6C278.783 111.643 278.508 111.676 278.305 111.699C277.797 111.762 277.322 111.869 276.881 112.021C276.439 112.174 276.086 112.396 275.82 112.689C275.555 112.982 275.422 113.379 275.422 113.879C275.422 114.332 275.539 114.711 275.773 115.016C276.008 115.32 276.328 115.551 276.734 115.707C277.141 115.863 277.605 115.941 278.129 115.941ZM289.684 100.039V117.5H287.574V100.039H289.684ZM303.922 117.5L298.918 104.398H301.227L304.016 112.168C304.312 112.973 304.564 113.775 304.771 114.576C304.979 115.377 305.195 116.152 305.422 116.902H304.648C304.875 116.152 305.092 115.377 305.299 114.576C305.506 113.775 305.754 112.973 306.043 112.168L308.832 104.398H311.141L306.137 117.5H303.922ZM319.426 100.039V117.5H317.234V102.102H317.117L312.898 105.23V102.84L316.695 100.039H319.426ZM324.992 117.652C324.555 117.652 324.182 117.498 323.873 117.189C323.564 116.881 323.41 116.508 323.41 116.07C323.41 115.633 323.564 115.26 323.873 114.951C324.182 114.643 324.555 114.488 324.992 114.488C325.43 114.488 325.803 114.643 326.111 114.951C326.42 115.26 326.574 115.633 326.574 116.07C326.574 116.508 326.42 116.881 326.111 117.189C325.803 117.498 325.43 117.652 324.992 117.652ZM330.254 117.5V115.895L336.055 109.602C336.703 108.898 337.242 108.281 337.672 107.75C338.102 107.219 338.426 106.713 338.645 106.232C338.863 105.752 338.973 105.242 338.973 104.703C338.973 104.094 338.828 103.566 338.539 103.121C338.25 102.676 337.859 102.334 337.367 102.096C336.875 101.857 336.316 101.738 335.691 101.738C335.027 101.738 334.451 101.873 333.963 102.143C333.475 102.412 333.098 102.791 332.832 103.279C332.566 103.768 332.434 104.34 332.434 104.996H330.301C330.301 103.965 330.539 103.059 331.016 102.277C331.492 101.496 332.141 100.889 332.961 100.455C333.781 100.021 334.711 99.8047 335.75 99.8047C336.789 99.8047 337.709 100.021 338.51 100.455C339.311 100.889 339.939 101.473 340.396 102.207C340.854 102.941 341.082 103.766 341.082 104.68C341.082 105.312 340.969 105.928 340.742 106.525C340.516 107.123 340.117 107.801 339.547 108.559C338.977 109.316 338.176 110.242 337.145 111.336L333.324 115.402V115.543H341.375V117.5H330.254ZM346.543 117.652C346.105 117.652 345.732 117.498 345.424 117.189C345.115 116.881 344.961 116.508 344.961 116.07C344.961 115.633 345.115 115.26 345.424 114.951C345.732 114.643 346.105 114.488 346.543 114.488C346.98 114.488 347.354 114.643 347.662 114.951C347.971 115.26 348.125 115.633 348.125 116.07C348.125 116.508 347.971 116.881 347.662 117.189C347.354 117.498 346.98 117.652 346.543 117.652ZM351.406 113.949V112.133L359.047 100.039H360.395V102.828H359.492L353.785 111.852V111.992H364.121V113.949H351.406ZM359.621 117.5V113.41L359.633 112.555V100.039H361.754V117.5H359.621Z" fill="#8B949E"/>
<rect x="32" y="208" width="446" height="96" rx="12" fill="#1F6FEB"/>
<path d="M69 256L72.3333 252.667M72.3333 252.667L84 241L95.6667 252.667M72.3333 252.667V269.333C72.3333 270.254 73.0795 271 74 271H79M95.6667 252.667L99 256M95.6667 252.667V269.333C95.6667 270.254 94.9205 271 94 271H89M79 271C79.9205 271 80.6667 270.254 80.6667 269.333V262.667C80.6667 261.746 81.4129 261 82.3333 261H85.6667C86.5871 261 87.3333 261.746 87.3333 262.667V269.333C87.3333 270.254 88.0795 271 89 271M79 271H89" stroke="white" stroke-width="1.66667" stroke-linecap="round" stroke-linejoin="round"/>
<path d="M130.576 268V244.719H134.147V254.562H145.674V244.719H149.244V268H145.674V257.631H134.147V268H130.576ZM161.485 268.364C159.845 268.364 158.415 267.988 157.193 267.237C155.971 266.486 155.023 265.434 154.348 264.081C153.673 262.728 153.335 261.155 153.335 259.364C153.335 257.546 153.673 255.959 154.348 254.602C155.023 253.244 155.971 252.19 157.193 251.439C158.415 250.688 159.845 250.312 161.485 250.312C163.133 250.312 164.569 250.688 165.793 251.439C167.018 252.19 167.967 253.244 168.642 254.602C169.317 255.959 169.655 257.546 169.655 259.364C169.655 261.155 169.317 262.728 168.642 264.081C167.967 265.434 167.018 266.486 165.793 267.237C164.569 267.988 163.133 268.364 161.485 268.364ZM161.485 265.457C162.548 265.457 163.426 265.179 164.12 264.621C164.814 264.064 165.329 263.323 165.665 262.399C166.002 261.474 166.17 260.461 166.17 259.358C166.17 258.245 166.002 257.223 165.665 256.293C165.329 255.363 164.814 254.618 164.12 254.059C163.426 253.499 162.548 253.219 161.485 253.219C160.429 253.219 159.558 253.499 158.872 254.059C158.185 254.618 157.674 255.361 157.337 256.287C157.001 257.213 156.833 258.236 156.833 259.358C156.833 260.461 157.001 261.474 157.337 262.399C157.674 263.323 158.185 264.064 158.872 264.621C159.558 265.179 160.429 265.457 161.485 265.457ZM173.468 268V250.531H176.742L176.828 254.584H176.57C176.817 253.593 177.2 252.778 177.721 252.139C178.241 251.501 178.85 251.024 179.549 250.709C180.247 250.393 180.976 250.236 181.735 250.236C183.001 250.236 184.024 250.629 184.806 251.416C185.588 252.203 186.116 253.297 186.39 254.699H185.958C186.184 253.742 186.579 252.931 187.144 252.266C187.709 251.602 188.388 251.097 189.18 250.753C189.972 250.408 190.826 250.236 191.742 250.236C192.771 250.236 193.703 250.459 194.538 250.906C195.374 251.353 196.037 252.018 196.528 252.903C197.019 253.787 197.264 254.893 197.264 256.219V268H193.828V256.57C193.828 255.399 193.502 254.553 192.852 254.031C192.202 253.509 191.434 253.248 190.549 253.248C189.832 253.248 189.212 253.4 188.689 253.705C188.166 254.01 187.764 254.429 187.482 254.964C187.2 255.498 187.059 256.115 187.059 256.813V268H183.673V256.339C183.673 255.408 183.373 254.66 182.774 254.095C182.175 253.53 181.412 253.248 180.484 253.248C179.85 253.248 179.26 253.396 178.712 253.692C178.165 253.988 177.727 254.425 177.398 255.002C177.069 255.58 176.904 256.294 176.904 257.146V268H173.468ZM209.419 268.364C207.699 268.364 206.216 267.992 204.97 267.249C203.724 266.505 202.764 265.462 202.093 264.118C201.421 262.774 201.085 261.198 201.085 259.389C201.085 257.596 201.415 256.018 202.075 254.656C202.735 253.295 203.668 252.23 204.876 251.463C206.084 250.696 207.499 250.312 209.122 250.312C210.12 250.312 211.085 250.476 212.016 250.802C212.947 251.128 213.782 251.64 214.521 252.339C215.26 253.039 215.845 253.944 216.277 255.057C216.709 256.17 216.925 257.514 216.925 259.089V260.309H202.997V257.743H215.153L213.548 258.589C213.548 257.522 213.382 256.58 213.05 255.762C212.718 254.945 212.225 254.306 211.571 253.846C210.917 253.386 210.104 253.156 209.133 253.156C208.161 253.156 207.332 253.39 206.643 253.859C205.955 254.327 205.43 254.945 205.068 255.711C204.706 256.477 204.525 257.313 204.525 258.218V259.962C204.525 261.16 204.731 262.174 205.142 263.003C205.553 263.833 206.13 264.46 206.873 264.884C207.616 265.309 208.476 265.521 209.454 265.521C210.095 265.521 210.677 265.429 211.201 265.245C211.725 265.061 212.176 264.784 212.554 264.415C212.933 264.046 213.223 263.589 213.424 263.044L216.649 263.805C216.375 264.71 215.906 265.505 215.243 266.19C214.581 266.874 213.757 267.408 212.772 267.79C211.787 268.173 210.669 268.364 209.419 268.364Z" fill="white"/>
<path d="M72.3333 360H95.6667M72.3333 360C70.4924 360 69 358.508 69 356.667V350C69 348.159 70.4924 346.667 72.3333 346.667H95.6667C97.5076 346.667 99 348.159 99 350V356.667C99 358.508 97.5076 360 95.6667 360M72.3333 360C70.4924 360 69 361.492 69 363.333V370C69 371.841 70.4924 373.333 72.3333 373.333H95.6667C97.5076 373.333 99 371.841 99 370V363.333C99 361.492 97.5076 360 95.6667 360M92.3333 353.333H92.35M92.3333 366.667H92.35" stroke="#8B949E" stroke-width="1.66667" stroke-linecap="round" stroke-linejoin="round"/>
<path d="M138.266 372.406C136.589 372.406 135.133 372.135 133.898 371.594C132.664 371.052 131.698 370.294 131 369.32C130.302 368.346 129.906 367.208 129.812 365.906H132.859C132.943 366.781 133.24 367.503 133.75 368.07C134.26 368.638 134.914 369.06 135.711 369.336C136.508 369.612 137.359 369.75 138.266 369.75C139.318 369.75 140.263 369.578 141.102 369.234C141.94 368.891 142.604 368.406 143.094 367.781C143.583 367.156 143.828 366.432 143.828 365.609C143.828 364.859 143.617 364.25 143.195 363.781C142.773 363.312 142.214 362.927 141.516 362.625C140.818 362.323 140.052 362.057 139.219 361.828L136.406 361.031C134.531 360.5 133.073 359.74 132.031 358.75C130.99 357.76 130.469 356.495 130.469 354.953C130.469 353.641 130.823 352.492 131.531 351.508C132.24 350.523 133.198 349.76 134.406 349.219C135.615 348.677 136.969 348.406 138.469 348.406C140 348.406 141.354 348.677 142.531 349.219C143.708 349.76 144.638 350.497 145.32 351.43C146.003 352.362 146.365 353.417 146.406 354.594H143.5C143.365 353.458 142.823 352.581 141.875 351.961C140.927 351.341 139.76 351.031 138.375 351.031C137.375 351.031 136.497 351.195 135.742 351.523C134.987 351.852 134.401 352.299 133.984 352.867C133.568 353.435 133.359 354.083 133.359 354.812C133.359 355.625 133.612 356.279 134.117 356.773C134.622 357.268 135.221 357.654 135.914 357.93C136.607 358.206 137.234 358.422 137.797 358.578L140.125 359.219C140.75 359.385 141.44 359.615 142.195 359.906C142.951 360.198 143.672 360.586 144.359 361.07C145.047 361.555 145.612 362.169 146.055 362.914C146.497 363.659 146.719 364.573 146.719 365.656C146.719 366.927 146.388 368.073 145.727 369.094C145.065 370.115 144.104 370.922 142.844 371.516C141.583 372.109 140.057 372.406 138.266 372.406ZM158.344 372.375C156.656 372.375 155.201 372 153.977 371.25C152.753 370.5 151.81 369.453 151.148 368.109C150.487 366.766 150.156 365.198 150.156 363.406C150.156 361.615 150.479 360.036 151.125 358.672C151.771 357.307 152.685 356.24 153.867 355.469C155.049 354.698 156.432 354.312 158.016 354.312C158.943 354.312 159.857 354.466 160.758 354.773C161.659 355.081 162.477 355.576 163.211 356.258C163.945 356.94 164.531 357.839 164.969 358.953C165.406 360.068 165.625 361.432 165.625 363.047V364.219H152.062V361.844H164.109L162.797 362.719C162.797 361.573 162.617 360.555 162.258 359.664C161.898 358.773 161.365 358.076 160.656 357.57C159.948 357.065 159.068 356.812 158.016 356.812C156.964 356.812 156.062 357.07 155.312 357.586C154.562 358.102 153.99 358.773 153.594 359.602C153.198 360.43 153 361.318 153 362.266V363.844C153 365.135 153.224 366.232 153.672 367.133C154.12 368.034 154.747 368.716 155.555 369.18C156.362 369.643 157.297 369.875 158.359 369.875C159.047 369.875 159.672 369.776 160.234 369.578C160.797 369.38 161.281 369.081 161.688 368.68C162.094 368.279 162.406 367.781 162.625 367.188L165.344 367.938C165.073 368.812 164.615 369.583 163.969 370.25C163.323 370.917 162.523 371.438 161.57 371.812C160.617 372.188 159.542 372.375 158.344 372.375ZM169.656 372V354.531H172.375V357.219H172.562C172.885 356.333 173.461 355.622 174.289 355.086C175.117 354.549 176.052 354.281 177.094 354.281C177.302 354.281 177.549 354.286 177.836 354.297C178.122 354.307 178.349 354.318 178.516 354.328V357.156C178.432 357.135 178.224 357.104 177.891 357.062C177.557 357.021 177.203 357 176.828 357C175.995 357 175.247 357.174 174.586 357.523C173.924 357.872 173.406 358.352 173.031 358.961C172.656 359.57 172.469 360.271 172.469 361.062V372H169.656ZM187.25 372L180.578 354.531H183.656L187.375 364.891C187.771 365.964 188.107 367.034 188.383 368.102C188.659 369.169 188.948 370.203 189.25 371.203H188.219C188.521 370.203 188.81 369.169 189.086 368.102C189.362 367.034 189.693 365.964 190.078 364.891L193.797 354.531H196.875L190.203 372H187.25ZM206.906 372.375C205.219 372.375 203.763 372 202.539 371.25C201.315 370.5 200.372 369.453 199.711 368.109C199.049 366.766 198.719 365.198 198.719 363.406C198.719 361.615 199.042 360.036 199.688 358.672C200.333 357.307 201.247 356.24 202.43 355.469C203.612 354.698 204.995 354.312 206.578 354.312C207.505 354.312 208.419 354.466 209.32 354.773C210.221 355.081 211.039 355.576 211.773 356.258C212.508 356.94 213.094 357.839 213.531 358.953C213.969 360.068 214.188 361.432 214.188 363.047V364.219H200.625V361.844H212.672L211.359 362.719C211.359 361.573 211.18 360.555 210.82 359.664C210.461 358.773 209.927 358.076 209.219 357.57C208.51 357.065 207.63 356.812 206.578 356.812C205.526 356.812 204.625 357.07 203.875 357.586C203.125 358.102 202.552 358.773 202.156 359.602C201.76 360.43 201.562 361.318 201.562 362.266V363.844C201.562 365.135 201.786 366.232 202.234 367.133C202.682 368.034 203.31 368.716 204.117 369.18C204.924 369.643 205.859 369.875 206.922 369.875C207.609 369.875 208.234 369.776 208.797 369.578C209.359 369.38 209.844 369.081 210.25 368.68C210.656 368.279 210.969 367.781 211.188 367.188L213.906 367.938C213.635 368.812 213.177 369.583 212.531 370.25C211.885 370.917 211.086 371.438 210.133 371.812C209.18 372.188 208.104 372.375 206.906 372.375ZM218.219 372V354.531H220.938V357.219H221.125C221.448 356.333 222.023 355.622 222.852 355.086C223.68 354.549 224.615 354.281 225.656 354.281C225.865 354.281 226.112 354.286 226.398 354.297C226.685 354.307 226.911 354.318 227.078 354.328V357.156C226.995 357.135 226.786 357.104 226.453 357.062C226.12 357.021 225.766 357 225.391 357C224.557 357 223.81 357.174 223.148 357.523C222.487 357.872 221.969 358.352 221.594 358.961C221.219 359.57 221.031 360.271 221.031 361.062V372H218.219ZM236.203 372.375C235.005 372.375 233.94 372.201 233.008 371.852C232.076 371.503 231.307 370.984 230.703 370.297C230.099 369.609 229.693 368.766 229.484 367.766L232.156 367.125C232.406 368.083 232.878 368.786 233.57 369.234C234.263 369.682 235.13 369.906 236.172 369.906C237.391 369.906 238.362 369.646 239.086 369.125C239.81 368.604 240.172 367.984 240.172 367.266C240.172 366.661 239.961 366.159 239.539 365.758C239.117 365.357 238.474 365.057 237.609 364.859L234.703 364.172C233.12 363.797 231.943 363.216 231.172 362.43C230.401 361.643 230.016 360.635 230.016 359.406C230.016 358.406 230.297 357.523 230.859 356.758C231.422 355.992 232.19 355.393 233.164 354.961C234.138 354.529 235.245 354.312 236.484 354.312C237.682 354.312 238.701 354.492 239.539 354.852C240.378 355.211 241.06 355.706 241.586 356.336C242.112 356.966 242.505 357.693 242.766 358.516L240.219 359.172C239.979 358.547 239.581 357.979 239.023 357.469C238.466 356.958 237.625 356.703 236.5 356.703C235.458 356.703 234.591 356.943 233.898 357.422C233.206 357.901 232.859 358.505 232.859 359.234C232.859 359.88 233.094 360.398 233.562 360.789C234.031 361.18 234.776 361.495 235.797 361.734L238.438 362.359C240.021 362.734 241.193 363.315 241.953 364.102C242.714 364.888 243.094 365.88 243.094 367.078C243.094 368.099 242.805 369.008 242.227 369.805C241.648 370.602 240.841 371.229 239.805 371.688C238.768 372.146 237.568 372.375 236.203 372.375Z" fill="#8B949E"/>
<path d="M79 475.667V465.667C79 463.826 77.5076 462.333 75.6667 462.333H72.3333C70.4924 462.333 69 463.826 69 465.667V475.667C69 477.508 70.4924 479 72.3333 479H75.6667C77.5076 479 79 477.508 79 475.667V475.667M79 475.667V459C79 457.159 80.4924 455.667 82.3333 455.667H85.6667C87.5076 455.667 89 457.159 89 459V475.667M79 475.667C79 477.508 80.4924 479 82.3333 479H85.6667C87.5076 479 89 477.508 89 475.667M89 475.667V452.333C89 450.492 90.4924 449 92.3333 449H95.6667C97.5076 449 99 450.492 99 452.333V475.667C99 477.508 97.5076 479 95.6667 479H92.3333C90.4924 479 89 477.508 89 475.667H79" stroke="#8B949E" stroke-width="1.66667" stroke-linecap="round" stroke-linejoin="round"/>
<path d="M138.266 476.406C136.589 476.406 135.133 476.135 133.898 475.594C132.664 475.052 131.698 474.294 131 473.32C130.302 472.346 129.906 471.208 129.812 469.906H132.859C132.943 470.781 133.24 471.503 133.75 472.07C134.26 472.638 134.914 473.06 135.711 473.336C136.508 473.612 137.359 473.75 138.266 473.75C139.318 473.75 140.263 473.578 141.102 473.234C141.94 472.891 142.604 472.406 143.094 471.781C143.583 471.156 143.828 470.432 143.828 469.609C143.828 468.859 143.617 468.25 143.195 467.781C142.773 467.312 142.214 466.927 141.516 466.625C140.818 466.323 140.052 466.057 139.219 465.828L136.406 465.031C134.531 464.5 133.073 463.74 132.031 462.75C130.99 461.76 130.469 460.495 130.469 458.953C130.469 457.641 130.823 456.492 131.531 455.508C132.24 454.523 133.198 453.76 134.406 453.219C135.615 452.677 136.969 452.406 138.469 452.406C140 452.406 141.354 452.677 142.531 453.219C143.708 453.76 144.638 454.497 145.32 455.43C146.003 456.362 146.365 457.417 146.406 458.594H143.5C143.365 457.458 142.823 456.581 141.875 455.961C140.927 455.341 139.76 455.031 138.375 455.031C137.375 455.031 136.497 455.195 135.742 455.523C134.987 455.852 134.401 456.299 133.984 456.867C133.568 457.435 133.359 458.083 133.359 458.812C133.359 459.625 133.612 460.279 134.117 460.773C134.622 461.268 135.221 461.654 135.914 461.93C136.607 462.206 137.234 462.422 137.797 462.578L140.125 463.219C140.75 463.385 141.44 463.615 142.195 463.906C142.951 464.198 143.672 464.586 144.359 465.07C145.047 465.555 145.612 466.169 146.055 466.914C146.497 467.659 146.719 468.573 146.719 469.656C146.719 470.927 146.388 472.073 145.727 473.094C145.065 474.115 144.104 474.922 142.844 475.516C141.583 476.109 140.057 476.406 138.266 476.406ZM157.875 458.531V460.938H148.844V458.531H157.875ZM151.469 454.375H154.281V471.469C154.281 472.25 154.44 472.82 154.758 473.18C155.076 473.539 155.604 473.719 156.344 473.719C156.521 473.719 156.747 473.698 157.023 473.656C157.299 473.615 157.552 473.573 157.781 473.531L158.359 475.906C158.068 476.01 157.737 476.089 157.367 476.141C156.997 476.193 156.63 476.219 156.266 476.219C154.755 476.219 153.578 475.82 152.734 475.023C151.891 474.227 151.469 473.115 151.469 471.688V454.375ZM166.516 476.406C165.411 476.406 164.409 476.198 163.508 475.781C162.607 475.365 161.891 474.755 161.359 473.953C160.828 473.151 160.562 472.177 160.562 471.031C160.562 470.031 160.76 469.219 161.156 468.594C161.552 467.969 162.081 467.477 162.742 467.117C163.404 466.758 164.135 466.49 164.938 466.312C165.74 466.135 166.547 465.995 167.359 465.891C168.401 465.755 169.25 465.651 169.906 465.578C170.562 465.505 171.049 465.38 171.367 465.203C171.685 465.026 171.844 464.724 171.844 464.297V464.203C171.844 463.474 171.708 462.857 171.438 462.352C171.167 461.846 170.76 461.458 170.219 461.188C169.677 460.917 169 460.781 168.188 460.781C167.354 460.781 166.641 460.911 166.047 461.172C165.453 461.432 164.971 461.758 164.602 462.148C164.232 462.539 163.953 462.938 163.766 463.344L161.062 462.453C161.51 461.391 162.115 460.56 162.875 459.961C163.635 459.362 164.474 458.938 165.391 458.688C166.307 458.438 167.214 458.312 168.109 458.312C168.693 458.312 169.357 458.383 170.102 458.523C170.846 458.664 171.565 458.943 172.258 459.359C172.951 459.776 173.523 460.393 173.977 461.211C174.43 462.029 174.656 463.12 174.656 464.484V476H171.891V473.625H171.703C171.505 474.031 171.188 474.451 170.75 474.883C170.312 475.315 169.745 475.677 169.047 475.969C168.349 476.26 167.505 476.406 166.516 476.406ZM167 473.922C168.042 473.922 168.922 473.719 169.641 473.312C170.359 472.906 170.906 472.378 171.281 471.727C171.656 471.076 171.844 470.396 171.844 469.688V467.266C171.729 467.401 171.479 467.523 171.094 467.633C170.708 467.742 170.268 467.839 169.773 467.922C169.279 468.005 168.799 468.076 168.336 468.133C167.872 468.19 167.505 468.234 167.234 468.266C166.557 468.349 165.924 468.492 165.336 468.695C164.747 468.898 164.276 469.195 163.922 469.586C163.568 469.977 163.391 470.505 163.391 471.172C163.391 471.776 163.547 472.281 163.859 472.688C164.172 473.094 164.599 473.401 165.141 473.609C165.682 473.818 166.302 473.922 167 473.922ZM186.469 458.531V460.938H177.438V458.531H186.469ZM180.062 454.375H182.875V471.469C182.875 472.25 183.034 472.82 183.352 473.18C183.669 473.539 184.198 473.719 184.938 473.719C185.115 473.719 185.341 473.698 185.617 473.656C185.893 473.615 186.146 473.573 186.375 473.531L186.953 475.906C186.661 476.01 186.331 476.089 185.961 476.141C185.591 476.193 185.224 476.219 184.859 476.219C183.349 476.219 182.172 475.82 181.328 475.023C180.484 474.227 180.062 473.115 180.062 471.688V454.375ZM190.062 476V458.531H192.875V476H190.062ZM191.484 455.672C190.953 455.672 190.495 455.49 190.109 455.125C189.724 454.76 189.531 454.323 189.531 453.812C189.531 453.292 189.724 452.852 190.109 452.492C190.495 452.133 190.953 451.953 191.484 451.953C192.026 451.953 192.49 452.133 192.875 452.492C193.26 452.852 193.453 453.292 193.453 453.812C193.453 454.323 193.26 454.76 192.875 455.125C192.49 455.49 192.026 455.672 191.484 455.672ZM203.75 476.375C202.552 476.375 201.487 476.201 200.555 475.852C199.622 475.503 198.854 474.984 198.25 474.297C197.646 473.609 197.24 472.766 197.031 471.766L199.703 471.125C199.953 472.083 200.424 472.786 201.117 473.234C201.81 473.682 202.677 473.906 203.719 473.906C204.938 473.906 205.909 473.646 206.633 473.125C207.357 472.604 207.719 471.984 207.719 471.266C207.719 470.661 207.508 470.159 207.086 469.758C206.664 469.357 206.021 469.057 205.156 468.859L202.25 468.172C200.667 467.797 199.49 467.216 198.719 466.43C197.948 465.643 197.562 464.635 197.562 463.406C197.562 462.406 197.844 461.523 198.406 460.758C198.969 459.992 199.737 459.393 200.711 458.961C201.685 458.529 202.792 458.312 204.031 458.312C205.229 458.312 206.247 458.492 207.086 458.852C207.924 459.211 208.607 459.706 209.133 460.336C209.659 460.966 210.052 461.693 210.312 462.516L207.766 463.172C207.526 462.547 207.128 461.979 206.57 461.469C206.013 460.958 205.172 460.703 204.047 460.703C203.005 460.703 202.138 460.943 201.445 461.422C200.753 461.901 200.406 462.505 200.406 463.234C200.406 463.88 200.641 464.398 201.109 464.789C201.578 465.18 202.323 465.495 203.344 465.734L205.984 466.359C207.568 466.734 208.74 467.315 209.5 468.102C210.26 468.888 210.641 469.88 210.641 471.078C210.641 472.099 210.352 473.008 209.773 473.805C209.195 474.602 208.388 475.229 207.352 475.688C206.315 476.146 205.115 476.375 203.75 476.375ZM221.578 458.531V460.938H212.547V458.531H221.578ZM215.172 454.375H217.984V471.469C217.984 472.25 218.143 472.82 218.461 473.18C218.779 473.539 219.307 473.719 220.047 473.719C220.224 473.719 220.451 473.698 220.727 473.656C221.003 473.615 221.255 473.573 221.484 473.531L222.062 475.906C221.771 476.01 221.44 476.089 221.07 476.141C220.701 476.193 220.333 476.219 219.969 476.219C218.458 476.219 217.281 475.82 216.438 475.023C215.594 474.227 215.172 473.115 215.172 471.688V454.375ZM225.172 476V458.531H227.984V476H225.172ZM226.594 455.672C226.062 455.672 225.604 455.49 225.219 455.125C224.833 454.76 224.641 454.323 224.641 453.812C224.641 453.292 224.833 452.852 225.219 452.492C225.604 452.133 226.062 451.953 226.594 451.953C227.135 451.953 227.599 452.133 227.984 452.492C228.37 452.852 228.562 453.292 228.562 453.812C228.562 454.323 228.37 454.76 227.984 455.125C227.599 455.49 227.135 455.672 226.594 455.672ZM240.031 476.375C238.448 476.375 237.06 476 235.867 475.25C234.674 474.5 233.745 473.448 233.078 472.094C232.411 470.74 232.078 469.167 232.078 467.375C232.078 465.552 232.411 463.961 233.078 462.602C233.745 461.242 234.674 460.188 235.867 459.438C237.06 458.688 238.448 458.312 240.031 458.312C240.875 458.312 241.672 458.422 242.422 458.641C243.172 458.859 243.857 459.174 244.477 459.586C245.096 459.997 245.63 460.503 246.078 461.102C246.526 461.701 246.87 462.38 247.109 463.141L244.406 463.906C244.281 463.458 244.089 463.047 243.828 462.672C243.568 462.297 243.253 461.971 242.883 461.695C242.513 461.419 242.089 461.206 241.609 461.055C241.13 460.904 240.604 460.828 240.031 460.828C238.865 460.828 237.906 461.133 237.156 461.742C236.406 462.352 235.849 463.151 235.484 464.141C235.12 465.13 234.938 466.208 234.938 467.375C234.938 468.521 235.12 469.586 235.484 470.57C235.849 471.555 236.406 472.349 237.156 472.953C237.906 473.557 238.865 473.859 240.031 473.859C240.615 473.859 241.151 473.781 241.641 473.625C242.13 473.469 242.565 473.247 242.945 472.961C243.326 472.674 243.646 472.333 243.906 471.938C244.167 471.542 244.359 471.109 244.484 470.641L247.172 471.406C246.943 472.188 246.602 472.883 246.148 473.492C245.695 474.102 245.156 474.622 244.531 475.055C243.906 475.487 243.214 475.815 242.453 476.039C241.693 476.263 240.885 476.375 240.031 476.375ZM257.141 476.375C255.943 476.375 254.878 476.201 253.945 475.852C253.013 475.503 252.245 474.984 251.641 474.297C251.036 473.609 250.63 472.766 250.422 471.766L253.094 471.125C253.344 472.083 253.815 472.786 254.508 473.234C255.201 473.682 256.068 473.906 257.109 473.906C258.328 473.906 259.299 473.646 260.023 473.125C260.747 472.604 261.109 471.984 261.109 471.266C261.109 470.661 260.898 470.159 260.477 469.758C260.055 469.357 259.411 469.057 258.547 468.859L255.641 468.172C254.057 467.797 252.88 467.216 252.109 466.43C251.339 465.643 250.953 464.635 250.953 463.406C250.953 462.406 251.234 461.523 251.797 460.758C252.359 459.992 253.128 459.393 254.102 458.961C255.076 458.529 256.182 458.312 257.422 458.312C258.62 458.312 259.638 458.492 260.477 458.852C261.315 459.211 261.997 459.706 262.523 460.336C263.049 460.966 263.443 461.693 263.703 462.516L261.156 463.172C260.917 462.547 260.518 461.979 259.961 461.469C259.404 460.958 258.562 460.703 257.438 460.703C256.396 460.703 255.529 460.943 254.836 461.422C254.143 461.901 253.797 462.505 253.797 463.234C253.797 463.88 254.031 464.398 254.5 464.789C254.969 465.18 255.714 465.495 256.734 465.734L259.375 466.359C260.958 466.734 262.13 467.315 262.891 468.102C263.651 468.888 264.031 469.88 264.031 471.078C264.031 472.099 263.742 473.008 263.164 473.805C262.586 474.602 261.779 475.229 260.742 475.688C259.706 476.146 258.505 476.375 257.141 476.375Z" fill="#8B949E"/>
<path d="M81.2083 555.195C81.9183 552.268 86.0817 552.268 86.7917 555.195C87.0077 556.087 87.6367 556.822 88.4844 557.173C89.3321 557.524 90.2966 557.449 91.08 556.972C93.6517 555.405 96.5967 558.348 95.03 560.922C94.553 561.705 94.4784 562.668 94.8292 563.516C95.18 564.363 95.914 564.992 96.805 565.208C99.7317 565.918 99.7317 570.082 96.805 570.792C95.9132 571.008 95.1783 571.637 94.8271 572.484C94.4759 573.332 94.5507 574.297 95.0283 575.08C96.595 577.652 93.6517 580.597 91.0783 579.03C90.2952 578.553 89.3315 578.478 88.4844 578.829C87.6372 579.18 87.0083 579.914 86.7917 580.805C86.0817 583.732 81.9183 583.732 81.2083 580.805C80.9923 579.913 80.3633 579.178 79.5156 578.827C78.6679 578.476 77.7034 578.551 76.92 579.028C74.3483 580.595 71.4033 577.652 72.97 575.078C73.447 574.295 73.5216 573.332 73.1708 572.484C72.82 571.637 72.086 571.008 71.195 570.792C68.2683 570.082 68.2683 565.918 71.195 565.208C72.0868 564.992 72.8217 564.363 73.1729 563.516C73.5241 562.668 73.4493 561.703 72.9717 560.92C71.405 558.348 74.3483 555.403 76.9217 556.97C78.5817 557.983 80.7483 557.087 81.2083 555.195V555.195" stroke="#8B949E" stroke-width="1.66667" stroke-linecap="round" stroke-linejoin="round"/>
<path d="M89 568C89 570.76 86.7596 573 84 573C81.2404 573 79 570.76 79 568C79 565.24 81.2404 563 84 563C86.7596 563 89 565.24 89 568V568" stroke="#8B949E" stroke-width="1.66667" stroke-linecap="round" stroke-linejoin="round"/>
<path d="M138.266 580.406C136.589 580.406 135.133 580.135 133.898 579.594C132.664 579.052 131.698 578.294 131 577.32C130.302 576.346 129.906 575.208 129.812 573.906H132.859C132.943 574.781 133.24 575.503 133.75 576.07C134.26 576.638 134.914 577.06 135.711 577.336C136.508 577.612 137.359 577.75 138.266 577.75C139.318 577.75 140.263 577.578 141.102 577.234C141.94 576.891 142.604 576.406 143.094 575.781C143.583 575.156 143.828 574.432 143.828 573.609C143.828 572.859 143.617 572.25 143.195 571.781C142.773 571.312 142.214 570.927 141.516 570.625C140.818 570.323 140.052 570.057 139.219 569.828L136.406 569.031C134.531 568.5 133.073 567.74 132.031 566.75C130.99 565.76 130.469 564.495 130.469 562.953C130.469 561.641 130.823 560.492 131.531 559.508C132.24 558.523 133.198 557.76 134.406 557.219C135.615 556.677 136.969 556.406 138.469 556.406C140 556.406 141.354 556.677 142.531 557.219C143.708 557.76 144.638 558.497 145.32 559.43C146.003 560.362 146.365 561.417 146.406 562.594H143.5C143.365 561.458 142.823 560.581 141.875 559.961C140.927 559.341 139.76 559.031 138.375 559.031C137.375 559.031 136.497 559.195 135.742 559.523C134.987 559.852 134.401 560.299 133.984 560.867C133.568 561.435 133.359 562.083 133.359 562.812C133.359 563.625 133.612 564.279 134.117 564.773C134.622 565.268 135.221 565.654 135.914 565.93C136.607 566.206 137.234 566.422 137.797 566.578L140.125 567.219C140.75 567.385 141.44 567.615 142.195 567.906C142.951 568.198 143.672 568.586 144.359 569.07C145.047 569.555 145.612 570.169 146.055 570.914C146.497 571.659 146.719 572.573 146.719 573.656C146.719 574.927 146.388 576.073 145.727 577.094C145.065 578.115 144.104 578.922 142.844 579.516C141.583 580.109 140.057 580.406 138.266 580.406ZM158.344 580.375C156.656 580.375 155.201 580 153.977 579.25C152.753 578.5 151.81 577.453 151.148 576.109C150.487 574.766 150.156 573.198 150.156 571.406C150.156 569.615 150.479 568.036 151.125 566.672C151.771 565.307 152.685 564.24 153.867 563.469C155.049 562.698 156.432 562.312 158.016 562.312C158.943 562.312 159.857 562.466 160.758 562.773C161.659 563.081 162.477 563.576 163.211 564.258C163.945 564.94 164.531 565.839 164.969 566.953C165.406 568.068 165.625 569.432 165.625 571.047V572.219H152.062V569.844H164.109L162.797 570.719C162.797 569.573 162.617 568.555 162.258 567.664C161.898 566.773 161.365 566.076 160.656 565.57C159.948 565.065 159.068 564.812 158.016 564.812C156.964 564.812 156.062 565.07 155.312 565.586C154.562 566.102 153.99 566.773 153.594 567.602C153.198 568.43 153 569.318 153 570.266V571.844C153 573.135 153.224 574.232 153.672 575.133C154.12 576.034 154.747 576.716 155.555 577.18C156.362 577.643 157.297 577.875 158.359 577.875C159.047 577.875 159.672 577.776 160.234 577.578C160.797 577.38 161.281 577.081 161.688 576.68C162.094 576.279 162.406 575.781 162.625 575.188L165.344 575.938C165.073 576.812 164.615 577.583 163.969 578.25C163.323 578.917 162.523 579.438 161.57 579.812C160.617 580.188 159.542 580.375 158.344 580.375ZM176.531 562.531V564.938H167.5V562.531H176.531ZM170.125 558.375H172.938V575.469C172.938 576.25 173.096 576.82 173.414 577.18C173.732 577.539 174.26 577.719 175 577.719C175.177 577.719 175.404 577.698 175.68 577.656C175.956 577.615 176.208 577.573 176.438 577.531L177.016 579.906C176.724 580.01 176.393 580.089 176.023 580.141C175.654 580.193 175.286 580.219 174.922 580.219C173.411 580.219 172.234 579.82 171.391 579.023C170.547 578.227 170.125 577.115 170.125 575.688V558.375ZM187 562.531V564.938H177.969V562.531H187ZM180.594 558.375H183.406V575.469C183.406 576.25 183.565 576.82 183.883 577.18C184.201 577.539 184.729 577.719 185.469 577.719C185.646 577.719 185.872 577.698 186.148 577.656C186.424 577.615 186.677 577.573 186.906 577.531L187.484 579.906C187.193 580.01 186.862 580.089 186.492 580.141C186.122 580.193 185.755 580.219 185.391 580.219C183.88 580.219 182.703 579.82 181.859 579.023C181.016 578.227 180.594 577.115 180.594 575.688V558.375ZM190.594 580V562.531H193.406V580H190.594ZM192.016 559.672C191.484 559.672 191.026 559.49 190.641 559.125C190.255 558.76 190.062 558.323 190.062 557.812C190.062 557.292 190.255 556.852 190.641 556.492C191.026 556.133 191.484 555.953 192.016 555.953C192.557 555.953 193.021 556.133 193.406 556.492C193.792 556.852 193.984 557.292 193.984 557.812C193.984 558.323 193.792 558.76 193.406 559.125C193.021 559.49 192.557 559.672 192.016 559.672ZM201.156 569.531V580H198.344V562.531H201.047L201.062 566.766H200.672C201.203 565.151 201.961 564.005 202.945 563.328C203.93 562.651 205.083 562.312 206.406 562.312C207.583 562.312 208.615 562.555 209.5 563.039C210.385 563.523 211.076 564.253 211.57 565.227C212.065 566.201 212.312 567.427 212.312 568.906V580H209.5V569.141C209.5 567.797 209.148 566.745 208.445 565.984C207.742 565.224 206.781 564.844 205.562 564.844C204.729 564.844 203.979 565.026 203.312 565.391C202.646 565.755 202.12 566.286 201.734 566.984C201.349 567.682 201.156 568.531 201.156 569.531ZM224.328 586.906C223.036 586.906 221.919 586.742 220.977 586.414C220.034 586.086 219.25 585.651 218.625 585.109C218 584.568 217.505 583.979 217.141 583.344L219.422 581.875C219.672 582.208 219.982 582.578 220.352 582.984C220.721 583.391 221.221 583.737 221.852 584.023C222.482 584.31 223.307 584.453 224.328 584.453C225.724 584.453 226.872 584.12 227.773 583.453C228.674 582.786 229.125 581.734 229.125 580.297V576.797H228.859C228.661 577.13 228.383 577.526 228.023 577.984C227.664 578.443 227.148 578.846 226.477 579.195C225.805 579.544 224.906 579.719 223.781 579.719C222.385 579.719 221.13 579.388 220.016 578.727C218.901 578.065 218.021 577.099 217.375 575.828C216.729 574.557 216.406 573.01 216.406 571.188C216.406 569.385 216.724 567.82 217.359 566.492C217.995 565.164 218.872 564.135 219.992 563.406C221.112 562.677 222.396 562.312 223.844 562.312C224.969 562.312 225.867 562.497 226.539 562.867C227.211 563.237 227.729 563.661 228.094 564.141C228.458 564.62 228.74 565.016 228.938 565.328H229.203V562.531H231.938V580.453C231.938 581.953 231.599 583.18 230.922 584.133C230.245 585.086 229.331 585.786 228.18 586.234C227.029 586.682 225.745 586.906 224.328 586.906ZM224.25 577.219C225.312 577.219 226.208 576.977 226.938 576.492C227.667 576.008 228.219 575.31 228.594 574.398C228.969 573.487 229.156 572.396 229.156 571.125C229.156 569.885 228.971 568.794 228.602 567.852C228.232 566.909 227.682 566.169 226.953 565.633C226.224 565.096 225.323 564.828 224.25 564.828C223.146 564.828 222.224 565.112 221.484 565.68C220.745 566.247 220.19 567.005 219.82 567.953C219.451 568.901 219.266 569.958 219.266 571.125C219.266 572.323 219.453 573.38 219.828 574.297C220.203 575.214 220.76 575.93 221.5 576.445C222.24 576.961 223.156 577.219 224.25 577.219ZM242.812 580.375C241.615 580.375 240.549 580.201 239.617 579.852C238.685 579.503 237.917 578.984 237.312 578.297C236.708 577.609 236.302 576.766 236.094 575.766L238.766 575.125C239.016 576.083 239.487 576.786 240.18 577.234C240.872 577.682 241.74 577.906 242.781 577.906C244 577.906 244.971 577.646 245.695 577.125C246.419 576.604 246.781 575.984 246.781 575.266C246.781 574.661 246.57 574.159 246.148 573.758C245.727 573.357 245.083 573.057 244.219 572.859L241.312 572.172C239.729 571.797 238.552 571.216 237.781 570.43C237.01 569.643 236.625 568.635 236.625 567.406C236.625 566.406 236.906 565.523 237.469 564.758C238.031 563.992 238.799 563.393 239.773 562.961C240.747 562.529 241.854 562.312 243.094 562.312C244.292 562.312 245.31 562.492 246.148 562.852C246.987 563.211 247.669 563.706 248.195 564.336C248.721 564.966 249.115 565.693 249.375 566.516L246.828 567.172C246.589 566.547 246.19 565.979 245.633 565.469C245.076 564.958 244.234 564.703 243.109 564.703C242.068 564.703 241.201 564.943 240.508 565.422C239.815 565.901 239.469 566.505 239.469 567.234C239.469 567.88 239.703 568.398 240.172 568.789C240.641 569.18 241.385 569.495 242.406 569.734L245.047 570.359C246.63 570.734 247.802 571.315 248.562 572.102C249.323 572.888 249.703 573.88 249.703 575.078C249.703 576.099 249.414 577.008 248.836 577.805C248.258 578.602 247.451 579.229 246.414 579.688C245.378 580.146 244.177 580.375 242.812 580.375Z" fill="#8B949E"/>
<path d="M78.7133 666C79.6283 664.058 82.0967 662.667 85 662.667C88.6833 662.667 91.6667 664.905 91.6667 667.667C91.6667 670 89.5367 671.958 86.6567 672.512C85.7533 672.685 85 673.412 85 674.333M85 679.333H85.0167M100 671C100 679.279 93.2787 686 85 686C76.7213 686 70 679.279 70 671C70 662.721 76.7213 656 85 656C93.2787 656 100 662.721 100 671L78.7133 666" stroke="#8B949E" stroke-width="1.66667" stroke-linecap="round" stroke-linejoin="round"/>
<path d="M130.812 684V660.719H133.781V670.781H146V660.719H148.969V684H146V673.406H133.781V684H130.812ZM161.594 684.375C159.906 684.375 158.451 684 157.227 683.25C156.003 682.5 155.06 681.453 154.398 680.109C153.737 678.766 153.406 677.198 153.406 675.406C153.406 673.615 153.729 672.036 154.375 670.672C155.021 669.307 155.935 668.24 157.117 667.469C158.299 666.698 159.682 666.312 161.266 666.312C162.193 666.312 163.107 666.466 164.008 666.773C164.909 667.081 165.727 667.576 166.461 668.258C167.195 668.94 167.781 669.839 168.219 670.953C168.656 672.068 168.875 673.432 168.875 675.047V676.219H155.312V673.844H167.359L166.047 674.719C166.047 673.573 165.867 672.555 165.508 671.664C165.148 670.773 164.615 670.076 163.906 669.57C163.198 669.065 162.318 668.812 161.266 668.812C160.214 668.812 159.312 669.07 158.562 669.586C157.812 670.102 157.24 670.773 156.844 671.602C156.448 672.43 156.25 673.318 156.25 674.266V675.844C156.25 677.135 156.474 678.232 156.922 679.133C157.37 680.034 157.997 680.716 158.805 681.18C159.612 681.643 160.547 681.875 161.609 681.875C162.297 681.875 162.922 681.776 163.484 681.578C164.047 681.38 164.531 681.081 164.938 680.68C165.344 680.279 165.656 679.781 165.875 679.188L168.594 679.938C168.323 680.812 167.865 681.583 167.219 682.25C166.573 682.917 165.773 683.438 164.82 683.812C163.867 684.188 162.792 684.375 161.594 684.375ZM175.719 660.719V684H172.906V660.719H175.719ZM180.656 690.531V666.531H183.375V669.328H183.688C183.885 669.016 184.161 668.622 184.516 668.148C184.87 667.674 185.38 667.25 186.047 666.875C186.714 666.5 187.615 666.312 188.75 666.312C190.208 666.312 191.492 666.677 192.602 667.406C193.711 668.135 194.581 669.174 195.211 670.523C195.841 671.872 196.156 673.469 196.156 675.312C196.156 677.167 195.844 678.771 195.219 680.125C194.594 681.479 193.727 682.526 192.617 683.266C191.508 684.005 190.224 684.375 188.766 684.375C187.661 684.375 186.771 684.185 186.094 683.805C185.417 683.424 184.896 682.992 184.531 682.508C184.167 682.023 183.885 681.62 183.688 681.297H183.469V690.531H180.656ZM188.344 681.859C189.438 681.859 190.352 681.565 191.086 680.977C191.82 680.388 192.372 679.596 192.742 678.602C193.112 677.607 193.297 676.5 193.297 675.281C193.297 674.073 193.115 672.982 192.75 672.008C192.385 671.034 191.836 670.26 191.102 669.688C190.367 669.115 189.448 668.828 188.344 668.828C187.271 668.828 186.37 669.099 185.641 669.641C184.911 670.182 184.362 670.935 183.992 671.898C183.622 672.862 183.438 673.99 183.438 675.281C183.438 676.573 183.625 677.714 184 678.703C184.375 679.693 184.93 680.466 185.664 681.023C186.398 681.581 187.292 681.859 188.344 681.859ZM219.016 684.312C217.026 684.312 215.253 683.831 213.695 682.867C212.138 681.904 210.914 680.529 210.023 678.742C209.133 676.956 208.688 674.833 208.688 672.375C208.688 669.906 209.133 667.779 210.023 665.992C210.914 664.206 212.138 662.828 213.695 661.859C215.253 660.891 217.026 660.406 219.016 660.406C220.193 660.406 221.305 660.578 222.352 660.922C223.398 661.266 224.339 661.768 225.172 662.43C226.005 663.091 226.701 663.893 227.258 664.836C227.815 665.779 228.198 666.849 228.406 668.047H225.438C225.271 667.245 224.987 666.542 224.586 665.938C224.185 665.333 223.695 664.823 223.117 664.406C222.539 663.99 221.901 663.677 221.203 663.469C220.505 663.26 219.776 663.156 219.016 663.156C217.62 663.156 216.359 663.51 215.234 664.219C214.109 664.927 213.219 665.966 212.562 667.336C211.906 668.706 211.578 670.385 211.578 672.375C211.578 674.354 211.909 676.029 212.57 677.398C213.232 678.768 214.125 679.805 215.25 680.508C216.375 681.211 217.63 681.562 219.016 681.562C219.776 681.562 220.505 681.456 221.203 681.242C221.901 681.029 222.539 680.716 223.117 680.305C223.695 679.893 224.185 679.383 224.586 678.773C224.987 678.164 225.271 677.464 225.438 676.672H228.406C228.208 677.859 227.831 678.922 227.273 679.859C226.716 680.797 226.021 681.599 225.188 682.266C224.354 682.932 223.414 683.44 222.367 683.789C221.32 684.138 220.203 684.312 219.016 684.312ZM239.969 684.375C238.281 684.375 236.826 684 235.602 683.25C234.378 682.5 233.435 681.453 232.773 680.109C232.112 678.766 231.781 677.198 231.781 675.406C231.781 673.615 232.104 672.036 232.75 670.672C233.396 669.307 234.31 668.24 235.492 667.469C236.674 666.698 238.057 666.312 239.641 666.312C240.568 666.312 241.482 666.466 242.383 666.773C243.284 667.081 244.102 667.576 244.836 668.258C245.57 668.94 246.156 669.839 246.594 670.953C247.031 672.068 247.25 673.432 247.25 675.047V676.219H233.688V673.844H245.734L244.422 674.719C244.422 673.573 244.242 672.555 243.883 671.664C243.523 670.773 242.99 670.076 242.281 669.57C241.573 669.065 240.693 668.812 239.641 668.812C238.589 668.812 237.688 669.07 236.938 669.586C236.188 670.102 235.615 670.773 235.219 671.602C234.823 672.43 234.625 673.318 234.625 674.266V675.844C234.625 677.135 234.849 678.232 235.297 679.133C235.745 680.034 236.372 680.716 237.18 681.18C237.987 681.643 238.922 681.875 239.984 681.875C240.672 681.875 241.297 681.776 241.859 681.578C242.422 681.38 242.906 681.081 243.312 680.68C243.719 680.279 244.031 679.781 244.25 679.188L246.969 679.938C246.698 680.812 246.24 681.583 245.594 682.25C244.948 682.917 244.148 683.438 243.195 683.812C242.242 684.188 241.167 684.375 239.969 684.375ZM254.094 673.531V684H251.281V666.531H253.984L254 670.766H253.609C254.141 669.151 254.898 668.005 255.883 667.328C256.867 666.651 258.021 666.312 259.344 666.312C260.521 666.312 261.552 666.555 262.438 667.039C263.323 667.523 264.013 668.253 264.508 669.227C265.003 670.201 265.25 671.427 265.25 672.906V684H262.438V673.141C262.438 671.797 262.086 670.745 261.383 669.984C260.68 669.224 259.719 668.844 258.5 668.844C257.667 668.844 256.917 669.026 256.25 669.391C255.583 669.755 255.057 670.286 254.672 670.984C254.286 671.682 254.094 672.531 254.094 673.531ZM277.062 666.531V668.938H268.031V666.531H277.062ZM270.656 662.375H273.469V679.469C273.469 680.25 273.628 680.82 273.945 681.18C274.263 681.539 274.792 681.719 275.531 681.719C275.708 681.719 275.935 681.698 276.211 681.656C276.487 681.615 276.74 681.573 276.969 681.531L277.547 683.906C277.255 684.01 276.924 684.089 276.555 684.141C276.185 684.193 275.818 684.219 275.453 684.219C273.943 684.219 272.766 683.82 271.922 683.023C271.078 682.227 270.656 681.115 270.656 679.688V662.375ZM287.688 684.375C286 684.375 284.544 684 283.32 683.25C282.096 682.5 281.154 681.453 280.492 680.109C279.831 678.766 279.5 677.198 279.5 675.406C279.5 673.615 279.823 672.036 280.469 670.672C281.115 669.307 282.029 668.24 283.211 667.469C284.393 666.698 285.776 666.312 287.359 666.312C288.286 666.312 289.201 666.466 290.102 666.773C291.003 667.081 291.82 667.576 292.555 668.258C293.289 668.94 293.875 669.839 294.312 670.953C294.75 672.068 294.969 673.432 294.969 675.047V676.219H281.406V673.844H293.453L292.141 674.719C292.141 673.573 291.961 672.555 291.602 671.664C291.242 670.773 290.708 670.076 290 669.57C289.292 669.065 288.411 668.812 287.359 668.812C286.307 668.812 285.406 669.07 284.656 669.586C283.906 670.102 283.333 670.773 282.938 671.602C282.542 672.43 282.344 673.318 282.344 674.266V675.844C282.344 677.135 282.568 678.232 283.016 679.133C283.464 680.034 284.091 680.716 284.898 681.18C285.706 681.643 286.641 681.875 287.703 681.875C288.391 681.875 289.016 681.776 289.578 681.578C290.141 681.38 290.625 681.081 291.031 680.68C291.438 680.279 291.75 679.781 291.969 679.188L294.688 679.938C294.417 680.812 293.958 681.583 293.312 682.25C292.667 682.917 291.867 683.438 290.914 683.812C289.961 684.188 288.885 684.375 287.688 684.375ZM299 684V666.531H301.719V669.219H301.906C302.229 668.333 302.805 667.622 303.633 667.086C304.461 666.549 305.396 666.281 306.438 666.281C306.646 666.281 306.893 666.286 307.18 666.297C307.466 666.307 307.693 666.318 307.859 666.328V669.156C307.776 669.135 307.568 669.104 307.234 669.062C306.901 669.021 306.547 669 306.172 669C305.339 669 304.591 669.174 303.93 669.523C303.268 669.872 302.75 670.352 302.375 670.961C302 671.57 301.812 672.271 301.812 673.062V684H299Z" fill="#8B949E"/>
<mask id="path-24-inside-2_3_3" fill="white">
<path d="M0 1750H510V2048H0V1750Z"/>
</mask>
<path d="M0 1750V1752H510V1750V1748H0V1750Z" fill="#1F2937" mask="url(#path-24-inside-2_3_3)"/>
<rect x="32" y="1784" width="446" height="128" rx="12" fill="#1E3A8A" fill-opacity="0.2"/>
<rect x="32.5" y="1784.5" width="445" height="127" rx="11.5" stroke="#1E3A8A" stroke-opacity="0.5"/>
<path d="M67.5778 1842V1824.54H74.3897C75.7153 1824.54 76.8429 1824.79 77.7724 1825.3C78.702 1825.8 79.4113 1826.5 79.9003 1827.38C80.3894 1828.27 80.6339 1829.29 80.6339 1830.44C80.6339 1831.59 80.3863 1832.6 79.8909 1833.48C79.3955 1834.36 78.6765 1835.05 77.734 1835.55C76.7915 1836.05 75.649 1836.3 74.3065 1836.3H69.9305V1833.41H73.739C74.4668 1833.41 75.0677 1833.28 75.5416 1833.03C76.0155 1832.78 76.3678 1832.43 76.5985 1831.98C76.8292 1831.53 76.9445 1831.02 76.9445 1830.44C76.9445 1829.85 76.8292 1829.33 76.5985 1828.89C76.3678 1828.45 76.0146 1828.1 75.5389 1827.86C75.0632 1827.61 74.4597 1827.49 73.7283 1827.49H71.1587V1842H67.5778ZM83.1286 1842V1824.54H89.9405C91.2661 1824.54 92.3937 1824.77 93.3232 1825.24C94.2528 1825.71 94.9621 1826.37 95.4511 1827.23C95.9402 1828.08 96.1847 1829.08 96.1847 1830.22C96.1847 1831.37 95.937 1832.37 95.4416 1833.2C94.9462 1834.03 94.2273 1834.66 93.2848 1835.11C92.3423 1835.55 91.1998 1835.77 89.8573 1835.77H85.2441V1832.87H89.2898C90.0176 1832.87 90.6176 1832.77 91.0897 1832.57C91.5618 1832.37 91.9141 1832.08 92.1466 1831.68C92.3791 1831.29 92.4953 1830.8 92.4953 1830.22C92.4953 1829.63 92.3791 1829.13 92.1466 1828.73C91.9141 1828.33 91.5609 1828.02 91.087 1827.81C90.6131 1827.6 90.0104 1827.49 89.279 1827.49H86.7094V1842H83.1286ZM92.8434 1842L88.5993 1834.05H92.4741L96.8138 1842H92.8434ZM106.563 1842.23C105.02 1842.23 103.633 1841.88 102.402 1841.18C101.171 1840.48 100.198 1839.46 99.4842 1838.12C98.7701 1836.78 98.4131 1835.17 98.4131 1833.28C98.4131 1831.38 98.7701 1829.76 99.4842 1828.42C100.198 1827.08 101.171 1826.06 102.402 1825.36C103.633 1824.66 105.02 1824.3 106.563 1824.3C108.106 1824.3 109.491 1824.66 110.719 1825.36C111.946 1826.06 112.917 1827.08 113.631 1828.42C114.346 1829.76 114.703 1831.38 114.703 1833.28C114.703 1835.18 114.346 1836.79 113.631 1838.13C112.917 1839.46 111.946 1840.48 110.719 1841.18C109.491 1841.88 108.106 1842.23 106.563 1842.23ZM106.563 1839.06C107.467 1839.06 108.257 1838.84 108.932 1838.39C109.608 1837.95 110.133 1837.3 110.509 1836.44C110.885 1835.58 111.073 1834.53 111.073 1833.28C111.073 1832.03 110.885 1830.97 110.509 1830.1C110.133 1829.24 109.608 1828.59 108.932 1828.15C108.257 1827.7 107.467 1827.48 106.563 1827.48C105.66 1827.48 104.87 1827.7 104.192 1828.15C103.515 1828.59 102.988 1829.25 102.61 1830.11C102.232 1830.97 102.043 1832.03 102.043 1833.28C102.043 1834.53 102.232 1835.58 102.61 1836.44C102.988 1837.29 103.515 1837.95 104.192 1838.39C104.87 1838.84 105.66 1839.06 106.563 1839.06ZM123.066 1842V1824.54H129.878C131.204 1824.54 132.331 1824.79 133.261 1825.3C134.19 1825.8 134.9 1826.5 135.389 1827.38C135.878 1828.27 136.122 1829.29 136.122 1830.44C136.122 1831.59 135.875 1832.6 135.379 1833.48C134.884 1834.36 134.165 1835.05 133.222 1835.55C132.28 1836.05 131.137 1836.3 129.795 1836.3H125.419V1833.41H129.227C129.955 1833.41 130.556 1833.28 131.03 1833.03C131.504 1832.78 131.856 1832.43 132.087 1831.98C132.317 1831.53 132.433 1831.02 132.433 1830.44C132.433 1829.85 132.317 1829.33 132.087 1828.89C131.856 1828.45 131.503 1828.1 131.027 1827.86C130.551 1827.61 129.948 1827.49 129.217 1827.49H126.647V1842H123.066ZM138.617 1842V1824.54H142.198V1839.03H149.727V1842H138.617ZM151.181 1842L157.154 1824.54H161.833L167.957 1842H163.981L161.183 1833.58C160.842 1832.49 160.499 1831.3 160.154 1830C159.809 1828.71 159.445 1827.3 159.062 1825.77H159.838C159.467 1827.31 159.119 1828.72 158.796 1830.03C158.473 1831.33 158.15 1832.51 157.829 1833.58L155.13 1842H151.181ZM154.913 1837.95V1835.14H164.225V1837.95H154.913ZM170.105 1842V1824.54H174.097L179.61 1833.38C179.89 1833.83 180.176 1834.32 180.467 1834.85C180.758 1835.38 181.054 1835.97 181.354 1836.62C181.654 1837.27 181.954 1838 182.256 1838.81H181.889C181.835 1838.16 181.785 1837.47 181.739 1836.74C181.693 1836.01 181.656 1835.3 181.627 1834.63C181.598 1833.96 181.584 1833.39 181.584 1832.92V1824.54H185.24V1842H181.238L176.232 1833.99C175.863 1833.38 175.521 1832.8 175.207 1832.23C174.893 1831.67 174.567 1831.04 174.228 1830.36C173.888 1829.67 173.484 1828.85 173.013 1827.9H173.468C173.52 1828.74 173.568 1829.55 173.614 1830.33C173.66 1831.1 173.697 1831.81 173.725 1832.43C173.753 1833.06 173.767 1833.57 173.767 1833.98V1842H170.105Z" fill="#1F6FEB"/>
<path d="M334.684 1841V1839.66L339.518 1834.42C340.058 1833.83 340.507 1833.32 340.865 1832.88C341.224 1832.43 341.494 1832.01 341.676 1831.61C341.858 1831.21 341.949 1830.79 341.949 1830.34C341.949 1829.83 341.829 1829.39 341.588 1829.02C341.347 1828.65 341.022 1828.36 340.612 1828.16C340.201 1827.96 339.736 1827.87 339.215 1827.87C338.662 1827.87 338.182 1827.98 337.775 1828.2C337.368 1828.43 337.054 1828.74 336.832 1829.15C336.611 1829.56 336.5 1830.03 336.5 1830.58H334.723C334.723 1829.72 334.921 1828.97 335.319 1828.31C335.716 1827.66 336.256 1827.16 336.94 1826.8C337.623 1826.43 338.398 1826.25 339.264 1826.25C340.13 1826.25 340.896 1826.43 341.564 1826.8C342.231 1827.16 342.755 1827.64 343.136 1828.26C343.517 1828.87 343.707 1829.55 343.707 1830.32C343.707 1830.84 343.613 1831.36 343.424 1831.85C343.235 1832.35 342.903 1832.92 342.428 1833.55C341.953 1834.18 341.285 1834.95 340.426 1835.86L337.242 1839.25V1839.37H343.951V1841H334.684ZM346.237 1838.04V1836.53L352.604 1826.45H353.727V1828.77H352.975L348.219 1836.29V1836.41H356.832V1838.04H346.237ZM353.082 1841V1837.59L353.092 1836.88V1826.45H354.86V1841H353.082ZM369.244 1841.23C368.339 1841.23 367.539 1841 366.842 1840.54C366.145 1840.08 365.602 1839.42 365.211 1838.58C364.821 1837.73 364.625 1836.73 364.625 1835.57C364.625 1834.42 364.822 1833.42 365.216 1832.58C365.61 1831.73 366.155 1831.08 366.852 1830.63C367.548 1830.17 368.349 1829.95 369.254 1829.95C369.964 1829.95 370.527 1830.06 370.944 1830.3C371.36 1830.53 371.681 1830.8 371.906 1831.09C372.13 1831.39 372.301 1831.63 372.418 1831.83H372.555V1826.45H374.313V1841H372.614V1839.31H372.418C372.301 1839.51 372.127 1839.76 371.896 1840.07C371.665 1840.37 371.339 1840.64 370.919 1840.88C370.499 1841.12 369.941 1841.23 369.244 1841.23ZM369.508 1839.66C370.172 1839.66 370.732 1839.49 371.188 1839.14C371.643 1838.79 371.989 1838.31 372.223 1837.69C372.457 1837.07 372.574 1836.36 372.574 1835.55C372.574 1834.74 372.459 1834.04 372.228 1833.44C371.997 1832.83 371.653 1832.36 371.198 1832.03C370.742 1831.69 370.179 1831.52 369.508 1831.52C368.818 1831.52 368.243 1831.7 367.784 1832.05C367.325 1832.41 366.982 1832.9 366.754 1833.5C366.526 1834.11 366.412 1834.8 366.412 1835.55C366.412 1836.31 366.528 1837 366.759 1837.63C366.99 1838.25 367.337 1838.74 367.799 1839.11C368.261 1839.48 368.831 1839.66 369.508 1839.66ZM380.455 1841.25C379.765 1841.25 379.139 1841.12 378.575 1840.86C378.012 1840.6 377.565 1840.22 377.233 1839.72C376.901 1839.22 376.735 1838.61 376.735 1837.89C376.735 1837.27 376.858 1836.76 377.106 1836.37C377.353 1835.98 377.684 1835.67 378.097 1835.45C378.51 1835.22 378.968 1835.06 379.469 1834.95C379.97 1834.83 380.475 1834.75 380.983 1834.68C381.634 1834.6 382.164 1834.53 382.574 1834.49C382.985 1834.44 383.289 1834.36 383.488 1834.25C383.686 1834.14 383.785 1833.95 383.785 1833.69V1833.63C383.785 1833.17 383.701 1832.79 383.531 1832.47C383.362 1832.15 383.108 1831.91 382.77 1831.74C382.431 1831.57 382.008 1831.49 381.5 1831.49C380.979 1831.49 380.533 1831.57 380.162 1831.73C379.791 1831.9 379.49 1832.1 379.259 1832.34C379.028 1832.59 378.854 1832.84 378.737 1833.09L377.047 1832.53C377.327 1831.87 377.705 1831.35 378.18 1830.98C378.655 1830.6 379.179 1830.34 379.752 1830.18C380.325 1830.02 380.892 1829.95 381.451 1829.95C381.816 1829.95 382.231 1829.99 382.697 1830.08C383.162 1830.17 383.611 1830.34 384.044 1830.6C384.477 1830.86 384.835 1831.25 385.118 1831.76C385.402 1832.27 385.543 1832.95 385.543 1833.8V1841H383.815V1839.52H383.698C383.574 1839.77 383.375 1840.03 383.102 1840.3C382.828 1840.57 382.474 1840.8 382.037 1840.98C381.601 1841.16 381.074 1841.25 380.455 1841.25ZM380.758 1839.7C381.409 1839.7 381.959 1839.57 382.408 1839.32C382.858 1839.07 383.199 1838.74 383.434 1838.33C383.668 1837.92 383.785 1837.5 383.785 1837.05V1835.54C383.714 1835.63 383.558 1835.7 383.317 1835.77C383.076 1835.84 382.801 1835.9 382.491 1835.95C382.182 1836 381.883 1836.05 381.593 1836.08C381.303 1836.12 381.074 1836.15 380.905 1836.17C380.481 1836.22 380.086 1836.31 379.718 1836.43C379.35 1836.56 379.056 1836.75 378.834 1836.99C378.613 1837.24 378.502 1837.57 378.502 1837.98C378.502 1838.36 378.6 1838.68 378.795 1838.93C378.99 1839.18 379.257 1839.38 379.596 1839.51C379.934 1839.64 380.322 1839.7 380.758 1839.7ZM388.16 1844.96L388.61 1843.43L388.795 1843.48C389.153 1843.57 389.479 1843.6 389.772 1843.55C390.065 1843.51 390.328 1843.37 390.563 1843.12C390.797 1842.87 391.002 1842.49 391.178 1841.97L391.49 1841.06L387.321 1830.08H389.244L391.569 1836.56C391.816 1837.23 392.024 1837.9 392.194 1838.57C392.363 1839.23 392.542 1839.88 392.731 1840.5H392.086C392.275 1839.88 392.456 1839.23 392.628 1838.56C392.801 1837.9 393.007 1837.23 393.248 1836.56L395.592 1830.08H397.506L392.711 1842.63C392.49 1843.21 392.225 1843.69 391.915 1844.06C391.606 1844.44 391.246 1844.71 390.836 1844.89C390.426 1845.07 389.964 1845.16 389.449 1845.16C389.137 1845.16 388.867 1845.14 388.639 1845.09C388.411 1845.05 388.252 1845 388.16 1844.96ZM403.287 1841.23C402.539 1841.23 401.873 1841.13 401.29 1840.91C400.708 1840.69 400.227 1840.37 399.85 1839.94C399.472 1839.51 399.218 1838.98 399.088 1838.35L400.758 1837.95C400.914 1838.55 401.209 1838.99 401.642 1839.27C402.075 1839.55 402.617 1839.69 403.268 1839.69C404.03 1839.69 404.637 1839.53 405.089 1839.2C405.542 1838.88 405.768 1838.49 405.768 1838.04C405.768 1837.66 405.636 1837.35 405.372 1837.1C405.109 1836.85 404.707 1836.66 404.166 1836.54L402.35 1836.11C401.36 1835.87 400.625 1835.51 400.143 1835.02C399.661 1834.53 399.42 1833.9 399.42 1833.13C399.42 1832.5 399.596 1831.95 399.948 1831.47C400.299 1831 400.779 1830.62 401.388 1830.35C401.997 1830.08 402.688 1829.95 403.463 1829.95C404.212 1829.95 404.848 1830.06 405.372 1830.28C405.896 1830.51 406.323 1830.82 406.652 1831.21C406.98 1831.6 407.226 1832.06 407.389 1832.57L405.797 1832.98C405.647 1832.59 405.398 1832.24 405.05 1831.92C404.702 1831.6 404.176 1831.44 403.473 1831.44C402.822 1831.44 402.28 1831.59 401.847 1831.89C401.414 1832.19 401.198 1832.57 401.198 1833.02C401.198 1833.43 401.344 1833.75 401.637 1833.99C401.93 1834.24 402.395 1834.43 403.033 1834.58L404.684 1834.97C405.673 1835.21 406.406 1835.57 406.881 1836.06C407.356 1836.56 407.594 1837.18 407.594 1837.92C407.594 1838.56 407.413 1839.13 407.052 1839.63C406.691 1840.13 406.186 1840.52 405.538 1840.8C404.891 1841.09 404.14 1841.23 403.287 1841.23ZM417.516 1826.45V1841H415.758V1826.45H417.516ZM425.192 1841.23C424.137 1841.23 423.227 1841 422.462 1840.53C421.697 1840.06 421.108 1839.41 420.695 1838.57C420.281 1837.73 420.074 1836.75 420.074 1835.63C420.074 1834.51 420.276 1833.52 420.68 1832.67C421.084 1831.82 421.655 1831.15 422.394 1830.67C423.133 1830.19 423.997 1829.95 424.987 1829.95C425.566 1829.95 426.137 1830.04 426.7 1830.23C427.264 1830.43 427.775 1830.73 428.234 1831.16C428.693 1831.59 429.059 1832.15 429.332 1832.85C429.606 1833.54 429.742 1834.4 429.742 1835.4V1836.14H421.266V1834.65H428.795L427.975 1835.2C427.975 1834.48 427.863 1833.85 427.638 1833.29C427.413 1832.73 427.08 1832.3 426.637 1831.98C426.194 1831.67 425.644 1831.51 424.987 1831.51C424.329 1831.51 423.766 1831.67 423.297 1831.99C422.828 1832.31 422.47 1832.73 422.223 1833.25C421.976 1833.77 421.852 1834.32 421.852 1834.92V1835.9C421.852 1836.71 421.992 1837.39 422.272 1837.96C422.552 1838.52 422.944 1838.95 423.448 1839.24C423.953 1839.53 424.537 1839.67 425.201 1839.67C425.631 1839.67 426.022 1839.61 426.373 1839.49C426.725 1839.36 427.028 1839.18 427.281 1838.92C427.535 1838.67 427.731 1838.36 427.867 1837.99L429.567 1838.46C429.397 1839.01 429.111 1839.49 428.707 1839.91C428.304 1840.32 427.804 1840.65 427.208 1840.88C426.613 1841.12 425.94 1841.23 425.192 1841.23ZM437.34 1830.08V1831.59H430.914V1830.08H437.34ZM433.063 1841V1828.63C433.063 1828 433.211 1827.47 433.507 1827.04C433.803 1826.62 434.189 1826.3 434.664 1826.09C435.14 1825.87 435.641 1825.77 436.168 1825.77C436.585 1825.77 436.93 1825.8 437.203 1825.87C437.477 1825.94 437.679 1826 437.809 1826.06L437.321 1827.56C437.229 1827.53 437.111 1827.49 436.964 1827.46C436.818 1827.42 436.621 1827.4 436.373 1827.4C435.833 1827.4 435.439 1827.53 435.192 1827.81C434.944 1828.09 434.821 1828.49 434.821 1829.02V1841H433.063ZM443.278 1830.08V1831.59H437.633V1830.08H443.278ZM439.274 1827.48H441.031V1838.17C441.031 1838.66 441.131 1839.01 441.329 1839.24C441.528 1839.46 441.858 1839.57 442.321 1839.57C442.431 1839.57 442.573 1839.56 442.745 1839.54C442.918 1839.51 443.076 1839.48 443.219 1839.46L443.58 1840.94C443.398 1841.01 443.191 1841.06 442.96 1841.09C442.729 1841.12 442.5 1841.14 442.272 1841.14C441.328 1841.14 440.592 1840.89 440.065 1840.39C439.537 1839.89 439.274 1839.2 439.274 1838.3V1827.48Z" fill="#8B949E"/>
<rect x="66" y="1866" width="378" height="12" rx="3" fill="#374151"/>
<rect x="66" y="1866" width="252" height="12" fill="#1F6FEB"/>
<path d="M119.923 1986.67L126.59 1980M126.59 1980L119.923 1973.33M126.59 1980H103.257M113.257 1986.67V1988.33C113.257 1991.09 111.018 1993.33 108.257 1993.33H101.59C98.8287 1993.33 96.5901 1991.09 96.5901 1988.33V1971.67C96.5901 1968.91 98.8287 1966.67 101.59 1966.67H108.257C111.018 1966.67 113.257 1968.91 113.257 1971.67V1973.33" stroke="#F97316" stroke-width="1.66667" stroke-linecap="round" stroke-linejoin="round"/>
<path d="M156.487 1990H151.447V1987.27H156.313C157.856 1987.27 159.138 1986.98 160.16 1986.4C161.182 1985.83 161.947 1984.98 162.455 1983.87C162.963 1982.75 163.218 1981.39 163.218 1979.78C163.218 1978.19 162.964 1976.84 162.458 1975.74C161.952 1974.63 161.201 1973.79 160.206 1973.22C159.211 1972.65 157.971 1972.36 156.486 1972.36H151.343V1969.63H156.686C158.692 1969.63 160.41 1970.03 161.839 1970.85C163.267 1971.66 164.365 1972.82 165.131 1974.34C165.897 1975.86 166.279 1977.67 166.279 1979.78C166.279 1981.91 165.895 1983.73 165.126 1985.26C164.357 1986.78 163.243 1987.95 161.782 1988.77C160.321 1989.59 158.556 1990 156.487 1990ZM152.986 1969.63V1990H149.862V1969.63H152.986ZM169.837 1990V1974.71H172.844V1990H169.837ZM171.349 1972.38C170.834 1972.38 170.39 1972.21 170.018 1971.86C169.646 1971.51 169.461 1971.09 169.461 1970.6C169.461 1970.1 169.646 1969.67 170.018 1969.33C170.39 1968.98 170.834 1968.81 171.349 1968.81C171.872 1968.81 172.319 1968.98 172.691 1969.33C173.063 1969.67 173.249 1970.1 173.249 1970.6C173.249 1971.09 173.063 1971.51 172.691 1971.86C172.319 1972.21 171.872 1972.38 171.349 1972.38ZM182.38 1990.32C181.271 1990.32 180.286 1990.16 179.426 1989.84C178.566 1989.52 177.86 1989.04 177.308 1988.42C176.755 1987.8 176.389 1987.04 176.208 1986.14L179.041 1985.54C179.253 1986.34 179.644 1986.93 180.215 1987.31C180.786 1987.69 181.515 1987.88 182.402 1987.88C183.373 1987.88 184.145 1987.68 184.719 1987.27C185.292 1986.87 185.579 1986.38 185.579 1985.81C185.579 1985.32 185.402 1984.92 185.049 1984.6C184.695 1984.28 184.154 1984.04 183.426 1983.88L180.853 1983.3C179.438 1982.98 178.384 1982.47 177.692 1981.77C176.999 1981.07 176.653 1980.17 176.653 1979.07C176.653 1978.16 176.906 1977.37 177.412 1976.69C177.918 1976 178.616 1975.47 179.504 1975.09C180.392 1974.71 181.412 1974.52 182.564 1974.52C183.667 1974.52 184.61 1974.68 185.393 1975C186.177 1975.33 186.813 1975.77 187.301 1976.34C187.789 1976.91 188.141 1977.58 188.356 1978.33L185.657 1978.93C185.464 1978.39 185.131 1977.92 184.659 1977.51C184.187 1977.1 183.499 1976.9 182.595 1976.9C181.762 1976.9 181.068 1977.09 180.512 1977.46C179.956 1977.83 179.678 1978.31 179.678 1978.89C179.678 1979.4 179.864 1979.81 180.235 1980.12C180.607 1980.44 181.211 1980.69 182.046 1980.88L184.502 1981.43C185.919 1981.75 186.969 1982.25 187.653 1982.94C188.338 1983.62 188.68 1984.5 188.68 1985.56C188.68 1986.49 188.414 1987.31 187.882 1988.02C187.349 1988.74 186.61 1989.3 185.663 1989.71C184.716 1990.11 183.621 1990.32 182.38 1990.32ZM198.397 1990.32C196.962 1990.32 195.711 1989.99 194.642 1989.33C193.574 1988.68 192.745 1987.76 192.154 1986.57C191.563 1985.39 191.268 1984.01 191.268 1982.44C191.268 1980.85 191.563 1979.46 192.154 1978.28C192.745 1977.09 193.574 1976.17 194.642 1975.51C195.711 1974.85 196.962 1974.52 198.397 1974.52C199.192 1974.52 199.936 1974.63 200.629 1974.83C201.321 1975.04 201.947 1975.34 202.505 1975.72C203.064 1976.11 203.538 1976.58 203.926 1977.14C204.315 1977.7 204.603 1978.33 204.792 1979.03L201.944 1979.72C201.843 1979.32 201.688 1978.97 201.479 1978.64C201.27 1978.32 201.016 1978.04 200.718 1977.8C200.42 1977.57 200.077 1977.38 199.69 1977.26C199.303 1977.13 198.877 1977.07 198.411 1977.07C197.487 1977.07 196.724 1977.31 196.122 1977.8C195.52 1978.28 195.071 1978.93 194.774 1979.74C194.477 1980.55 194.328 1981.45 194.328 1982.44C194.328 1983.41 194.477 1984.3 194.774 1985.11C195.071 1985.92 195.52 1986.56 196.122 1987.05C196.724 1987.53 197.487 1987.78 198.411 1987.78C198.884 1987.78 199.318 1987.71 199.713 1987.58C200.107 1987.45 200.458 1987.26 200.764 1987.01C201.071 1986.77 201.328 1986.48 201.537 1986.14C201.746 1985.79 201.901 1985.42 202 1985.01L204.837 1985.69C204.656 1986.41 204.369 1987.06 203.977 1987.63C203.584 1988.2 203.107 1988.68 202.546 1989.08C201.984 1989.49 201.353 1989.79 200.652 1990C199.952 1990.21 199.2 1990.32 198.397 1990.32ZM214.559 1990.32C213.125 1990.32 211.873 1989.99 210.804 1989.33C209.735 1988.68 208.905 1987.76 208.314 1986.57C207.723 1985.39 207.428 1984.01 207.428 1982.44C207.428 1980.85 207.723 1979.46 208.314 1978.28C208.905 1977.09 209.735 1976.17 210.804 1975.51C211.873 1974.85 213.125 1974.52 214.559 1974.52C216.001 1974.52 217.258 1974.85 218.329 1975.51C219.4 1976.17 220.231 1977.09 220.822 1978.28C221.413 1979.46 221.708 1980.85 221.708 1982.44C221.708 1984.01 221.413 1985.39 220.822 1986.57C220.231 1987.76 219.4 1988.68 218.329 1989.33C217.258 1989.99 216.001 1990.32 214.559 1990.32ZM214.559 1987.78C215.489 1987.78 216.258 1987.53 216.865 1987.04C217.472 1986.56 217.923 1985.91 218.217 1985.1C218.511 1984.29 218.659 1983.4 218.659 1982.44C218.659 1981.46 218.511 1980.57 218.217 1979.76C217.923 1978.94 217.472 1978.29 216.865 1977.8C216.258 1977.31 215.489 1977.07 214.559 1977.07C213.635 1977.07 212.873 1977.31 212.272 1977.8C211.672 1978.29 211.225 1978.94 210.93 1979.75C210.636 1980.56 210.489 1981.46 210.489 1982.44C210.489 1983.4 210.636 1984.29 210.93 1985.1C211.225 1985.91 211.672 1986.56 212.272 1987.04C212.873 1987.53 213.635 1987.78 214.559 1987.78ZM228.051 1980.94V1990H225.044V1974.71H227.911L227.942 1978.46H227.632C228.076 1977.09 228.721 1976.09 229.567 1975.47C230.414 1974.84 231.438 1974.52 232.64 1974.52C233.68 1974.52 234.589 1974.74 235.368 1975.18C236.147 1975.61 236.753 1976.26 237.187 1977.11C237.621 1977.97 237.837 1979.03 237.837 1980.29V1990H234.83V1980.66C234.83 1979.56 234.544 1978.7 233.97 1978.08C233.397 1977.45 232.61 1977.14 231.611 1977.14C230.933 1977.14 230.325 1977.29 229.787 1977.59C229.248 1977.88 228.825 1978.32 228.515 1978.88C228.206 1979.45 228.051 1980.13 228.051 1980.94ZM244.895 1980.94V1990H241.888V1974.71H244.755L244.786 1978.46H244.476C244.92 1977.09 245.565 1976.09 246.411 1975.47C247.258 1974.84 248.282 1974.52 249.484 1974.52C250.524 1974.52 251.433 1974.74 252.212 1975.18C252.991 1975.61 253.597 1976.26 254.031 1977.11C254.464 1977.97 254.681 1979.03 254.681 1980.29V1990H251.674V1980.66C251.674 1979.56 251.387 1978.7 250.814 1978.08C250.241 1977.45 249.454 1977.14 248.455 1977.14C247.777 1977.14 247.169 1977.29 246.63 1977.59C246.092 1977.88 245.668 1978.32 245.359 1978.88C245.05 1979.45 244.895 1980.13 244.895 1980.94ZM265.32 1990.32C263.815 1990.32 262.518 1989.99 261.427 1989.34C260.336 1988.69 259.497 1987.78 258.909 1986.6C258.321 1985.43 258.028 1984.05 258.028 1982.47C258.028 1980.9 258.316 1979.52 258.894 1978.32C259.471 1977.13 260.288 1976.2 261.345 1975.53C262.401 1974.86 263.64 1974.52 265.06 1974.52C265.933 1974.52 266.777 1974.67 267.592 1974.95C268.407 1975.24 269.137 1975.69 269.784 1976.3C270.431 1976.91 270.943 1977.7 271.321 1978.68C271.699 1979.65 271.888 1980.82 271.888 1982.2V1983.27H259.7V1981.02H270.337L268.933 1981.77C268.933 1980.83 268.788 1980.01 268.497 1979.29C268.206 1978.58 267.775 1978.02 267.203 1977.62C266.631 1977.21 265.919 1977.01 265.069 1977.01C264.219 1977.01 263.493 1977.22 262.891 1977.63C262.289 1978.04 261.83 1978.58 261.513 1979.25C261.196 1979.92 261.038 1980.65 261.038 1981.44V1982.97C261.038 1984.01 261.218 1984.9 261.577 1985.63C261.937 1986.35 262.442 1986.9 263.092 1987.27C263.742 1987.64 264.495 1987.83 265.351 1987.83C265.911 1987.83 266.421 1987.75 266.879 1987.59C267.338 1987.43 267.732 1987.19 268.063 1986.86C268.394 1986.54 268.648 1986.14 268.825 1985.66L271.646 1986.33C271.406 1987.12 270.996 1987.82 270.416 1988.42C269.836 1989.01 269.115 1989.48 268.254 1989.82C267.392 1990.15 266.414 1990.32 265.32 1990.32ZM281.604 1990.32C280.169 1990.32 278.918 1989.99 277.849 1989.33C276.781 1988.68 275.952 1987.76 275.361 1986.57C274.77 1985.39 274.475 1984.01 274.475 1982.44C274.475 1980.85 274.77 1979.46 275.361 1978.28C275.952 1977.09 276.781 1976.17 277.849 1975.51C278.918 1974.85 280.169 1974.52 281.604 1974.52C282.399 1974.52 283.143 1974.63 283.836 1974.83C284.528 1975.04 285.154 1975.34 285.712 1975.72C286.271 1976.11 286.745 1976.58 287.133 1977.14C287.522 1977.7 287.81 1978.33 287.999 1979.03L285.151 1979.72C285.05 1979.32 284.895 1978.97 284.686 1978.64C284.477 1978.32 284.223 1978.04 283.925 1977.8C283.627 1977.57 283.284 1977.38 282.897 1977.26C282.51 1977.13 282.084 1977.07 281.618 1977.07C280.694 1977.07 279.931 1977.31 279.329 1977.8C278.727 1978.28 278.278 1978.93 277.981 1979.74C277.684 1980.55 277.535 1981.45 277.535 1982.44C277.535 1983.41 277.684 1984.3 277.981 1985.11C278.278 1985.92 278.727 1986.56 279.329 1987.05C279.931 1987.53 280.694 1987.78 281.618 1987.78C282.091 1987.78 282.525 1987.71 282.92 1987.58C283.314 1987.45 283.665 1987.26 283.971 1987.01C284.278 1986.77 284.535 1986.48 284.744 1986.14C284.953 1985.79 285.108 1985.42 285.207 1985.01L288.044 1985.69C287.863 1986.41 287.576 1987.06 287.184 1987.63C286.791 1988.2 286.314 1988.68 285.753 1989.08C285.191 1989.49 284.56 1989.79 283.859 1990C283.159 1990.21 282.407 1990.32 281.604 1990.32ZM297.881 1974.71V1977.16H289.59V1974.71H297.881ZM291.823 1971.08H294.83V1985.87C294.83 1986.48 294.959 1986.94 295.216 1987.22C295.474 1987.51 295.901 1987.65 296.497 1987.65C296.654 1987.65 296.859 1987.63 297.114 1987.6C297.368 1987.56 297.587 1987.52 297.77 1987.49L298.302 1989.9C297.98 1990 297.636 1990.08 297.271 1990.13C296.905 1990.17 296.547 1990.2 296.197 1990.2C294.805 1990.2 293.728 1989.84 292.966 1989.13C292.204 1988.42 291.823 1987.41 291.823 1986.11V1971.08ZM307.007 1990L314.261 1969.63H318.085L325.462 1990H322.093L318.124 1978.67C317.816 1977.75 317.477 1976.66 317.109 1975.41C316.741 1974.17 316.315 1972.67 315.832 1970.92H316.462C315.989 1972.68 315.57 1974.2 315.205 1975.46C314.839 1976.72 314.514 1977.79 314.232 1978.67L310.384 1990H307.007ZM310.937 1984.63V1982.03H321.532V1984.63H310.937ZM334.391 1990.32C332.956 1990.32 331.705 1989.99 330.636 1989.33C329.568 1988.68 328.739 1987.76 328.148 1986.57C327.557 1985.39 327.262 1984.01 327.262 1982.44C327.262 1980.85 327.557 1979.46 328.148 1978.28C328.739 1977.09 329.568 1976.17 330.636 1975.51C331.705 1974.85 332.956 1974.52 334.391 1974.52C335.186 1974.52 335.93 1974.63 336.623 1974.83C337.315 1975.04 337.941 1975.34 338.499 1975.72C339.058 1976.11 339.532 1976.58 339.92 1977.14C340.309 1977.7 340.598 1978.33 340.786 1979.03L337.938 1979.72C337.837 1979.32 337.682 1978.97 337.473 1978.64C337.264 1978.32 337.011 1978.04 336.712 1977.8C336.414 1977.57 336.072 1977.38 335.684 1977.26C335.297 1977.13 334.871 1977.07 334.406 1977.07C333.481 1977.07 332.718 1977.31 332.116 1977.8C331.514 1978.28 331.065 1978.93 330.768 1979.74C330.471 1980.55 330.323 1981.45 330.323 1982.44C330.323 1983.41 330.471 1984.3 330.768 1985.11C331.065 1985.92 331.514 1986.56 332.116 1987.05C332.718 1987.53 333.481 1987.78 334.406 1987.78C334.878 1987.78 335.312 1987.71 335.707 1987.58C336.101 1987.45 336.452 1987.26 336.758 1987.01C337.065 1986.77 337.323 1986.48 337.532 1986.14C337.741 1985.79 337.895 1985.42 337.994 1985.01L340.831 1985.69C340.65 1986.41 340.363 1987.06 339.971 1987.63C339.579 1988.2 339.102 1988.68 338.54 1989.08C337.978 1989.49 337.347 1989.79 336.646 1990C335.946 1990.21 335.194 1990.32 334.391 1990.32ZM350.551 1990.32C349.116 1990.32 347.865 1989.99 346.797 1989.33C345.728 1988.68 344.899 1987.76 344.308 1986.57C343.717 1985.39 343.422 1984.01 343.422 1982.44C343.422 1980.85 343.717 1979.46 344.308 1978.28C344.899 1977.09 345.728 1976.17 346.797 1975.51C347.865 1974.85 349.116 1974.52 350.551 1974.52C351.347 1974.52 352.091 1974.63 352.783 1974.83C353.475 1975.04 354.101 1975.34 354.66 1975.72C355.218 1976.11 355.692 1976.58 356.081 1977.14C356.469 1977.7 356.758 1978.33 356.946 1979.03L354.098 1979.72C353.997 1979.32 353.842 1978.97 353.633 1978.64C353.424 1978.32 353.171 1978.04 352.873 1977.8C352.574 1977.57 352.232 1977.38 351.844 1977.26C351.457 1977.13 351.031 1977.07 350.566 1977.07C349.642 1977.07 348.879 1977.31 348.276 1977.8C347.674 1978.28 347.225 1978.93 346.928 1979.74C346.631 1980.55 346.483 1981.45 346.483 1982.44C346.483 1983.41 346.631 1984.3 346.928 1985.11C347.225 1985.92 347.674 1986.56 348.276 1987.05C348.879 1987.53 349.642 1987.78 350.566 1987.78C351.038 1987.78 351.472 1987.71 351.867 1987.58C352.262 1987.45 352.612 1987.26 352.919 1987.01C353.225 1986.77 353.483 1986.48 353.692 1986.14C353.901 1985.79 354.055 1985.42 354.155 1985.01L356.991 1985.69C356.81 1986.41 356.523 1987.06 356.131 1987.63C355.739 1988.2 355.262 1988.68 354.7 1989.08C354.138 1989.49 353.507 1989.79 352.807 1990C352.106 1990.21 351.354 1990.32 350.551 1990.32ZM366.714 1990.32C365.279 1990.32 364.027 1989.99 362.958 1989.33C361.889 1988.68 361.059 1987.76 360.468 1986.57C359.878 1985.39 359.582 1984.01 359.582 1982.44C359.582 1980.85 359.878 1979.46 360.468 1978.28C361.059 1977.09 361.889 1976.17 362.958 1975.51C364.027 1974.85 365.279 1974.52 366.714 1974.52C368.156 1974.52 369.412 1974.85 370.483 1975.51C371.555 1976.17 372.385 1977.09 372.976 1978.28C373.567 1979.46 373.862 1980.85 373.862 1982.44C373.862 1984.01 373.567 1985.39 372.976 1986.57C372.385 1987.76 371.555 1988.68 370.483 1989.33C369.412 1989.99 368.156 1990.32 366.714 1990.32ZM366.714 1987.78C367.643 1987.78 368.412 1987.53 369.019 1987.04C369.626 1986.56 370.077 1985.91 370.371 1985.1C370.666 1984.29 370.813 1983.4 370.813 1982.44C370.813 1981.46 370.666 1980.57 370.371 1979.76C370.077 1978.94 369.626 1978.29 369.019 1977.8C368.412 1977.31 367.643 1977.07 366.714 1977.07C365.789 1977.07 365.027 1977.31 364.427 1977.8C363.826 1978.29 363.379 1978.94 363.084 1979.75C362.79 1980.56 362.643 1981.46 362.643 1982.44C362.643 1983.4 362.79 1984.29 363.084 1985.1C363.379 1985.91 363.826 1986.56 364.427 1987.04C365.027 1987.53 365.789 1987.78 366.714 1987.78ZM382.407 1990.19C381.369 1990.19 380.458 1989.97 379.675 1989.54C378.891 1989.1 378.283 1988.45 377.849 1987.6C377.415 1986.74 377.198 1985.68 377.198 1984.43V1974.71H380.205V1984.05C380.205 1985.15 380.494 1986.01 381.071 1986.64C381.648 1987.26 382.436 1987.57 383.436 1987.57C384.116 1987.57 384.722 1987.42 385.256 1987.13C385.79 1986.83 386.211 1986.4 386.521 1985.83C386.83 1985.26 386.985 1984.57 386.985 1983.77V1974.71H390.003V1990H387.125L387.105 1986.26H387.403C386.952 1987.64 386.3 1988.64 385.446 1989.26C384.592 1989.88 383.579 1990.19 382.407 1990.19ZM397.049 1980.94V1990H394.042V1974.71H396.909L396.94 1978.46H396.63C397.074 1977.09 397.719 1976.09 398.565 1975.47C399.412 1974.84 400.436 1974.52 401.638 1974.52C402.678 1974.52 403.587 1974.74 404.366 1975.18C405.145 1975.61 405.751 1976.26 406.185 1977.11C406.619 1977.97 406.836 1979.03 406.836 1980.29V1990H403.828V1980.66C403.828 1979.56 403.542 1978.7 402.968 1978.08C402.395 1977.45 401.609 1977.14 400.609 1977.14C399.931 1977.14 399.323 1977.29 398.785 1977.59C398.246 1977.88 397.823 1978.32 397.513 1978.88C397.204 1979.45 397.049 1980.13 397.049 1980.94ZM417.428 1974.71V1977.16H409.137V1974.71H417.428ZM411.37 1971.08H414.377V1985.87C414.377 1986.48 414.506 1986.94 414.763 1987.22C415.021 1987.51 415.448 1987.65 416.044 1987.65C416.2 1987.65 416.406 1987.63 416.661 1987.6C416.915 1987.56 417.134 1987.52 417.316 1987.49L417.849 1989.9C417.527 1990 417.183 1990.08 416.818 1990.13C416.452 1990.17 416.094 1990.2 415.744 1990.2C414.352 1990.2 413.275 1989.84 412.513 1989.13C411.751 1988.42 411.37 1987.41 411.37 1986.11V1971.08Z" fill="#F97316"/>
<defs>
<filter id="filter0_dd_3_3" x="24" y="44" width="128" height="128" filterUnits="userSpaceOnUse" color-interpolation-filters="sRGB">
<feFlood flood-opacity="0" result="BackgroundImageFix"/>
<feColorMatrix in="SourceAlpha" type="matrix" values="0 0 0 0 0 0 0 0 0 0 0 0 0 0 0 0 0 0 127 0" result="hardAlpha"/>
<feMorphology radius="4" operator="erode" in="SourceAlpha" result="effect1_dropShadow_3_3"/>
<feOffset dy="4"/>
<feGaussianBlur stdDeviation="3"/>
<feComposite in2="hardAlpha" operator="out"/>
<feColorMatrix type="matrix" values="0 0 0 0 0 0 0 0 0 0 0 0 0 0 0 0 0 0 0.1 0"/>
<feBlend mode="normal" in2="BackgroundImageFix" result="effect1_dropShadow_3_3"/>
<feColorMatrix in="SourceAlpha" type="matrix" values="0 0 0 0 0 0 0 0 0 0 0 0 0 0 0 0 0 0 127 0" result="hardAlpha"/>
<feMorphology radius="3" operator="erode" in="SourceAlpha" result="effect2_dropShadow_3_3"/>
<feOffset dy="10"/>
<feGaussianBlur stdDeviation="7.5"/>
<feComposite in2="hardAlpha" operator="out"/>
<feColorMatrix type="matrix" values="0 0 0 0 0 0 0 0 0 0 0 0 0 0 0 0 0 0 0.1 0"/>
<feBlend mode="normal" in2="effect1_dropShadow_3_3" result="effect2_dropShadow_3_3"/>
<feBlend mode="normal" in="SourceGraphic" in2="effect2_dropShadow_3_3" result="shape"/>
</filter>
</defs>
</svg>
