<svg width="2048" height="168" viewBox="0 0 2048 168" fill="none" xmlns="http://www.w3.org/2000/svg">
<rect x="64" y="36" width="447.78" height="88" rx="12" fill="#1F6FEB"/>
<g filter="url(#filter1_dd_3_261)">
<rect x="64" y="36" width="447.78" height="88" rx="12" fill="white" fill-opacity="0.01" shape-rendering="crispEdges"/>
</g>
<path d="M133.667 76.6667V65L118.667 83.3333H130.333V95L145.333 76.6667H133.667V76.6667" stroke="white" stroke-width="1.66667" stroke-linecap="round" stroke-linejoin="round"/>
<path d="M178.526 92.3613C176.725 92.3613 175.159 92.0801 173.827 91.5178C172.495 90.9555 171.456 90.1377 170.709 89.0644C169.962 87.9911 169.557 86.6871 169.493 85.1525H173.603C173.672 85.9675 173.926 86.6448 174.367 87.1844C174.809 87.724 175.388 88.1271 176.106 88.3938C176.824 88.6605 177.62 88.7938 178.492 88.7938C179.409 88.7938 180.219 88.6538 180.92 88.3738C181.622 88.0938 182.172 87.7003 182.569 87.1935C182.967 86.6866 183.166 86.1004 183.166 85.435C183.166 84.8275 182.991 84.3259 182.64 83.9303C182.289 83.5347 181.799 83.2008 181.168 82.9287C180.538 82.6567 179.801 82.4154 178.956 82.205L176.312 81.515C174.373 81.0175 172.858 80.2617 171.766 79.2478C170.673 78.2338 170.127 76.9054 170.127 75.2625C170.127 73.89 170.498 72.6891 171.24 71.6597C171.982 70.6303 172.994 69.8307 174.276 69.2609C175.557 68.6911 177.01 68.4062 178.633 68.4062C180.292 68.4062 181.745 68.693 182.991 69.2666C184.238 69.8401 185.213 70.6305 185.918 71.6378C186.623 72.6451 186.99 73.7992 187.021 75.1H182.978C182.873 74.0996 182.426 73.3251 181.638 72.7765C180.849 72.228 179.828 71.9537 178.573 71.9537C177.701 71.9537 176.948 72.0859 176.315 72.3503C175.681 72.6147 175.196 72.9773 174.858 73.4381C174.52 73.8989 174.351 74.4246 174.351 75.015C174.351 75.6662 174.551 76.1999 174.951 76.6159C175.351 77.032 175.857 77.3649 176.467 77.6147C177.077 77.8645 177.693 78.0675 178.316 78.2238L180.492 78.78C181.353 78.9842 182.192 79.2602 183.007 79.6081C183.822 79.9561 184.556 80.3928 185.207 80.9184C185.859 81.4441 186.377 82.0802 186.759 82.8269C187.142 83.5735 187.333 84.4529 187.333 85.465C187.333 86.8296 186.986 88.0307 186.291 89.0684C185.595 90.1061 184.591 90.9144 183.278 91.4931C181.966 92.0719 180.381 92.3613 178.526 92.3613ZM199.052 74.5312V77.7137H189.132V74.5312H199.052ZM191.611 70.375H195.672V87.0806C195.672 87.7119 195.808 88.1753 196.078 88.471C196.349 88.7666 196.796 88.9144 197.42 88.9144C197.6 88.9144 197.844 88.8926 198.15 88.8491C198.456 88.8056 198.703 88.7629 198.891 88.7213L199.531 91.8556C199.085 91.9935 198.63 92.0914 198.165 92.1491C197.699 92.2068 197.249 92.2356 196.813 92.2356C195.141 92.2356 193.856 91.8194 192.958 90.9869C192.06 90.1544 191.611 88.9683 191.611 87.4288V70.375ZM207.312 92.3613C206.204 92.3613 205.207 92.1614 204.321 91.7616C203.435 91.3618 202.735 90.7702 202.223 89.9869C201.71 89.2035 201.454 88.2371 201.454 87.0875C201.454 86.1025 201.639 85.2881 202.008 84.6444C202.378 84.0006 202.879 83.4859 203.513 83.1003C204.146 82.7147 204.859 82.423 205.652 82.2253C206.445 82.0276 207.264 81.8842 208.11 81.795C209.129 81.6821 209.955 81.5835 210.587 81.4994C211.219 81.4152 211.684 81.2799 211.983 81.0934C212.282 80.907 212.432 80.6171 212.432 80.2238V80.1413C212.432 79.5658 212.316 79.0789 212.084 78.6806C211.853 78.2823 211.511 77.9767 211.06 77.764C210.608 77.5513 210.049 77.445 209.383 77.445C208.707 77.445 208.121 77.5489 207.625 77.7569C207.128 77.9648 206.724 78.235 206.41 78.5675C206.096 78.9 205.867 79.26 205.72 79.6475L201.954 78.875C202.301 77.8425 202.834 76.9902 203.553 76.3181C204.272 75.646 205.13 75.1437 206.128 74.8112C207.125 74.4787 208.204 74.3125 209.367 74.3125C210.186 74.3125 211.015 74.41 211.854 74.605C212.692 74.8 213.462 75.1246 214.162 75.5787C214.862 76.0329 215.426 76.6463 215.852 77.4191C216.279 78.1918 216.493 79.1592 216.493 80.3213V92H212.608V89.5913H212.443C212.189 90.0875 211.833 90.5461 211.374 90.9672C210.916 91.3882 210.351 91.7258 209.68 91.98C209.008 92.2342 208.219 92.3613 207.312 92.3613ZM208.353 89.3425C209.192 89.3425 209.918 89.1769 210.529 88.8456C211.141 88.5144 211.615 88.0739 211.951 87.5241C212.286 86.9743 212.454 86.3771 212.454 85.7325V83.665C212.321 83.7742 212.097 83.875 211.783 83.9675C211.469 84.06 211.115 84.1423 210.721 84.2144C210.328 84.2864 209.942 84.3483 209.565 84.4C209.188 84.4517 208.867 84.495 208.604 84.53C207.994 84.6096 207.446 84.7453 206.959 84.9372C206.471 85.1291 206.088 85.3941 205.809 85.7322C205.53 86.0703 205.39 86.5071 205.39 87.0425C205.39 87.5454 205.518 87.9672 205.775 88.3078C206.031 88.6485 206.381 88.9061 206.825 89.0806C207.269 89.2552 207.779 89.3425 208.353 89.3425ZM220.802 92V74.5312H224.735V77.455H224.923C225.242 76.4421 225.791 75.6618 226.571 75.1141C227.35 74.5664 228.24 74.2925 229.24 74.2925C229.471 74.2925 229.727 74.3033 230.008 74.325C230.289 74.3467 230.527 74.3758 230.724 74.4125V78.1462C230.558 78.0916 230.287 78.0426 229.911 77.999C229.534 77.9555 229.168 77.9337 228.812 77.9337C228.057 77.9337 227.38 78.0951 226.78 78.4178C226.181 78.7405 225.711 79.1859 225.372 79.754C225.032 80.3222 224.863 80.9796 224.863 81.7262V92H220.802ZM242.162 74.5312V77.7137H232.242V74.5312H242.162ZM234.72 70.375H238.782V87.0806C238.782 87.7119 238.917 88.1753 239.188 88.471C239.459 88.7666 239.906 88.9144 240.529 88.9144C240.71 88.9144 240.953 88.8926 241.259 88.8491C241.565 88.8056 241.812 88.7629 242 88.7213L242.64 91.8556C242.195 91.9935 241.739 92.0914 241.274 92.1491C240.809 92.2068 240.358 92.2356 239.922 92.2356C238.251 92.2356 236.966 91.8194 236.068 90.9869C235.169 90.1544 234.72 88.9683 234.72 87.4288V70.375ZM261.807 92.3613C260.006 92.3613 258.44 92.0801 257.108 91.5178C255.776 90.9555 254.737 90.1377 253.99 89.0644C253.244 87.9911 252.838 86.6871 252.775 85.1525H256.885C256.953 85.9675 257.208 86.6448 257.649 87.1844C258.09 87.724 258.669 88.1271 259.387 88.3938C260.106 88.6605 260.901 88.7938 261.773 88.7938C262.691 88.7938 263.5 88.6538 264.202 88.3738C264.903 88.0938 265.453 87.7003 265.851 87.1935C266.248 86.6866 266.447 86.1004 266.447 85.435C266.447 84.8275 266.272 84.3259 265.921 83.9303C265.571 83.5347 265.08 83.2008 264.45 82.9287C263.819 82.6567 263.082 82.4154 262.237 82.205L259.593 81.515C257.655 81.0175 256.139 80.2617 255.047 79.2478C253.955 78.2338 253.408 76.9054 253.408 75.2625C253.408 73.89 253.779 72.6891 254.522 71.6597C255.264 70.6303 256.275 69.8307 257.557 69.2609C258.838 68.6911 260.291 68.4062 261.915 68.4062C263.573 68.4062 265.026 68.693 266.272 69.2666C267.519 69.8401 268.495 70.6305 269.199 71.6378C269.904 72.6451 270.272 73.7992 270.302 75.1H266.26C266.154 74.0996 265.707 73.3251 264.919 72.7765C264.13 72.228 263.109 71.9537 261.855 71.9537C260.982 71.9537 260.229 72.0859 259.596 72.3503C258.963 72.6147 258.477 72.9773 258.139 73.4381C257.801 73.8989 257.632 74.4246 257.632 75.015C257.632 75.6662 257.832 76.1999 258.232 76.6159C258.633 77.032 259.138 77.3649 259.748 77.6147C260.358 77.8645 260.975 78.0675 261.597 78.2238L263.773 78.78C264.635 78.9842 265.473 79.2602 266.288 79.6081C267.103 79.9561 267.837 80.3928 268.489 80.9184C269.141 81.4441 269.658 82.0802 270.041 82.8269C270.423 83.5735 270.615 84.4529 270.615 85.465C270.615 86.8296 270.267 88.0307 269.572 89.0684C268.877 90.1061 267.873 90.9144 266.56 91.4931C265.247 92.0719 263.663 92.3613 261.807 92.3613ZM274.08 98.2325L275.035 95.0638L275.518 95.1925C276.132 95.3496 276.679 95.3924 277.159 95.321C277.639 95.2495 278.04 95.0402 278.363 94.6932C278.685 94.3461 278.914 93.8402 279.049 93.1756L279.307 92.0656L272.708 74.5312H277.052L280.248 84.03C280.621 85.1546 280.927 86.2753 281.166 87.3922C281.405 88.5091 281.67 89.65 281.961 90.815H280.89C281.181 89.65 281.466 88.5055 281.743 87.3816C282.021 86.2576 282.349 85.1405 282.727 84.03L286.027 74.5312H290.327L282.824 94.2438C282.47 95.1783 282.026 95.9751 281.492 96.6341C280.957 97.293 280.307 97.7948 279.54 98.1394C278.773 98.484 277.862 98.6562 276.807 98.6562C276.228 98.6562 275.696 98.6142 275.212 98.53C274.727 98.4458 274.35 98.3467 274.08 98.2325ZM299.69 92.3525C298.353 92.3525 297.168 92.1602 296.134 91.7756C295.101 91.391 294.255 90.8297 293.596 90.0916C292.938 89.3534 292.506 88.4581 292.302 87.4056L296.104 86.6919C296.339 87.5527 296.763 88.193 297.375 88.6128C297.987 89.0326 298.785 89.2425 299.771 89.2425C300.772 89.2425 301.566 89.0421 302.153 88.6413C302.741 88.2404 303.034 87.7463 303.034 87.1588C303.034 86.6521 302.841 86.2348 302.455 85.9069C302.068 85.5789 301.475 85.3292 300.674 85.1575L297.7 84.515C296.049 84.1587 294.818 83.5743 294.006 82.7615C293.194 81.9488 292.788 80.9017 292.788 79.62C292.788 78.5412 293.085 77.605 293.679 76.8112C294.274 76.0175 295.099 75.4026 296.156 74.9666C297.212 74.5305 298.437 74.3125 299.83 74.3125C301.152 74.3125 302.289 74.4997 303.242 74.8741C304.195 75.2484 304.966 75.7723 305.556 76.4456C306.146 77.119 306.556 77.9102 306.787 78.8194L303.165 79.5262C302.963 78.92 302.601 78.4057 302.08 77.9834C301.558 77.5611 300.827 77.35 299.885 77.35C299.024 77.35 298.304 77.538 297.725 77.914C297.147 78.2901 296.858 78.7771 296.858 79.375C296.858 79.8821 297.048 80.3019 297.429 80.6344C297.809 80.9669 298.444 81.2304 299.334 81.425L302.307 82.05C303.961 82.4025 305.19 82.9692 305.994 83.75C306.797 84.5308 307.199 85.5371 307.199 86.7688C307.199 87.8721 306.88 88.8428 306.242 89.6809C305.604 90.5191 304.72 91.1739 303.592 91.6453C302.464 92.1168 301.163 92.3525 299.69 92.3525ZM318.74 74.5312V77.7137H308.82V74.5312H318.74ZM311.298 70.375H315.36V87.0806C315.36 87.7119 315.495 88.1753 315.766 88.471C316.037 88.7666 316.484 88.9144 317.107 88.9144C317.288 88.9144 317.531 88.8926 317.837 88.8491C318.144 88.8056 318.39 88.7629 318.578 88.7213L319.218 91.8556C318.773 91.9935 318.318 92.0914 317.852 92.1491C317.387 92.2068 316.936 92.2356 316.5 92.2356C314.829 92.2356 313.544 91.8194 312.646 90.9869C311.748 90.1544 311.298 88.9683 311.298 87.4288V70.375ZM329.36 92.3525C327.609 92.3525 326.099 91.9841 324.83 91.2472C323.561 90.5103 322.586 89.47 321.903 88.1262C321.221 86.7825 320.88 85.1979 320.88 83.3725C320.88 81.5771 321.217 79.9999 321.891 78.6409C322.565 77.282 323.519 76.2208 324.752 75.4575C325.984 74.6942 327.432 74.3125 329.094 74.3125C330.164 74.3125 331.179 74.4849 332.14 74.8297C333.101 75.1745 333.953 75.7049 334.697 76.4209C335.441 77.137 336.026 78.0504 336.452 79.1612C336.878 80.2721 337.092 81.5954 337.092 83.1312V84.3987H322.798V81.6413H335.064L333.167 82.46C333.167 81.4717 333.014 80.6053 332.709 79.8609C332.404 79.1165 331.952 78.5368 331.352 78.1215C330.753 77.7063 330.007 77.4987 329.117 77.4987C328.226 77.4987 327.467 77.7097 326.841 78.1315C326.215 78.5534 325.737 79.1165 325.409 79.8209C325.081 80.5253 324.917 81.3083 324.917 82.17V84.08C324.917 85.1842 325.104 86.1155 325.479 86.8741C325.854 87.6326 326.38 88.2043 327.058 88.5891C327.736 88.9739 328.522 89.1663 329.415 89.1663C330.009 89.1663 330.549 89.0814 331.034 88.9116C331.52 88.7418 331.938 88.4883 332.288 88.151C332.638 87.8137 332.905 87.3969 333.09 86.9006L336.822 87.6731C336.543 88.6081 336.064 89.4268 335.385 90.1291C334.705 90.8314 333.857 91.3775 332.84 91.7675C331.823 92.1575 330.663 92.3525 329.36 92.3525ZM340.567 92V74.5312H344.382L344.538 78.73H344.24C344.495 77.6958 344.885 76.8501 345.41 76.1928C345.935 75.5355 346.549 75.0478 347.253 74.7297C347.957 74.4116 348.693 74.2525 349.462 74.2525C350.722 74.2525 351.74 74.6487 352.517 75.4412C353.294 76.2337 353.842 77.3967 354.162 78.93H353.674C353.916 77.89 354.326 77.0232 354.905 76.3297C355.483 75.6361 356.171 75.1166 356.969 74.7709C357.766 74.4253 358.618 74.2525 359.522 74.2525C360.57 74.2525 361.513 74.4806 362.35 74.9369C363.187 75.3931 363.849 76.063 364.336 76.9466C364.823 77.8301 365.067 78.9208 365.067 80.2188V92H361.006V80.8425C361.006 79.7621 360.71 78.9707 360.118 78.4684C359.526 77.9661 358.813 77.715 357.981 77.715C357.327 77.715 356.761 77.8556 356.284 78.1368C355.806 78.4181 355.439 78.8067 355.182 79.3028C354.925 79.7988 354.797 80.3754 354.797 81.0325V92H350.837V80.6625C350.837 79.7687 350.561 79.054 350.009 78.5184C349.457 77.9828 348.748 77.715 347.882 77.715C347.291 77.715 346.748 77.8523 346.252 78.1268C345.756 78.4014 345.362 78.8034 345.068 79.3328C344.775 79.8622 344.628 80.5154 344.628 81.2925V92H340.567ZM377.628 92V68.7188H386.34C388.122 68.7188 389.622 69.0532 390.839 69.7222C392.056 70.3911 392.976 71.3054 393.6 72.465C394.224 73.6246 394.536 74.9458 394.536 76.4287C394.536 77.9154 394.221 79.2372 393.592 80.394C392.962 81.5509 392.034 82.4617 390.807 83.1265C389.581 83.7913 388.068 84.1237 386.271 84.1237H380.501V80.6875H385.72C386.776 80.6875 387.64 80.5047 388.312 80.1391C388.983 79.7734 389.477 79.2694 389.795 78.6269C390.113 77.9844 390.272 77.2517 390.272 76.4287C390.272 75.5983 390.113 74.8661 389.795 74.2322C389.477 73.5982 388.981 73.1029 388.307 72.7462C387.632 72.3895 386.763 72.2112 385.7 72.2112H381.801V92H377.628ZM398.083 92V74.5312H402.017V77.455H402.204C402.523 76.4421 403.072 75.6618 403.852 75.1141C404.631 74.5664 405.521 74.2925 406.522 74.2925C406.752 74.2925 407.008 74.3033 407.289 74.325C407.57 74.3467 407.809 74.3758 408.005 74.4125V78.1462C407.839 78.0916 407.568 78.0426 407.192 77.999C406.815 77.9555 406.449 77.9337 406.093 77.9337C405.338 77.9337 404.661 78.0951 404.062 78.4178C403.462 78.7405 402.992 79.1859 402.653 79.754C402.314 80.3222 402.144 80.9796 402.144 81.7262V92H398.083ZM417.665 92.3525C415.969 92.3525 414.496 91.9766 413.245 91.2247C411.994 90.4728 411.027 89.4207 410.343 88.0684C409.66 86.7161 409.318 85.1442 409.318 83.3525C409.318 81.5408 409.66 79.9572 410.343 78.6016C411.027 77.2459 411.994 76.1922 413.245 75.4403C414.496 74.6884 415.969 74.3125 417.665 74.3125C419.367 74.3125 420.844 74.6884 422.094 75.4403C423.344 76.1922 424.311 77.2459 424.995 78.6016C425.679 79.9572 426.02 81.5408 426.02 83.3525C426.02 85.1442 425.679 86.7161 424.995 88.0684C424.311 89.4207 423.344 90.4728 422.094 91.2247C420.844 91.9766 419.367 92.3525 417.665 92.3525ZM417.665 89.055C418.613 89.055 419.401 88.7998 420.028 88.2894C420.655 87.779 421.123 87.0916 421.432 86.2272C421.74 85.3628 421.894 84.4008 421.894 83.3413C421.894 82.2712 421.74 81.3035 421.432 80.4381C421.123 79.5727 420.655 78.885 420.028 78.375C419.401 77.865 418.613 77.61 417.665 77.61C416.719 77.61 415.935 77.865 415.313 78.375C414.69 78.885 414.225 79.571 413.917 80.4331C413.608 81.2952 413.454 82.2646 413.454 83.3413C413.454 84.4008 413.608 85.3628 413.917 86.2272C414.225 87.0916 414.69 87.779 415.313 88.2894C415.935 88.7998 416.719 89.055 417.665 89.055ZM427.521 92L434.322 81.4581L434.312 84.6044L427.863 74.5312H432.332L434.11 77.5C434.631 78.39 435.094 79.2565 435.5 80.0994C435.906 80.9423 436.318 81.7573 436.737 82.5444H435.06C435.497 81.761 435.909 80.947 436.295 80.1022C436.682 79.2574 437.145 78.39 437.684 77.5L439.52 74.5312H443.903L437.368 84.6787V81.5881L444.162 92H439.721L437.575 88.5C437.049 87.6196 436.582 86.7625 436.173 85.9287C435.765 85.095 435.349 84.2946 434.925 83.5275H436.612C436.2 84.2946 435.804 85.095 435.425 85.9287C435.045 86.7625 434.593 87.6196 434.068 88.5L431.918 92H427.521ZM446.924 98.2325L447.879 95.0638L448.362 95.1925C448.976 95.3496 449.523 95.3924 450.003 95.321C450.483 95.2495 450.884 95.0402 451.207 94.6932C451.529 94.3461 451.758 93.8402 451.893 93.1756L452.151 92.0656L445.552 74.5312H449.896L453.092 84.03C453.465 85.1546 453.771 86.2753 454.01 87.3922C454.249 88.5091 454.514 89.65 454.805 90.815H453.734C454.025 89.65 454.309 88.5055 454.587 87.3816C454.865 86.2576 455.193 85.1405 455.571 84.03L458.871 74.5312H463.171L455.668 94.2438C455.314 95.1783 454.869 95.9751 454.335 96.6341C453.801 97.293 453.151 97.7948 452.384 98.1394C451.617 98.484 450.706 98.6562 449.65 98.6562C449.072 98.6562 448.54 98.6142 448.055 98.53C447.571 98.4458 447.194 98.3467 446.924 98.2325Z" fill="white"/>
<rect x="543.78" y="38" width="84" height="84" rx="12" fill="#1F2937" fill-opacity="0.5"/>
<rect x="544.28" y="38.5" width="83" height="83" rx="11.5" stroke="#374151" stroke-opacity="0.5"/>
<path d="M585.78 66.6666V93.3333M599.113 80H572.447" stroke="#8B949E" stroke-width="1.66667" stroke-linecap="round" stroke-linejoin="round"/>
<rect x="643.78" y="38" width="84" height="84" rx="12" fill="#1F2937" fill-opacity="0.5"/>
<rect x="644.28" y="38.5" width="83" height="83" rx="11.5" stroke="#374151" stroke-opacity="0.5"/>
<path d="M672.447 86.6666V88.3333C672.447 91.0947 674.685 93.3333 677.447 93.3333H694.113C696.875 93.3333 699.113 91.0947 699.113 88.3333V86.6666M692.447 80L685.78 86.6666M685.78 86.6666L679.113 80M685.78 86.6666V66.6666" stroke="#8B949E" stroke-width="1.66667" stroke-linecap="round" stroke-linejoin="round"/>
<rect x="743.78" y="38" width="84" height="84" rx="12" fill="#1F2937" fill-opacity="0.5"/>
<rect x="744.28" y="38.5" width="83" height="83" rx="11.5" stroke="#374151" stroke-opacity="0.5"/>
<path d="M772.447 66.6666V75H773.417M799.01 78.3333C798.252 72.3102 793.522 67.5592 787.502 66.7752C781.482 65.9912 775.692 69.3719 773.417 75M773.417 75H780.78M799.113 93.3333V85H798.145M798.145 85C795.866 90.6245 790.078 94.0018 784.06 93.2181C778.042 92.4344 773.312 87.6872 772.55 81.6666M798.145 85H790.78" stroke="#8B949E" stroke-width="1.66667" stroke-linecap="round" stroke-linejoin="round"/>
<g clip-path="url(#clip0_3_261)">
<rect x="1904" y="40" width="80" height="84" rx="20" fill="#FEF9C3"/>
<path d="M1944 96C1950.63 96 1956 90.63 1956 84C1956 77.37 1950.63 72 1944 72C1944 72 1932 77.37 1932 84C1932 84 1937.37 96 1944 96ZM1944 102C1935.99 102 1920 106.02 1920 114V120H1968V114C1968 106.02 1952.01 102 1944 102Z" fill="#CA8A04"/>
</g>
<rect x="1905" y="41" width="78" height="82" rx="19" stroke="#1F6FEB" stroke-width="2"/>
<rect x="1204" y="40" width="512" height="80" rx="12" fill="#1F2937" fill-opacity="0.5"/>
<g clip-path="url(#clip1_3_261)">
<path d="M1297.6 74.7273C1297.48 73.7197 1297 72.9375 1296.15 72.3807C1295.3 71.8239 1294.26 71.5455 1293.03 71.5455C1292.13 71.5455 1291.34 71.6913 1290.66 71.983C1289.99 72.2746 1289.47 72.6757 1289.09 73.1861C1288.72 73.6965 1288.53 74.2765 1288.53 74.9261C1288.53 75.4697 1288.66 75.937 1288.92 76.3281C1289.19 76.7126 1289.53 77.0341 1289.94 77.2926C1290.35 77.5445 1290.78 77.7533 1291.23 77.919C1291.68 78.0781 1292.09 78.2074 1292.47 78.3068L1294.54 78.8636C1295.07 79.0028 1295.66 79.1951 1296.31 79.4403C1296.97 79.6856 1297.59 80.0204 1298.19 80.4446C1298.79 80.8622 1299.29 81.3991 1299.68 82.0554C1300.07 82.7116 1300.27 83.517 1300.27 84.4716C1300.27 85.572 1299.98 86.5663 1299.4 87.4545C1298.83 88.3428 1298 89.0488 1296.9 89.5724C1295.8 90.0961 1294.47 90.358 1292.91 90.358C1291.45 90.358 1290.19 90.1226 1289.12 89.652C1288.06 89.1813 1287.22 88.5251 1286.62 87.6832C1286.01 86.8414 1285.67 85.8636 1285.59 84.75H1288.14C1288.2 85.5189 1288.46 86.1553 1288.91 86.6591C1289.37 87.1562 1289.95 87.5275 1290.64 87.7727C1291.34 88.0114 1292.1 88.1307 1292.91 88.1307C1293.85 88.1307 1294.7 87.9782 1295.44 87.6733C1296.19 87.3617 1296.79 86.9309 1297.22 86.3807C1297.66 85.8239 1297.88 85.1742 1297.88 84.4318C1297.88 83.7557 1297.69 83.2055 1297.31 82.7812C1296.94 82.357 1296.44 82.0123 1295.82 81.7472C1295.21 81.482 1294.54 81.25 1293.82 81.0511L1291.32 80.3352C1289.73 79.8778 1288.47 79.2249 1287.54 78.3764C1286.61 77.5279 1286.15 76.4176 1286.15 75.0455C1286.15 73.9053 1286.46 72.911 1287.07 72.0625C1287.7 71.2074 1288.53 70.5445 1289.58 70.0739C1290.63 69.5966 1291.81 69.358 1293.11 69.358C1294.42 69.358 1295.59 69.5933 1296.61 70.0639C1297.63 70.5279 1298.44 71.1643 1299.03 71.973C1299.64 72.7817 1299.96 73.6998 1299.99 74.7273H1297.6ZM1310.41 90.3182C1308.94 90.3182 1307.67 89.9934 1306.6 89.3438C1305.54 88.6875 1304.72 87.7727 1304.14 86.5994C1303.57 85.4195 1303.29 84.0473 1303.29 82.483C1303.29 80.9186 1303.57 79.5398 1304.14 78.3466C1304.72 77.1468 1305.52 76.2121 1306.55 75.5426C1307.58 74.8665 1308.79 74.5284 1310.17 74.5284C1310.96 74.5284 1311.75 74.661 1312.52 74.9261C1313.3 75.1913 1314.01 75.6222 1314.64 76.2188C1315.28 76.8087 1315.79 77.5909 1316.16 78.5653C1316.54 79.5398 1316.73 80.7396 1316.73 82.1648V83.1591H1304.96V81.1307H1314.34C1314.34 80.2689 1314.17 79.5 1313.83 78.8239C1313.49 78.1477 1313.01 77.6141 1312.38 77.223C1311.75 76.8319 1311.02 76.6364 1310.17 76.6364C1309.23 76.6364 1308.42 76.8684 1307.74 77.3324C1307.07 77.7898 1306.55 78.3864 1306.18 79.1222C1305.82 79.858 1305.63 80.6468 1305.63 81.4886V82.8409C1305.63 83.9943 1305.83 84.9721 1306.23 85.7741C1306.63 86.5696 1307.19 87.1761 1307.91 87.5938C1308.63 88.0047 1309.46 88.2102 1310.41 88.2102C1311.02 88.2102 1311.58 88.1241 1312.08 87.9517C1312.58 87.7727 1313.02 87.5076 1313.38 87.1562C1313.74 86.7983 1314.03 86.3542 1314.22 85.8239L1316.49 86.4602C1316.25 87.2292 1315.85 87.9053 1315.29 88.4886C1314.73 89.0653 1314.03 89.5161 1313.2 89.8409C1312.37 90.1591 1311.44 90.3182 1310.41 90.3182ZM1324.79 90.358C1323.83 90.358 1322.95 90.1757 1322.16 89.8111C1321.37 89.4399 1320.74 88.9062 1320.28 88.2102C1319.82 87.5076 1319.58 86.6591 1319.58 85.6648C1319.58 84.7898 1319.76 84.0805 1320.1 83.5369C1320.45 82.9867 1320.91 82.5559 1321.48 82.2443C1322.06 81.9328 1322.7 81.7008 1323.39 81.5483C1324.1 81.3892 1324.8 81.2633 1325.51 81.1705C1326.44 81.0511 1327.19 80.9616 1327.77 80.902C1328.35 80.8357 1328.77 80.7263 1329.04 80.5739C1329.31 80.4214 1329.45 80.1562 1329.45 79.7784V79.6989C1329.45 78.7178 1329.18 77.9555 1328.64 77.4119C1328.11 76.8684 1327.31 76.5966 1326.23 76.5966C1325.11 76.5966 1324.23 76.8419 1323.59 77.3324C1322.95 77.8229 1322.51 78.3466 1322.25 78.9034L1320.02 78.108C1320.42 77.1799 1320.95 76.4574 1321.61 75.9403C1322.28 75.4167 1323.01 75.0521 1323.8 74.8466C1324.6 74.6345 1325.38 74.5284 1326.15 74.5284C1326.64 74.5284 1327.2 74.5881 1327.84 74.7074C1328.48 74.8201 1329.1 75.0554 1329.7 75.4134C1330.3 75.7713 1330.8 76.3116 1331.2 77.0341C1331.6 77.7566 1331.79 78.7244 1331.79 79.9375V90H1329.45V87.9318H1329.33C1329.17 88.2633 1328.9 88.6179 1328.53 88.9957C1328.16 89.3736 1327.67 89.6951 1327.05 89.9602C1326.44 90.2254 1325.68 90.358 1324.79 90.358ZM1325.15 88.25C1326.08 88.25 1326.86 88.0677 1327.5 87.7031C1328.14 87.3385 1328.63 86.8679 1328.95 86.2912C1329.28 85.7145 1329.45 85.108 1329.45 84.4716V82.3239C1329.35 82.4432 1329.13 82.5526 1328.79 82.652C1328.46 82.7448 1328.08 82.8277 1327.64 82.9006C1327.21 82.9669 1326.79 83.0265 1326.38 83.0795C1325.97 83.1259 1325.64 83.1657 1325.39 83.1989C1324.78 83.2784 1324.21 83.4077 1323.68 83.5866C1323.16 83.759 1322.73 84.0208 1322.41 84.3722C1322.09 84.7169 1321.93 85.1875 1321.93 85.7841C1321.93 86.5994 1322.23 87.2159 1322.84 87.6335C1323.45 88.0445 1324.22 88.25 1325.15 88.25ZM1336.08 90V74.7273H1338.34V77.0341H1338.5C1338.78 76.2784 1339.29 75.6652 1340.01 75.1946C1340.74 74.724 1341.57 74.4886 1342.48 74.4886C1342.65 74.4886 1342.87 74.4919 1343.13 74.4986C1343.39 74.5052 1343.58 74.5152 1343.71 74.5284V76.9148C1343.63 76.8949 1343.45 76.8651 1343.17 76.8253C1342.89 76.7789 1342.59 76.7557 1342.28 76.7557C1341.54 76.7557 1340.88 76.9115 1340.29 77.223C1339.72 77.5279 1339.26 77.9522 1338.92 78.4957C1338.59 79.0327 1338.42 79.6458 1338.42 80.3352V90H1336.08ZM1352.24 90.3182C1350.8 90.3182 1349.57 89.9801 1348.54 89.304C1347.5 88.6278 1346.71 87.6965 1346.15 86.5099C1345.59 85.3234 1345.31 83.9678 1345.31 82.4432C1345.31 80.892 1345.6 79.5232 1346.17 78.3366C1346.75 77.1435 1347.55 76.2121 1348.58 75.5426C1349.61 74.8665 1350.82 74.5284 1352.2 74.5284C1353.27 74.5284 1354.24 74.7273 1355.1 75.125C1355.96 75.5227 1356.67 76.0795 1357.22 76.7955C1357.77 77.5114 1358.11 78.3466 1358.24 79.3011H1355.89C1355.72 78.6051 1355.32 77.9886 1354.7 77.4517C1354.09 76.9081 1353.27 76.6364 1352.24 76.6364C1351.32 76.6364 1350.52 76.875 1349.83 77.3523C1349.15 77.8229 1348.61 78.4891 1348.23 79.3509C1347.85 80.206 1347.66 81.2102 1347.66 82.3636C1347.66 83.5436 1347.85 84.571 1348.22 85.446C1348.6 86.321 1349.13 87.0005 1349.81 87.4844C1350.5 87.9683 1351.31 88.2102 1352.24 88.2102C1352.84 88.2102 1353.4 88.1042 1353.9 87.892C1354.39 87.6799 1354.81 87.375 1355.16 86.9773C1355.5 86.5795 1355.75 86.1023 1355.89 85.5455H1358.24C1358.11 86.447 1357.78 87.259 1357.26 87.9815C1356.74 88.6974 1356.05 89.2675 1355.2 89.6918C1354.35 90.1094 1353.36 90.3182 1352.24 90.3182ZM1364.02 80.8125V90H1361.67V69.6364H1364.02V77.1136H1364.22C1364.57 76.3248 1365.11 75.6984 1365.83 75.2344C1366.55 74.7637 1367.51 74.5284 1368.71 74.5284C1369.75 74.5284 1370.66 74.7372 1371.45 75.1548C1372.23 75.5658 1372.83 76.1989 1373.26 77.054C1373.7 77.9025 1373.92 78.983 1373.92 80.2955V90H1371.57V80.4545C1371.57 79.2415 1371.26 78.3035 1370.63 77.6406C1370.01 76.9711 1369.14 76.6364 1368.03 76.6364C1367.27 76.6364 1366.58 76.7988 1365.97 77.1236C1365.36 77.4484 1364.89 77.9223 1364.53 78.5455C1364.19 79.1686 1364.02 79.9242 1364.02 80.8125ZM1388.44 80.8125V90H1386.09V74.7273H1388.36V77.1136H1388.56C1388.91 76.3381 1389.46 75.715 1390.19 75.2443C1390.91 74.767 1391.86 74.5284 1393.01 74.5284C1394.04 74.5284 1394.95 74.7405 1395.72 75.1648C1396.5 75.5824 1397.1 76.2188 1397.53 77.0739C1397.96 77.9223 1398.18 78.9962 1398.18 80.2955V90H1395.83V80.4545C1395.83 79.2547 1395.52 78.3201 1394.9 77.6506C1394.28 76.9744 1393.42 76.6364 1392.33 76.6364C1391.58 76.6364 1390.91 76.7988 1390.32 77.1236C1389.74 77.4484 1389.28 77.9223 1388.94 78.5455C1388.6 79.1686 1388.44 79.9242 1388.44 80.8125ZM1408.67 90.3182C1407.29 90.3182 1406.08 89.9901 1405.04 89.3338C1404.01 88.6776 1403.2 87.7595 1402.62 86.5795C1402.04 85.3996 1401.75 84.0208 1401.75 82.4432C1401.75 80.8523 1402.04 79.4635 1402.62 78.277C1403.2 77.0904 1404.01 76.169 1405.04 75.5128C1406.08 74.8565 1407.29 74.5284 1408.67 74.5284C1410.05 74.5284 1411.26 74.8565 1412.29 75.5128C1413.33 76.169 1414.14 77.0904 1414.72 78.277C1415.3 79.4635 1415.59 80.8523 1415.59 82.4432C1415.59 84.0208 1415.3 85.3996 1414.72 86.5795C1414.14 87.7595 1413.33 88.6776 1412.29 89.3338C1411.26 89.9901 1410.05 90.3182 1408.67 90.3182ZM1408.67 88.2102C1409.72 88.2102 1410.58 87.9418 1411.26 87.4048C1411.93 86.8679 1412.43 86.1619 1412.76 85.2869C1413.08 84.4119 1413.25 83.464 1413.25 82.4432C1413.25 81.4223 1413.08 80.4711 1412.76 79.5895C1412.43 78.7079 1411.93 77.9953 1411.26 77.4517C1410.58 76.9081 1409.72 76.6364 1408.67 76.6364C1407.63 76.6364 1406.76 76.9081 1406.09 77.4517C1405.41 77.9953 1404.91 78.7079 1404.59 79.5895C1404.26 80.4711 1404.1 81.4223 1404.1 82.4432C1404.1 83.464 1404.26 84.4119 1404.59 85.2869C1404.91 86.1619 1405.41 86.8679 1406.09 87.4048C1406.76 87.9418 1407.63 88.2102 1408.67 88.2102ZM1424.94 90.3182C1423.67 90.3182 1422.55 89.9967 1421.57 89.3537C1420.6 88.7041 1419.83 87.7893 1419.28 86.6094C1418.73 85.4228 1418.46 84.0208 1418.46 82.4034C1418.46 80.7992 1418.73 79.4072 1419.28 78.2273C1419.83 77.0473 1420.6 76.1359 1421.58 75.4929C1422.56 74.8499 1423.7 74.5284 1424.98 74.5284C1425.98 74.5284 1426.76 74.6941 1427.34 75.0256C1427.92 75.3504 1428.37 75.7216 1428.67 76.1392C1428.98 76.5502 1429.22 76.8883 1429.4 77.1534H1429.6V69.6364H1431.94V90H1429.68V87.6534H1429.4C1429.22 87.9318 1428.98 88.2831 1428.66 88.7074C1428.34 89.125 1427.89 89.4995 1427.3 89.831C1426.71 90.1558 1425.92 90.3182 1424.94 90.3182ZM1425.26 88.2102C1426.2 88.2102 1427 87.965 1427.65 87.4744C1428.3 86.9773 1428.79 86.2912 1429.13 85.4162C1429.47 84.5346 1429.64 83.517 1429.64 82.3636C1429.64 81.2235 1429.47 80.2259 1429.14 79.3707C1428.81 78.509 1428.32 77.8395 1427.67 77.3622C1427.02 76.8783 1426.21 76.6364 1425.26 76.6364C1424.27 76.6364 1423.44 76.8916 1422.77 77.402C1422.12 77.9058 1421.62 78.5919 1421.29 79.4602C1420.97 80.322 1420.81 81.2898 1420.81 82.3636C1420.81 83.4508 1420.97 84.4384 1421.3 85.3267C1421.64 86.2083 1422.14 86.911 1422.79 87.4347C1423.46 87.9517 1424.28 88.2102 1425.26 88.2102ZM1442.97 90.3182C1441.5 90.3182 1440.23 89.9934 1439.16 89.3438C1438.1 88.6875 1437.28 87.7727 1436.7 86.5994C1436.13 85.4195 1435.85 84.0473 1435.85 82.483C1435.85 80.9186 1436.13 79.5398 1436.7 78.3466C1437.28 77.1468 1438.08 76.2121 1439.11 75.5426C1440.15 74.8665 1441.35 74.5284 1442.73 74.5284C1443.53 74.5284 1444.31 74.661 1445.09 74.9261C1445.86 75.1913 1446.57 75.6222 1447.2 76.2188C1447.84 76.8087 1448.35 77.5909 1448.73 78.5653C1449.1 79.5398 1449.29 80.7396 1449.29 82.1648V83.1591H1437.52V81.1307H1446.91C1446.91 80.2689 1446.73 79.5 1446.39 78.8239C1446.05 78.1477 1445.57 77.6141 1444.94 77.223C1444.31 76.8319 1443.58 76.6364 1442.73 76.6364C1441.8 76.6364 1440.99 76.8684 1440.3 77.3324C1439.63 77.7898 1439.11 78.3864 1438.74 79.1222C1438.38 79.858 1438.2 80.6468 1438.2 81.4886V82.8409C1438.2 83.9943 1438.4 84.9721 1438.79 85.7741C1439.2 86.5696 1439.76 87.1761 1440.47 87.5938C1441.19 88.0047 1442.02 88.2102 1442.97 88.2102C1443.59 88.2102 1444.14 88.1241 1444.64 87.9517C1445.14 87.7727 1445.58 87.5076 1445.94 87.1562C1446.31 86.7983 1446.59 86.3542 1446.79 85.8239L1449.05 86.4602C1448.82 87.2292 1448.41 87.9053 1447.85 88.4886C1447.29 89.0653 1446.59 89.5161 1445.76 89.8409C1444.93 90.1591 1444 90.3182 1442.97 90.3182ZM1463.68 78.1477L1461.57 78.7443C1461.44 78.393 1461.24 78.0516 1460.99 77.7202C1460.73 77.3821 1460.39 77.1037 1459.95 76.8849C1459.51 76.6662 1458.95 76.5568 1458.27 76.5568C1457.34 76.5568 1456.56 76.7723 1455.94 77.2031C1455.32 77.6274 1455.01 78.1676 1455.01 78.8239C1455.01 79.4072 1455.22 79.8679 1455.65 80.206C1456.07 80.544 1456.73 80.8258 1457.64 81.0511L1459.9 81.608C1461.27 81.9394 1462.29 82.4465 1462.95 83.1293C1463.62 83.8054 1463.96 84.6771 1463.96 85.7443C1463.96 86.6193 1463.71 87.4015 1463.2 88.0909C1462.71 88.7803 1462.01 89.3239 1461.12 89.7216C1460.22 90.1193 1459.18 90.3182 1457.99 90.3182C1456.44 90.3182 1455.15 89.9801 1454.13 89.304C1453.1 88.6278 1452.46 87.6402 1452.19 86.3409L1454.41 85.7841C1454.63 86.6061 1455.03 87.2225 1455.62 87.6335C1456.21 88.0445 1456.99 88.25 1457.95 88.25C1459.05 88.25 1459.92 88.018 1460.56 87.554C1461.21 87.0833 1461.53 86.5199 1461.53 85.8636C1461.53 85.3333 1461.35 84.8892 1460.98 84.5312C1460.6 84.1667 1460.03 83.8949 1459.27 83.7159L1456.72 83.1193C1455.32 82.7879 1454.29 82.2741 1453.64 81.5781C1452.99 80.8755 1452.66 79.9972 1452.66 78.9432C1452.66 78.0814 1452.91 77.3191 1453.39 76.6562C1453.88 75.9934 1454.55 75.473 1455.39 75.0952C1456.24 74.7173 1457.2 74.5284 1458.27 74.5284C1459.78 74.5284 1460.97 74.8598 1461.83 75.5227C1462.7 76.1856 1463.32 77.0606 1463.68 78.1477ZM1469.2 90.1591C1468.71 90.1591 1468.29 89.9834 1467.94 89.6321C1467.59 89.2808 1467.41 88.8598 1467.41 88.3693C1467.41 87.8788 1467.59 87.4579 1467.94 87.1065C1468.29 86.7552 1468.71 86.5795 1469.2 86.5795C1469.69 86.5795 1470.11 86.7552 1470.46 87.1065C1470.82 87.4579 1470.99 87.8788 1470.99 88.3693C1470.99 88.6941 1470.91 88.9924 1470.74 89.2642C1470.58 89.536 1470.37 89.7547 1470.1 89.9205C1469.83 90.0795 1469.53 90.1591 1469.2 90.1591ZM1476.91 90.1591C1476.42 90.1591 1476 89.9834 1475.65 89.6321C1475.3 89.2808 1475.12 88.8598 1475.12 88.3693C1475.12 87.8788 1475.3 87.4579 1475.65 87.1065C1476 86.7552 1476.42 86.5795 1476.91 86.5795C1477.4 86.5795 1477.82 86.7552 1478.18 87.1065C1478.53 87.4579 1478.7 87.8788 1478.7 88.3693C1478.7 88.6941 1478.62 88.9924 1478.45 89.2642C1478.29 89.536 1478.08 89.7547 1477.81 89.9205C1477.54 90.0795 1477.24 90.1591 1476.91 90.1591ZM1484.62 90.1591C1484.13 90.1591 1483.71 89.9834 1483.36 89.6321C1483.01 89.2808 1482.83 88.8598 1482.83 88.3693C1482.83 87.8788 1483.01 87.4579 1483.36 87.1065C1483.71 86.7552 1484.13 86.5795 1484.62 86.5795C1485.11 86.5795 1485.54 86.7552 1485.89 87.1065C1486.24 87.4579 1486.41 87.8788 1486.41 88.3693C1486.41 88.6941 1486.33 88.9924 1486.16 89.2642C1486.01 89.536 1485.79 89.7547 1485.52 89.9205C1485.25 90.0795 1484.96 90.1591 1484.62 90.1591Z" fill="#6B7280"/>
</g>
<path d="M1263 95L1253 85M1256.33 76.6667C1256.33 83.1057 1251.11 88.3333 1244.67 88.3333C1238.23 88.3333 1233 83.1057 1233 76.6667C1233 70.2277 1238.23 65 1244.67 65C1251.11 65 1256.33 70.2277 1256.33 76.6667L1263 95" stroke="#8B949E" stroke-width="1.66667" stroke-linecap="round" stroke-linejoin="round"/>
<rect x="1764" y="34" width="92" height="92" rx="12" fill="#1F2937" fill-opacity="0.5"/>
<rect x="1764.5" y="34.5" width="91" height="91" rx="11.5" stroke="#374151" stroke-opacity="0.5"/>
<path d="M1816 90H1826L1823.19 87.19C1822.43 86.4277 1822 85.3939 1822 84.316V78C1822 72.9134 1818.8 68.3787 1814 66.682V66C1814 63.7923 1812.21 62 1810 62C1807.79 62 1806 63.7923 1806 66V66.682C1801.34 68.33 1798 72.776 1798 78V84.318C1798 85.394 1797.57 86.428 1796.81 87.19L1794 90H1804M1816 90V92C1816 95.3115 1813.31 98 1810 98C1806.69 98 1804 95.3115 1804 92V90M1816 90H1804" stroke="#8B949E" stroke-width="2" stroke-linecap="round" stroke-linejoin="round"/>
<rect x="1818" y="52" width="16" height="16" rx="4" fill="#1F6FEB"/>
<defs>
<filter id="filter1_dd_3_261" x="40" y="32" width="495.78" height="136" filterUnits="userSpaceOnUse" color-interpolation-filters="sRGB">
<feFlood flood-opacity="0" result="BackgroundImageFix"/>
<feColorMatrix in="SourceAlpha" type="matrix" values="0 0 0 0 0 0 0 0 0 0 0 0 0 0 0 0 0 0 127 0" result="hardAlpha"/>
<feMorphology radius="4" operator="erode" in="SourceAlpha" result="effect1_dropShadow_3_261"/>
<feOffset dy="4"/>
<feGaussianBlur stdDeviation="3"/>
<feComposite in2="hardAlpha" operator="out"/>
<feColorMatrix type="matrix" values="0 0 0 0 0.231373 0 0 0 0 0.509804 0 0 0 0 0.964706 0 0 0 0.3 0"/>
<feBlend mode="normal" in2="BackgroundImageFix" result="effect1_dropShadow_3_261"/>
<feColorMatrix in="SourceAlpha" type="matrix" values="0 0 0 0 0 0 0 0 0 0 0 0 0 0 0 0 0 0 127 0" result="hardAlpha"/>
<feMorphology radius="3" operator="erode" in="SourceAlpha" result="effect2_dropShadow_3_261"/>
<feOffset dy="10"/>
<feGaussianBlur stdDeviation="7.5"/>
<feComposite in2="hardAlpha" operator="out"/>
<feColorMatrix type="matrix" values="0 0 0 0 0.231373 0 0 0 0 0.509804 0 0 0 0 0.964706 0 0 0 0.3 0"/>
<feBlend mode="normal" in2="effect1_dropShadow_3_261" result="effect2_dropShadow_3_261"/>
<feBlend mode="normal" in="SourceGraphic" in2="effect2_dropShadow_3_261" result="shape"/>
</filter>
<clipPath id="clip0_3_261">
<rect x="1904" y="40" width="80" height="84" rx="20" fill="white"/>
</clipPath>
<clipPath id="clip1_3_261">
<rect width="200" height="17" fill="white" transform="matrix(2 0 0 2 1284 62)"/>
</clipPath>
</defs>
</svg>
